Aikya-Bold_b005.ufo
<glyph name="exclam" format="1">
  <advance width="321"/>
  <unicode hex="0021"/>
  <outline>
    <contour>
      <point x="123" y="185" type="line"/>
      <point x="196" y="185" type="line"/>
      <point x="223" y="550" type="line"/>
      <point x="92" y="550" type="line"/>
    </contour>
    <contour>
      <point x="93" y="58" type="curve" smooth="yes"/>
      <point x="93" y="20"/>
      <point x="122" y="-6"/>
      <point x="162" y="-6" type="curve" smooth="yes"/>
      <point x="200" y="-6"/>
      <point x="231" y="18"/>
      <point x="231" y="56" type="curve" smooth="yes"/>
      <point x="231" y="92"/>
      <point x="205" y="121"/>
      <point x="162" y="121" type="curve" smooth="yes"/>
      <point x="122" y="121"/>
      <point x="93" y="95"/>
    </contour>
  </outline>
</glyph>
<glyph name="quotedbl" format="1">
  <advance width="453"/>
  <unicode hex="0022"/>
  <outline>
    <contour>
      <point x="283" y="349" type="line"/>
      <point x="352" y="349" type="line"/>
      <point x="371" y="600" type="line"/>
      <point x="264" y="600" type="line"/>
    </contour>
    <contour>
      <point x="100" y="349" type="line"/>
      <point x="169" y="349" type="line"/>
      <point x="188" y="600" type="line"/>
      <point x="81" y="600" type="line"/>
    </contour>
  </outline>
</glyph>
<glyph name="numbersign" format="1">
  <advance width="551"/>
  <unicode hex="0023"/>
  <outline>
    <contour>
      <point x="115" y="0" type="line"/>
      <point x="203" y="0" type="line"/>
      <point x="217" y="127" type="line"/>
      <point x="319" y="127" type="line"/>
      <point x="307" y="0" type="line"/>
      <point x="394" y="0" type="line"/>
      <point x="407" y="127" type="line"/>
      <point x="501" y="127" type="line"/>
      <point x="501" y="189" type="line"/>
      <point x="415" y="189" type="line"/>
      <point x="427" y="313" type="line"/>
      <point x="517" y="313" type="line"/>
      <point x="517" y="375" type="line"/>
      <point x="435" y="375" type="line"/>
      <point x="447" y="496" type="line"/>
      <point x="359" y="496" type="line"/>
      <point x="347" y="375" type="line"/>
      <point x="246" y="375" type="line"/>
      <point x="258" y="496" type="line"/>
      <point x="170" y="496" type="line"/>
      <point x="158" y="375" type="line"/>
      <point x="65" y="375" type="line"/>
      <point x="65" y="313" type="line"/>
      <point x="150" y="313" type="line"/>
      <point x="137" y="189" type="line"/>
      <point x="53" y="189" type="line"/>
      <point x="54" y="127" type="line"/>
      <point x="129" y="127" type="line"/>
    </contour>
    <contour>
      <point x="224" y="189" type="line"/>
      <point x="237" y="313" type="line"/>
      <point x="339" y="313" type="line"/>
      <point x="324" y="189" type="line"/>
    </contour>
  </outline>
</glyph>
<glyph name="dollar" format="1">
  <advance width="496"/>
  <unicode hex="0024"/>
  <outline>
    <contour>
      <point x="444" y="153" type="curve" smooth="yes"/>
      <point x="444" y="237"/>
      <point x="380" y="278"/>
      <point x="301" y="321" type="curve"/>
      <point x="243" y="353"/>
      <point x="181" y="383"/>
      <point x="181" y="439" type="curve" smooth="yes"/>
      <point x="181" y="480"/>
      <point x="213" y="508"/>
      <point x="262" y="509" type="curve" smooth="yes"/>
      <point x="290" y="509"/>
      <point x="310" y="501"/>
      <point x="322" y="490" type="curve"/>
      <point x="339" y="408" type="line"/>
      <point x="406" y="408" type="line"/>
      <point x="411" y="530" type="line"/>
      <point x="392" y="536"/>
      <point x="341" y="552"/>
      <point x="285" y="556" type="curve"/>
      <point x="285" y="637" type="line"/>
      <point x="219" y="637" type="line"/>
      <point x="219" y="555" type="line"/>
      <point x="123" y="542"/>
      <point x="66" y="482"/>
      <point x="66" y="412" type="curve" smooth="yes"/>
      <point x="66" y="319"/>
      <point x="124" y="277"/>
      <point x="199" y="239" type="curve" smooth="yes"/>
      <point x="273" y="201"/>
      <point x="324" y="170"/>
      <point x="324" y="120" type="curve" smooth="yes"/>
      <point x="324" y="73"/>
      <point x="299" y="42"/>
      <point x="238" y="42" type="curve" smooth="yes"/>
      <point x="198" y="42"/>
      <point x="173" y="53"/>
      <point x="158" y="68" type="curve"/>
      <point x="139" y="156" type="line"/>
      <point x="70" y="156" type="line"/>
      <point x="64" y="24" type="line"/>
      <point x="85" y="18"/>
      <point x="145" y="-3"/>
      <point x="215" y="-7" type="curve"/>
      <point x="214" y="-93" type="line"/>
      <point x="280" y="-93" type="line"/>
      <point x="281" y="-6" type="line"/>
      <point x="399" y="7"/>
      <point x="444" y="79"/>
    </contour>
  </outline>
</glyph>
<glyph name="percent" format="1">
  <advance width="790"/>
  <unicode hex="0025"/>
  <outline>
    <contour>
      <point x="174" y="232" type="curve" smooth="yes"/>
      <point x="258" y="232"/>
      <point x="329" y="290"/>
      <point x="329" y="393" type="curve" smooth="yes"/>
      <point x="329" y="481"/>
      <point x="290" y="553"/>
      <point x="187" y="553" type="curve" smooth="yes"/>
      <point x="102" y="553"/>
      <point x="33" y="493"/>
      <point x="33" y="389" type="curve" smooth="yes"/>
      <point x="33" y="304"/>
      <point x="83" y="232"/>
    </contour>
    <contour>
      <point x="181" y="281" type="curve" smooth="yes"/>
      <point x="142" y="281"/>
      <point x="130" y="341"/>
      <point x="130" y="393" type="curve" smooth="yes"/>
      <point x="130" y="456"/>
      <point x="142" y="503"/>
      <point x="183" y="503" type="curve" smooth="yes"/>
      <point x="221" y="503"/>
      <point x="232" y="447"/>
      <point x="232" y="390" type="curve" smooth="yes"/>
      <point x="232" y="327"/>
      <point x="221" y="281"/>
    </contour>
    <contour>
      <point x="237" y="0" type="line"/>
      <point x="313" y="0" type="line"/>
      <point x="550" y="556" type="line"/>
      <point x="474" y="556" type="line"/>
    </contour>
    <contour>
      <point x="461" y="166" type="curve" smooth="yes"/>
      <point x="461" y="81"/>
      <point x="510" y="9"/>
      <point x="601" y="9" type="curve" smooth="yes"/>
      <point x="685" y="9"/>
      <point x="756" y="67"/>
      <point x="756" y="170" type="curve" smooth="yes"/>
      <point x="756" y="259"/>
      <point x="717" y="329"/>
      <point x="615" y="329" type="curve" smooth="yes"/>
      <point x="529" y="329"/>
      <point x="461" y="270"/>
    </contour>
    <contour>
      <point x="557" y="170" type="curve" smooth="yes"/>
      <point x="557" y="233"/>
      <point x="570" y="280"/>
      <point x="610" y="280" type="curve" smooth="yes"/>
      <point x="648" y="280"/>
      <point x="659" y="224"/>
      <point x="659" y="167" type="curve" smooth="yes"/>
      <point x="659" y="104"/>
      <point x="648" y="58"/>
      <point x="607" y="58" type="curve" smooth="yes"/>
      <point x="569" y="58"/>
      <point x="557" y="119"/>
    </contour>
  </outline>
</glyph>
<glyph name="ampersand" format="1">
  <advance width="566"/>
  <unicode hex="0026"/>
  <outline>
    <contour>
      <point x="376" y="254" type="line"/>
      <point x="432" y="244" type="line"/>
      <point x="433" y="206"/>
      <point x="430" y="168"/>
      <point x="411" y="131" type="curve"/>
      <point x="399" y="144" type="line" smooth="yes"/>
      <point x="363" y="177"/>
      <point x="301" y="248"/>
      <point x="267" y="291" type="curve"/>
      <point x="345" y="333"/>
      <point x="390" y="371"/>
      <point x="390" y="450" type="curve" smooth="yes"/>
      <point x="390" y="503"/>
      <point x="346" y="557"/>
      <point x="245" y="557" type="curve" smooth="yes"/>
      <point x="151" y="557"/>
      <point x="79" y="497"/>
      <point x="79" y="419" type="curve" smooth="yes"/>
      <point x="79" y="361"/>
      <point x="109" y="309"/>
      <point x="140" y="269" type="curve"/>
      <point x="89" y="246"/>
      <point x="31" y="203"/>
      <point x="31" y="135" type="curve" smooth="yes"/>
      <point x="31" y="40"/>
      <point x="111" y="-8"/>
      <point x="241" y="-8" type="curve" smooth="yes"/>
      <point x="290" y="-8"/>
      <point x="338" y="1"/>
      <point x="372" y="25" type="curve"/>
      <point x="404" y="2"/>
      <point x="430" y="-6"/>
      <point x="470" y="-6" type="curve" smooth="yes"/>
      <point x="484" y="-6"/>
      <point x="527" y="-2"/>
      <point x="540" y="7" type="curve"/>
      <point x="540" y="53" type="line"/>
      <point x="504" y="56"/>
      <point x="476" y="72"/>
      <point x="450" y="94" type="curve"/>
      <point x="478" y="126"/>
      <point x="506" y="178"/>
      <point x="505" y="244" type="curve"/>
      <point x="557" y="254" type="line"/>
      <point x="557" y="307" type="line"/>
      <point x="376" y="307" type="line"/>
    </contour>
    <contour>
      <point x="253" y="45" type="curve" smooth="yes"/>
      <point x="177" y="45"/>
      <point x="136" y="91"/>
      <point x="136" y="152" type="curve" smooth="yes"/>
      <point x="136" y="187"/>
      <point x="150" y="210"/>
      <point x="170" y="231" type="curve"/>
      <point x="215" y="176"/>
      <point x="275" y="105"/>
      <point x="326" y="61" type="curve"/>
      <point x="306" y="50"/>
      <point x="281" y="45"/>
    </contour>
    <contour>
      <point x="189" y="439" type="curve" smooth="yes"/>
      <point x="189" y="489"/>
      <point x="212" y="516"/>
      <point x="244" y="516" type="curve" smooth="yes"/>
      <point x="287" y="516"/>
      <point x="293" y="473"/>
      <point x="293" y="450" type="curve" smooth="yes"/>
      <point x="293" y="403"/>
      <point x="282" y="363"/>
      <point x="239" y="324" type="curve"/>
      <point x="219" y="350"/>
      <point x="189" y="390"/>
    </contour>
  </outline>
</glyph>
<glyph name="quotesingle" format="1">
  <advance width="269"/>
  <unicode hex="0027"/>
  <outline>
    <contour>
      <point x="100" y="349" type="line"/>
      <point x="169" y="349" type="line"/>
      <point x="188" y="600" type="line"/>
      <point x="81" y="600" type="line"/>
    </contour>
  </outline>
</glyph>
<glyph name="parenleft" format="1">
  <advance width="329"/>
  <unicode hex="0028"/>
  <outline>
    <contour>
      <point x="40" y="247" type="curve" smooth="yes"/>
      <point x="40" y="-18"/>
      <point x="203" y="-121"/>
      <point x="236" y="-140" type="curve"/>
      <point x="279" y="-109" type="line"/>
      <point x="241" y="-83"/>
      <point x="140" y="39"/>
      <point x="146" y="260" type="curve" smooth="yes"/>
      <point x="152" y="464"/>
      <point x="246" y="565"/>
      <point x="278" y="585" type="curve"/>
      <point x="236" y="618" type="line"/>
      <point x="196" y="596"/>
      <point x="40" y="476"/>
    </contour>
  </outline>
</glyph>
<glyph name="parenright" format="1">
  <advance width="329"/>
  <unicode hex="0029"/>
  <outline>
    <contour>
      <point x="289" y="231" type="curve" smooth="yes"/>
      <point x="289" y="496"/>
      <point x="126" y="599"/>
      <point x="93" y="618" type="curve"/>
      <point x="50" y="587" type="line"/>
      <point x="88" y="561"/>
      <point x="189" y="439"/>
      <point x="183" y="218" type="curve" smooth="yes"/>
      <point x="177" y="14"/>
      <point x="83" y="-87"/>
      <point x="51" y="-107" type="curve"/>
      <point x="93" y="-140" type="line"/>
      <point x="133" y="-118"/>
      <point x="289" y="2"/>
    </contour>
  </outline>
</glyph>
<glyph name="asterisk" format="1">
  <advance width="491"/>
  <unicode hex="002A"/>
  <outline>
    <contour>
      <point x="95" y="282" type="line"/>
      <point x="164" y="335" type="line"/>
      <point x="229" y="397" type="line"/>
      <point x="209" y="312" type="line"/>
      <point x="201" y="224" type="line"/>
      <point x="296" y="224" type="line"/>
      <point x="285" y="312" type="line"/>
      <point x="261" y="396" type="line"/>
      <point x="330" y="336" type="line"/>
      <point x="396" y="285" type="line"/>
      <point x="445" y="367" type="line"/>
      <point x="367" y="401" type="line"/>
      <point x="278" y="425" type="line"/>
      <point x="367" y="450" type="line"/>
      <point x="443" y="487" type="line"/>
      <point x="396" y="567" type="line"/>
      <point x="326" y="514" type="line"/>
      <point x="261" y="453" type="line"/>
      <point x="281" y="538" type="line"/>
      <point x="290" y="624" type="line"/>
      <point x="194" y="624" type="line"/>
      <point x="205" y="536" type="line"/>
      <point x="229" y="451" type="line"/>
      <point x="162" y="512" type="line"/>
      <point x="93" y="564" type="line"/>
      <point x="46" y="483" type="line"/>
      <point x="125" y="449" type="line"/>
      <point x="212" y="424" type="line"/>
      <point x="125" y="399" type="line"/>
      <point x="47" y="361" type="line"/>
    </contour>
  </outline>
</glyph>
<glyph name="plus" format="1">
  <advance width="490"/>
  <unicode hex="002B"/>
  <outline>
    <contour>
      <point x="75" y="184" type="line"/>
      <point x="142" y="184" type="line"/>
      <point x="209" y="187" type="line"/>
      <point x="206" y="131" type="line"/>
      <point x="206" y="44" type="line"/>
      <point x="283" y="44" type="line"/>
      <point x="283" y="131" type="line"/>
      <point x="280" y="187" type="line"/>
      <point x="336" y="184" type="line"/>
      <point x="415" y="184" type="line"/>
      <point x="415" y="259" type="line"/>
      <point x="336" y="259" type="line"/>
      <point x="280" y="254" type="line"/>
      <point x="283" y="310" type="line"/>
      <point x="283" y="393" type="line"/>
      <point x="206" y="393" type="line"/>
      <point x="206" y="310" type="line"/>
      <point x="209" y="254" type="line"/>
      <point x="142" y="259" type="line"/>
      <point x="75" y="259" type="line"/>
    </contour>
  </outline>
</glyph>
<glyph name="comma" format="1">
  <advance width="248"/>
  <unicode hex="002C"/>
  <outline>
    <contour>
      <point x="128" y="125" type="curve" smooth="yes"/>
      <point x="85" y="125"/>
      <point x="60" y="102"/>
      <point x="60" y="62" type="curve" smooth="yes"/>
      <point x="60" y="10"/>
      <point x="111" y="10"/>
      <point x="111" y="-38" type="curve" smooth="yes"/>
      <point x="111" y="-84"/>
      <point x="88" y="-116"/>
      <point x="63" y="-135" type="curve"/>
      <point x="63" y="-147" type="line"/>
      <point x="96" y="-172" type="line"/>
      <point x="98" y="-172" type="line"/>
      <point x="139" y="-152"/>
      <point x="198" y="-70"/>
      <point x="198" y="24" type="curve" smooth="yes"/>
      <point x="198" y="87"/>
      <point x="170" y="125"/>
    </contour>
  </outline>
</glyph>
<glyph name="hyphen" format="1">
  <advance width="473"/>
  <unicode hex="002D"/>
  <outline>
    <contour>
      <point x="83" y="184" type="line"/>
      <point x="389" y="184" type="line"/>
      <point x="389" y="261" type="line"/>
      <point x="83" y="261" type="line"/>
    </contour>
  </outline>
</glyph>
<glyph name="period" format="1">
  <advance width="240"/>
  <unicode hex="002E"/>
  <outline>
    <contour>
      <point x="51" y="58" type="curve" smooth="yes"/>
      <point x="51" y="20"/>
      <point x="80" y="-6"/>
      <point x="120" y="-6" type="curve" smooth="yes"/>
      <point x="158" y="-6"/>
      <point x="189" y="18"/>
      <point x="189" y="56" type="curve" smooth="yes"/>
      <point x="189" y="92"/>
      <point x="163" y="121"/>
      <point x="120" y="121" type="curve" smooth="yes"/>
      <point x="80" y="121"/>
      <point x="51" y="95"/>
    </contour>
  </outline>
</glyph>
<glyph name="slash" format="1">
  <advance width="319"/>
  <unicode hex="002F"/>
  <outline>
    <contour>
      <point x="24" y="-131" type="line"/>
      <point x="108" y="-131" type="line"/>
      <point x="295" y="579" type="line"/>
      <point x="211" y="579" type="line"/>
    </contour>
  </outline>
</glyph>
<glyph name="zero" format="1">
  <advance width="487"/>
  <unicode hex="0030"/>
  <outline>
    <contour>
      <point x="233" y="-8" type="curve" smooth="yes"/>
      <point x="349" y="-8"/>
      <point x="447" y="73"/>
      <point x="447" y="236" type="curve" smooth="yes"/>
      <point x="448" y="384"/>
      <point x="383" y="466"/>
      <point x="255" y="466" type="curve" smooth="yes"/>
      <point x="141" y="466"/>
      <point x="40" y="390"/>
      <point x="39" y="227" type="curve" smooth="yes"/>
      <point x="39" y="81"/>
      <point x="107" y="-8"/>
    </contour>
    <contour>
      <point x="245" y="41" type="curve" smooth="yes"/>
      <point x="187" y="41"/>
      <point x="164" y="104"/>
      <point x="164" y="236" type="curve" smooth="yes"/>
      <point x="164" y="359"/>
      <point x="188" y="418"/>
      <point x="244" y="418" type="curve" smooth="yes"/>
      <point x="301" y="418"/>
      <point x="323" y="361"/>
      <point x="323" y="227" type="curve" smooth="yes"/>
      <point x="323" y="101"/>
      <point x="301" y="41"/>
    </contour>
  </outline>
</glyph>
<glyph name="one" format="1">
  <advance width="340"/>
  <unicode hex="0031"/>
  <outline>
    <contour>
      <point x="40" y="0" type="line"/>
      <point x="326" y="0" type="line"/>
      <point x="326" y="48" type="line"/>
      <point x="250" y="59" type="line"/>
      <point x="250" y="459" type="line"/>
      <point x="182" y="467" type="line"/>
      <point x="182" y="467" type="line"/>
      <point x="147" y="437"/>
      <point x="81" y="404"/>
      <point x="24" y="393" type="curve"/>
      <point x="33" y="335" type="line"/>
      <point x="53" y="336"/>
      <point x="110" y="345"/>
      <point x="127" y="350" type="curve"/>
      <point x="127" y="59" type="line"/>
      <point x="40" y="48" type="line"/>
    </contour>
  </outline>
</glyph>
<glyph name="two" format="1">
  <advance width="447"/>
  <unicode hex="0032"/>
  <outline>
    <contour>
      <point x="39" y="0" type="line"/>
      <point x="403" y="0" type="line"/>
      <point x="423" y="129" type="line"/>
      <point x="372" y="139" type="line"/>
      <point x="343" y="84" type="line"/>
      <point x="140" y="66" type="line"/>
      <point x="267" y="139"/>
      <point x="377" y="233"/>
      <point x="377" y="333" type="curve" smooth="yes"/>
      <point x="377" y="404"/>
      <point x="325" y="466"/>
      <point x="210" y="466" type="curve" smooth="yes"/>
      <point x="129" y="466"/>
      <point x="53" y="416"/>
      <point x="27" y="382" type="curve"/>
      <point x="57" y="338" type="line"/>
      <point x="79" y="356"/>
      <point x="111" y="386"/>
      <point x="168" y="386" type="curve" smooth="yes"/>
      <point x="217" y="386"/>
      <point x="249" y="357"/>
      <point x="249" y="311" type="curve" smooth="yes"/>
      <point x="249" y="217"/>
      <point x="148" y="120"/>
      <point x="22" y="44" type="curve"/>
    </contour>
  </outline>
</glyph>
<glyph name="three" format="1">
  <advance width="417"/>
  <unicode hex="0033"/>
  <outline>
    <contour>
      <point x="31" y="-45" type="curve"/>
      <point x="31" y="-105" type="line"/>
      <point x="53" y="-111"/>
      <point x="95" y="-119"/>
      <point x="127" y="-119" type="curve" smooth="yes"/>
      <point x="292" y="-119"/>
      <point x="391" y="-37"/>
      <point x="391" y="69" type="curve" smooth="yes"/>
      <point x="390" y="150"/>
      <point x="319" y="199"/>
      <point x="220" y="190" type="curve"/>
      <point x="296" y="216"/>
      <point x="362" y="270"/>
      <point x="362" y="346" type="curve" smooth="yes"/>
      <point x="362" y="432"/>
      <point x="292" y="467"/>
      <point x="201" y="467" type="curve" smooth="yes"/>
      <point x="127" y="467"/>
      <point x="52" y="429"/>
      <point x="28" y="405" type="curve"/>
      <point x="56" y="356" type="line"/>
      <point x="79" y="373"/>
      <point x="116" y="391"/>
      <point x="164" y="391" type="curve" smooth="yes"/>
      <point x="202" y="391"/>
      <point x="238" y="376"/>
      <point x="238" y="327" type="curve" smooth="yes"/>
      <point x="238" y="286"/>
      <point x="210" y="245"/>
      <point x="154" y="219" type="curve" smooth="yes"/>
      <point x="136" y="213"/>
      <point x="116" y="205"/>
      <point x="94" y="202" type="curve"/>
      <point x="111" y="152" type="line"/>
      <point x="155" y="162" type="line"/>
      <point x="225" y="158"/>
      <point x="259" y="124"/>
      <point x="259" y="63" type="curve" smooth="yes"/>
      <point x="259" y="-4"/>
      <point x="199" y="-55"/>
      <point x="101" y="-55" type="curve" smooth="yes"/>
      <point x="75" y="-55"/>
      <point x="51" y="-51"/>
    </contour>
  </outline>
</glyph>
<glyph name="four" format="1">
  <advance width="493"/>
  <unicode hex="0034"/>
  <outline>
    <contour>
      <point x="44" y="0" type="line"/>
      <point x="288" y="0" type="line"/>
      <point x="288" y="-119" type="line"/>
      <point x="390" y="-119" type="line"/>
      <point x="390" y="0" type="line"/>
      <point x="474" y="0" type="line"/>
      <point x="474" y="84" type="line"/>
      <point x="390" y="78" type="line"/>
      <point x="390" y="207" type="line"/>
      <point x="296" y="200" type="line"/>
      <point x="288" y="71" type="line"/>
      <point x="124" y="61" type="line"/>
      <point x="157" y="110" type="line"/>
      <point x="346" y="455" type="line"/>
      <point x="253" y="505" type="line"/>
      <point x="226" y="505" type="line"/>
      <point x="177" y="389"/>
      <point x="73" y="147"/>
      <point x="16" y="43" type="curve"/>
    </contour>
  </outline>
</glyph>
<glyph name="five" format="1">
  <advance width="457"/>
  <unicode hex="0035"/>
  <outline>
    <contour>
      <point x="64" y="-61" type="curve"/>
      <point x="64" y="-114" type="line"/>
      <point x="81" y="-118"/>
      <point x="99" y="-119"/>
      <point x="116" y="-119" type="curve" smooth="yes"/>
      <point x="287" y="-119"/>
      <point x="414" y="-21"/>
      <point x="414" y="114" type="curve" smooth="yes"/>
      <point x="414" y="209"/>
      <point x="359" y="259"/>
      <point x="259" y="259" type="curve" smooth="yes"/>
      <point x="209" y="259"/>
      <point x="168" y="241"/>
      <point x="144" y="230" type="curve"/>
      <point x="171" y="370" type="line"/>
      <point x="373" y="370" type="line"/>
      <point x="390" y="473" type="line"/>
      <point x="339" y="473" type="line"/>
      <point x="330" y="459" type="line"/>
      <point x="95" y="459" type="line"/>
      <point x="61" y="185" type="line"/>
      <point x="89" y="166" type="line"/>
      <point x="113" y="177"/>
      <point x="152" y="187"/>
      <point x="184" y="187" type="curve" smooth="yes"/>
      <point x="244" y="187"/>
      <point x="284" y="167"/>
      <point x="284" y="93" type="curve" smooth="yes"/>
      <point x="284" y="5"/>
      <point x="204" y="-63"/>
      <point x="106" y="-63" type="curve" smooth="yes"/>
      <point x="93" y="-63"/>
      <point x="77" y="-61"/>
    </contour>
  </outline>
</glyph>
<glyph name="six" format="1">
  <advance width="496"/>
  <unicode hex="0036"/>
  <outline>
    <contour>
      <point x="250" y="-8" type="curve" smooth="yes"/>
      <point x="382" y="-8"/>
      <point x="452" y="92"/>
      <point x="452" y="200" type="curve" smooth="yes"/>
      <point x="452" y="304"/>
      <point x="392" y="368"/>
      <point x="296" y="368" type="curve" smooth="yes"/>
      <point x="245" y="368"/>
      <point x="210" y="351"/>
      <point x="188" y="333" type="curve"/>
      <point x="216" y="426"/>
      <point x="280" y="507"/>
      <point x="386" y="539" type="curve"/>
      <point x="362" y="582" type="line"/>
      <point x="220" y="566"/>
      <point x="49" y="425"/>
      <point x="49" y="224" type="curve" smooth="yes"/>
      <point x="49" y="93"/>
      <point x="120" y="-8"/>
    </contour>
    <contour>
      <point x="255" y="307" type="curve" smooth="yes"/>
      <point x="299" y="307"/>
      <point x="332" y="271"/>
      <point x="332" y="176" type="curve" smooth="yes"/>
      <point x="332" y="107"/>
      <point x="307" y="41"/>
      <point x="255" y="41" type="curve" smooth="yes"/>
      <point x="192" y="41"/>
      <point x="170" y="119"/>
      <point x="173" y="229" type="curve"/>
      <point x="173" y="245"/>
      <point x="174" y="261"/>
      <point x="176" y="277" type="curve"/>
      <point x="190" y="291"/>
      <point x="220" y="307"/>
    </contour>
  </outline>
</glyph>
<glyph name="seven" format="1">
  <advance width="430"/>
  <unicode hex="0037"/>
  <outline>
    <contour>
      <point x="96" y="-100" type="curve"/>
      <point x="221" y="-135" type="line"/>
      <point x="419" y="431" type="line"/>
      <point x="399" y="459" type="line"/>
      <point x="40" y="459" type="line"/>
      <point x="21" y="291" type="line"/>
      <point x="90" y="278" type="line"/>
      <point x="132" y="384" type="line"/>
      <point x="311" y="387" type="line"/>
      <point x="256" y="253"/>
      <point x="176" y="59"/>
    </contour>
  </outline>
</glyph>
<glyph name="eight" format="1">
  <advance width="480"/>
  <unicode hex="0038"/>
  <outline>
    <contour>
      <point x="40" y="130" type="curve" smooth="yes"/>
      <point x="40" y="30"/>
      <point x="142" y="-8"/>
      <point x="238" y="-8" type="curve" smooth="yes"/>
      <point x="353" y="-8"/>
      <point x="444" y="49"/>
      <point x="444" y="141" type="curve" smooth="yes"/>
      <point x="444" y="222"/>
      <point x="384" y="268"/>
      <point x="319" y="305" type="curve"/>
      <point x="379" y="337"/>
      <point x="413" y="386"/>
      <point x="413" y="436" type="curve" smooth="yes"/>
      <point x="413" y="508"/>
      <point x="347" y="559"/>
      <point x="241" y="559" type="curve" smooth="yes"/>
      <point x="147" y="559"/>
      <point x="62" y="507"/>
      <point x="62" y="416" type="curve" smooth="yes"/>
      <point x="62" y="344"/>
      <point x="101" y="301"/>
      <point x="149" y="269" type="curve"/>
      <point x="76" y="238"/>
      <point x="40" y="186"/>
    </contour>
    <contour>
      <point x="325" y="120" type="curve" smooth="yes"/>
      <point x="325" y="71"/>
      <point x="287" y="41"/>
      <point x="240" y="41" type="curve" smooth="yes"/>
      <point x="173" y="41"/>
      <point x="139" y="88"/>
      <point x="139" y="151" type="curve" smooth="yes"/>
      <point x="139" y="192"/>
      <point x="159" y="224"/>
      <point x="187" y="247" type="curve"/>
      <point x="255" y="209"/>
      <point x="325" y="181"/>
    </contour>
    <contour>
      <point x="164" y="444" type="curve" smooth="yes"/>
      <point x="164" y="487"/>
      <point x="197" y="511"/>
      <point x="241" y="511" type="curve" smooth="yes"/>
      <point x="292" y="511"/>
      <point x="323" y="479"/>
      <point x="323" y="416" type="curve" smooth="yes"/>
      <point x="323" y="386"/>
      <point x="306" y="352"/>
      <point x="277" y="328" type="curve"/>
      <point x="217" y="361"/>
      <point x="164" y="392"/>
    </contour>
  </outline>
</glyph>
<glyph name="nine" format="1">
  <advance width="491"/>
  <unicode hex="0039"/>
  <outline>
    <contour>
      <point x="246" y="466" type="curve" smooth="yes"/>
      <point x="114" y="466"/>
      <point x="41" y="373"/>
      <point x="41" y="267" type="curve" smooth="yes"/>
      <point x="41" y="160"/>
      <point x="110" y="91"/>
      <point x="206" y="91" type="curve" smooth="yes"/>
      <point x="251" y="91"/>
      <point x="284" y="106"/>
      <point x="306" y="123" type="curve"/>
      <point x="281" y="30"/>
      <point x="224" y="-50"/>
      <point x="121" y="-81" type="curve"/>
      <point x="144" y="-125" type="line"/>
      <point x="287" y="-108"/>
      <point x="445" y="33"/>
      <point x="445" y="236" type="curve" smooth="yes"/>
      <point x="445" y="368"/>
      <point x="380" y="466"/>
    </contour>
    <contour>
      <point x="241" y="153" type="curve" smooth="yes"/>
      <point x="196" y="153"/>
      <point x="161" y="193"/>
      <point x="161" y="290" type="curve" smooth="yes"/>
      <point x="161" y="350"/>
      <point x="186" y="417"/>
      <point x="239" y="417" type="curve" smooth="yes"/>
      <point x="303" y="417"/>
      <point x="324" y="339"/>
      <point x="321" y="236" type="curve" smooth="yes"/>
      <point x="321" y="217"/>
      <point x="320" y="198"/>
      <point x="317" y="179" type="curve"/>
      <point x="303" y="166"/>
      <point x="275" y="153"/>
    </contour>
  </outline>
</glyph>
<glyph name="colon" format="1">
  <advance width="253"/>
  <unicode hex="003A"/>
  <outline>
    <contour>
      <point x="57" y="359" type="curve" smooth="yes"/>
      <point x="57" y="321"/>
      <point x="86" y="295"/>
      <point x="126" y="295" type="curve" smooth="yes"/>
      <point x="164" y="295"/>
      <point x="195" y="319"/>
      <point x="195" y="357" type="curve" smooth="yes"/>
      <point x="195" y="393"/>
      <point x="169" y="422"/>
      <point x="126" y="422" type="curve" smooth="yes"/>
      <point x="86" y="422"/>
      <point x="57" y="396"/>
    </contour>
    <contour>
      <point x="57" y="58" type="curve" smooth="yes"/>
      <point x="57" y="20"/>
      <point x="86" y="-6"/>
      <point x="126" y="-6" type="curve" smooth="yes"/>
      <point x="164" y="-6"/>
      <point x="195" y="18"/>
      <point x="195" y="56" type="curve" smooth="yes"/>
      <point x="195" y="92"/>
      <point x="169" y="121"/>
      <point x="126" y="121" type="curve" smooth="yes"/>
      <point x="86" y="121"/>
      <point x="57" y="95"/>
    </contour>
  </outline>
</glyph>
<glyph name="semicolon" format="1">
  <advance width="253"/>
  <unicode hex="003B"/>
  <outline>
    <contour>
      <point x="129" y="125" type="curve" smooth="yes"/>
      <point x="86" y="125"/>
      <point x="61" y="102"/>
      <point x="61" y="62" type="curve" smooth="yes"/>
      <point x="61" y="10"/>
      <point x="112" y="10"/>
      <point x="112" y="-38" type="curve" smooth="yes"/>
      <point x="112" y="-84"/>
      <point x="89" y="-116"/>
      <point x="64" y="-135" type="curve"/>
      <point x="64" y="-147" type="line"/>
      <point x="97" y="-172" type="line"/>
      <point x="99" y="-172" type="line"/>
      <point x="140" y="-152"/>
      <point x="199" y="-70"/>
      <point x="199" y="24" type="curve" smooth="yes"/>
      <point x="199" y="87"/>
      <point x="171" y="125"/>
    </contour>
    <contour>
      <point x="57" y="359" type="curve" smooth="yes"/>
      <point x="57" y="321"/>
      <point x="86" y="295"/>
      <point x="126" y="295" type="curve" smooth="yes"/>
      <point x="164" y="295"/>
      <point x="195" y="319"/>
      <point x="195" y="357" type="curve" smooth="yes"/>
      <point x="195" y="393"/>
      <point x="169" y="422"/>
      <point x="126" y="422" type="curve" smooth="yes"/>
      <point x="86" y="422"/>
      <point x="57" y="396"/>
    </contour>
  </outline>
</glyph>
<glyph name="less" format="1">
  <advance width="496"/>
  <unicode hex="003C"/>
  <outline>
    <contour>
      <point x="61" y="199" type="line"/>
      <point x="411" y="20" type="line"/>
      <point x="411" y="106" type="line"/>
      <point x="168" y="223" type="line"/>
      <point x="411" y="339" type="line"/>
      <point x="411" y="426" type="line"/>
      <point x="61" y="247" type="line"/>
    </contour>
  </outline>
</glyph>
<glyph name="equal" format="1">
  <advance width="484"/>
  <unicode hex="003D"/>
  <outline>
    <contour>
      <point x="73" y="87" type="line"/>
      <point x="412" y="87" type="line"/>
      <point x="412" y="161" type="line"/>
      <point x="73" y="161" type="line"/>
    </contour>
    <contour>
      <point x="73" y="285" type="line"/>
      <point x="412" y="285" type="line"/>
      <point x="412" y="358" type="line"/>
      <point x="73" y="358" type="line"/>
    </contour>
  </outline>
</glyph>
<glyph name="greater" format="1">
  <advance width="496"/>
  <unicode hex="003E"/>
  <outline>
    <contour>
      <point x="435" y="199" type="line"/>
      <point x="85" y="20" type="line"/>
      <point x="85" y="106" type="line"/>
      <point x="328" y="223" type="line"/>
      <point x="85" y="339" type="line"/>
      <point x="85" y="426" type="line"/>
      <point x="435" y="247" type="line"/>
    </contour>
  </outline>
</glyph>
<glyph name="question" format="1">
  <advance width="436"/>
  <unicode hex="003F"/>
  <outline>
    <contour>
      <point x="151" y="163" type="curve"/>
      <point x="224" y="174" type="line"/>
      <point x="219" y="195"/>
      <point x="217" y="213"/>
      <point x="217" y="219" type="curve" smooth="yes"/>
      <point x="217" y="277"/>
      <point x="391" y="268"/>
      <point x="391" y="376" type="curve" smooth="yes"/>
      <point x="391" y="436"/>
      <point x="338" y="553"/>
      <point x="207" y="553" type="curve" smooth="yes"/>
      <point x="165" y="553"/>
      <point x="111" y="541"/>
      <point x="75" y="528" type="curve"/>
      <point x="117" y="412" type="line"/>
      <point x="158" y="433"/>
      <point x="213" y="448"/>
      <point x="244" y="448" type="curve" smooth="yes"/>
      <point x="280" y="448"/>
      <point x="302" y="428"/>
      <point x="302" y="409" type="curve" smooth="yes"/>
      <point x="302" y="354"/>
      <point x="118" y="365"/>
      <point x="118" y="271" type="curve" smooth="yes"/>
      <point x="118" y="244"/>
      <point x="133" y="196"/>
    </contour>
    <contour>
      <point x="130" y="58" type="curve" smooth="yes"/>
      <point x="130" y="20"/>
      <point x="159" y="-6"/>
      <point x="199" y="-6" type="curve" smooth="yes"/>
      <point x="237" y="-6"/>
      <point x="268" y="18"/>
      <point x="268" y="56" type="curve" smooth="yes"/>
      <point x="268" y="92"/>
      <point x="242" y="121"/>
      <point x="199" y="121" type="curve" smooth="yes"/>
      <point x="159" y="121"/>
      <point x="130" y="95"/>
    </contour>
  </outline>
</glyph>
<glyph name="at" format="1">
  <advance width="802"/>
  <unicode hex="0040"/>
  <outline>
    <contour>
      <point x="56" y="124" type="curve" smooth="yes"/>
      <point x="56" y="-70"/>
      <point x="162" y="-188"/>
      <point x="342" y="-188" type="curve" smooth="yes"/>
      <point x="415" y="-188"/>
      <point x="484" y="-168"/>
      <point x="524" y="-135" type="curve"/>
      <point x="507" y="-93" type="line"/>
      <point x="479" y="-112"/>
      <point x="416" y="-126"/>
      <point x="360" y="-126" type="curve" smooth="yes"/>
      <point x="238" y="-126"/>
      <point x="130" y="-41"/>
      <point x="130" y="144" type="curve" smooth="yes"/>
      <point x="130" y="362"/>
      <point x="264" y="501"/>
      <point x="426" y="501" type="curve" smooth="yes"/>
      <point x="544" y="501"/>
      <point x="667" y="444"/>
      <point x="667" y="267" type="curve" smooth="yes"/>
      <point x="667" y="143"/>
      <point x="603" y="59"/>
      <point x="552" y="59" type="curve" smooth="yes"/>
      <point x="545" y="59"/>
      <point x="539" y="86"/>
      <point x="541" y="124" type="curve"/>
      <point x="546" y="196"/>
      <point x="570" y="309"/>
      <point x="582" y="366" type="curve"/>
      <point x="561" y="371"/>
      <point x="544" y="381"/>
      <point x="527" y="386" type="curve"/>
      <point x="516" y="387"/>
      <point x="504" y="377"/>
      <point x="501" y="368" type="curve"/>
      <point x="473" y="382"/>
      <point x="441" y="387"/>
      <point x="414" y="387" type="curve" smooth="yes"/>
      <point x="291" y="387"/>
      <point x="215" y="253"/>
      <point x="215" y="134" type="curve" smooth="yes"/>
      <point x="215" y="37"/>
      <point x="271" y="-21"/>
      <point x="322" y="-21" type="curve" smooth="yes"/>
      <point x="388" y="-21"/>
      <point x="440" y="68"/>
      <point x="473" y="156" type="curve"/>
      <point x="463" y="104"/>
      <point x="460" y="70"/>
      <point x="461" y="50" type="curve" smooth="yes"/>
      <point x="463" y="8"/>
      <point x="485" y="-14"/>
      <point x="510" y="-14" type="curve" smooth="yes"/>
      <point x="574" y="-14"/>
      <point x="735" y="89"/>
      <point x="735" y="292" type="curve" smooth="yes"/>
      <point x="735" y="468"/>
      <point x="624" y="563"/>
      <point x="461" y="563" type="curve" smooth="yes"/>
      <point x="249" y="563"/>
      <point x="56" y="377"/>
    </contour>
    <contour>
      <point x="306" y="163" type="curve" smooth="yes"/>
      <point x="306" y="245"/>
      <point x="336" y="327"/>
      <point x="395" y="327" type="curve" smooth="yes"/>
      <point x="413" y="327"/>
      <point x="460" y="309"/>
      <point x="473" y="295" type="curve"/>
      <point x="470" y="276"/>
      <point x="461" y="244"/>
      <point x="453" y="220" type="curve"/>
      <point x="428" y="147"/>
      <point x="379" y="69"/>
      <point x="347" y="69" type="curve" smooth="yes"/>
      <point x="317" y="69"/>
      <point x="306" y="130"/>
    </contour>
  </outline>
</glyph>
<glyph name="A" format="1">
  <advance width="522"/>
  <unicode hex="0041"/>
  <outline>
    <contour>
      <point x="-15" y="0" type="line"/>
      <point x="181" y="0" type="line"/>
      <point x="181" y="48" type="line"/>
      <point x="123" y="56" type="line"/>
      <point x="148" y="147" type="line"/>
      <point x="330" y="147" type="line"/>
      <point x="356" y="58" type="line"/>
      <point x="304" y="48" type="line"/>
      <point x="304" y="0" type="line"/>
      <point x="533" y="0" type="line"/>
      <point x="533" y="48" type="line"/>
      <point x="491" y="58" type="line"/>
      <point x="323" y="553" type="line"/>
      <point x="196" y="553" type="line"/>
      <point x="28" y="58" type="line"/>
      <point x="-16" y="48" type="line"/>
    </contour>
    <contour>
      <point x="226" y="427" type="line"/>
      <point x="237" y="478" type="line"/>
      <point x="248" y="427" type="line"/>
      <point x="314" y="203" type="line"/>
      <point x="164" y="203" type="line"/>
    </contour>
  </outline>
</glyph>
<glyph name="B" format="1">
  <advance width="526"/>
  <unicode hex="0042"/>
  <outline>
    <contour>
      <point x="28" y="0" type="line"/>
      <point x="144" y="0" type="line" smooth="yes"/>
      <point x="195" y="0"/>
      <point x="216" y="-4"/>
      <point x="267" y="-4" type="curve" smooth="yes"/>
      <point x="451" y="-4"/>
      <point x="504" y="73"/>
      <point x="504" y="166" type="curve" smooth="yes"/>
      <point x="504" y="248"/>
      <point x="441" y="296"/>
      <point x="348" y="295" type="curve"/>
      <point x="416" y="306"/>
      <point x="466" y="355"/>
      <point x="466" y="430" type="curve" smooth="yes"/>
      <point x="466" y="508"/>
      <point x="419" y="556"/>
      <point x="259" y="556" type="curve" smooth="yes"/>
      <point x="221" y="556"/>
      <point x="188" y="550"/>
      <point x="142" y="550" type="curve" smooth="yes"/>
      <point x="29" y="550" type="line"/>
      <point x="29" y="499" type="line"/>
      <point x="84" y="490" type="line"/>
      <point x="84" y="58" type="line"/>
      <point x="28" y="48" type="line"/>
    </contour>
    <contour>
      <point x="205" y="256" type="line"/>
      <point x="219" y="257"/>
      <point x="247" y="257"/>
      <point x="270" y="257" type="curve" smooth="yes"/>
      <point x="339" y="257"/>
      <point x="371" y="230"/>
      <point x="371" y="156" type="curve" smooth="yes"/>
      <point x="371" y="88"/>
      <point x="341" y="46"/>
      <point x="264" y="46" type="curve" smooth="yes"/>
      <point x="242" y="46"/>
      <point x="215" y="47"/>
      <point x="205" y="53" type="curve"/>
    </contour>
    <contour>
      <point x="205" y="502" type="line"/>
      <point x="214" y="504"/>
      <point x="240" y="506"/>
      <point x="256" y="506" type="curve" smooth="yes"/>
      <point x="321" y="506"/>
      <point x="345" y="478"/>
      <point x="345" y="416" type="curve" smooth="yes"/>
      <point x="345" y="350"/>
      <point x="322" y="313"/>
      <point x="263" y="313" type="curve" smooth="yes"/>
      <point x="246" y="313"/>
      <point x="219" y="313"/>
      <point x="205" y="314" type="curve"/>
    </contour>
  </outline>
</glyph>
<glyph name="D" format="1">
  <advance width="567"/>
  <unicode hex="0044"/>
  <outline>
    <contour>
      <point x="28" y="0" type="line"/>
      <point x="146" y="0" type="line" smooth="yes"/>
      <point x="175" y="0"/>
      <point x="224" y="-4"/>
      <point x="263" y="-6" type="curve" smooth="yes"/>
      <point x="436" y="-10"/>
      <point x="544" y="118"/>
      <point x="544" y="294" type="curve" smooth="yes"/>
      <point x="544" y="459"/>
      <point x="457" y="556"/>
      <point x="272" y="556" type="curve" smooth="yes"/>
      <point x="225" y="556"/>
      <point x="189" y="550"/>
      <point x="143" y="550" type="curve" smooth="yes"/>
      <point x="30" y="550" type="line"/>
      <point x="30" y="499" type="line"/>
      <point x="84" y="490" type="line"/>
      <point x="84" y="58" type="line"/>
      <point x="28" y="48" type="line"/>
    </contour>
    <contour>
      <point x="205" y="499" type="line"/>
      <point x="213" y="500"/>
      <point x="229" y="504"/>
      <point x="255" y="504" type="curve" smooth="yes"/>
      <point x="366" y="504"/>
      <point x="411" y="415"/>
      <point x="411" y="276" type="curve" smooth="yes"/>
      <point x="411" y="118"/>
      <point x="355" y="49"/>
      <point x="267" y="47" type="curve" smooth="yes"/>
      <point x="244" y="47"/>
      <point x="222" y="48"/>
      <point x="205" y="55" type="curve"/>
    </contour>
  </outline>
</glyph>
<glyph name="E" format="1">
  <advance width="487"/>
  <unicode hex="0045"/>
  <outline>
    <contour>
      <point x="28" y="0" type="line"/>
      <point x="458" y="0" type="line"/>
      <point x="477" y="138" type="line"/>
      <point x="415" y="156" type="line"/>
      <point x="370" y="62" type="line"/>
      <point x="207" y="53" type="line"/>
      <point x="207" y="253" type="line"/>
      <point x="299" y="250" type="line"/>
      <point x="312" y="187" type="line"/>
      <point x="365" y="187" type="line"/>
      <point x="365" y="371" type="line"/>
      <point x="312" y="371" type="line"/>
      <point x="299" y="311" type="line"/>
      <point x="207" y="309" type="line"/>
      <point x="207" y="501" type="line"/>
      <point x="353" y="494" type="line"/>
      <point x="379" y="423" type="line"/>
      <point x="437" y="423" type="line"/>
      <point x="427" y="550" type="line"/>
      <point x="27" y="550" type="line"/>
      <point x="27" y="499" type="line"/>
      <point x="84" y="489" type="line"/>
      <point x="84" y="58" type="line"/>
      <point x="28" y="48" type="line"/>
    </contour>
  </outline>
</glyph>
<glyph name="F" format="1">
  <advance width="462"/>
  <unicode hex="0046"/>
  <outline>
    <contour>
      <point x="28" y="0" type="line"/>
      <point x="316" y="0" type="line"/>
      <point x="316" y="48" type="line"/>
      <point x="207" y="58" type="line"/>
      <point x="207" y="240" type="line"/>
      <point x="304" y="237" type="line"/>
      <point x="321" y="171" type="line"/>
      <point x="374" y="171" type="line"/>
      <point x="374" y="364" type="line"/>
      <point x="320" y="364" type="line"/>
      <point x="304" y="299" type="line"/>
      <point x="207" y="298" type="line"/>
      <point x="207" y="501" type="line"/>
      <point x="353" y="493" type="line"/>
      <point x="381" y="414" type="line"/>
      <point x="447" y="414" type="line"/>
      <point x="439" y="550" type="line"/>
      <point x="27" y="550" type="line"/>
      <point x="27" y="499" type="line"/>
      <point x="84" y="490" type="line"/>
      <point x="84" y="58" type="line"/>
      <point x="28" y="48" type="line"/>
    </contour>
  </outline>
</glyph>
<glyph name="G" format="1">
  <advance width="554"/>
  <unicode hex="0047"/>
  <outline>
    <contour>
      <point x="290" y="-8" type="curve" smooth="yes"/>
      <point x="388" y="-8"/>
      <point x="463" y="28"/>
      <point x="501" y="30" type="curve"/>
      <point x="501" y="222" type="line"/>
      <point x="539" y="229" type="line"/>
      <point x="539" y="283" type="line"/>
      <point x="312" y="283" type="line"/>
      <point x="312" y="229" type="line"/>
      <point x="382" y="221" type="line"/>
      <point x="382" y="68" type="line"/>
      <point x="367" y="52"/>
      <point x="334" y="44"/>
      <point x="301" y="44" type="curve" smooth="yes"/>
      <point x="204" y="44"/>
      <point x="165" y="148"/>
      <point x="165" y="283" type="curve" smooth="yes"/>
      <point x="165" y="431"/>
      <point x="219" y="507"/>
      <point x="308" y="507" type="curve" smooth="yes"/>
      <point x="356" y="507"/>
      <point x="374" y="495"/>
      <point x="381" y="488" type="curve"/>
      <point x="403" y="393" type="line"/>
      <point x="487" y="393" type="line"/>
      <point x="496" y="534" type="line"/>
      <point x="470" y="540"/>
      <point x="390" y="557"/>
      <point x="311" y="557" type="curve" smooth="yes"/>
      <point x="139" y="557"/>
      <point x="24" y="453"/>
      <point x="24" y="270" type="curve" smooth="yes"/>
      <point x="24" y="112"/>
      <point x="119" y="-8"/>
    </contour>
  </outline>
</glyph>
<glyph name="H" format="1">
  <advance width="621"/>
  <unicode hex="0048"/>
  <outline>
    <contour>
      <point x="30" y="0" type="line"/>
      <point x="267" y="0" type="line"/>
      <point x="267" y="48" type="line"/>
      <point x="206" y="58" type="line"/>
      <point x="206" y="250" type="line"/>
      <point x="414" y="250" type="line"/>
      <point x="414" y="58" type="line"/>
      <point x="359" y="48" type="line"/>
      <point x="359" y="0" type="line"/>
      <point x="591" y="0" type="line"/>
      <point x="591" y="48" type="line"/>
      <point x="536" y="58" type="line"/>
      <point x="536" y="490" type="line"/>
      <point x="591" y="499" type="line"/>
      <point x="591" y="550" type="line"/>
      <point x="358" y="550" type="line"/>
      <point x="358" y="499" type="line"/>
      <point x="414" y="489" type="line"/>
      <point x="414" y="311" type="line"/>
      <point x="206" y="311" type="line"/>
      <point x="206" y="490" type="line"/>
      <point x="267" y="499" type="line"/>
      <point x="267" y="550" type="line"/>
      <point x="31" y="550" type="line"/>
      <point x="31" y="499" type="line"/>
      <point x="84" y="490" type="line"/>
      <point x="84" y="58" type="line"/>
      <point x="30" y="48" type="line"/>
    </contour>
  </outline>
</glyph>
<glyph name="I" format="1">
  <advance width="307"/>
  <unicode hex="0049"/>
  <outline>
    <contour>
      <point x="33" y="0" type="line"/>
      <point x="277" y="0" type="line"/>
      <point x="277" y="47" type="line"/>
      <point x="216" y="58" type="line"/>
      <point x="216" y="490" type="line"/>
      <point x="276" y="499" type="line"/>
      <point x="276" y="550" type="line"/>
      <point x="32" y="550" type="line"/>
      <point x="32" y="499" type="line"/>
      <point x="93" y="489" type="line"/>
      <point x="93" y="58" type="line"/>
      <point x="33" y="48" type="line"/>
    </contour>
  </outline>
</glyph>
<glyph name="J" format="1">
  <advance width="292"/>
  <unicode hex="004A"/>
  <outline>
    <contour>
      <point x="13" y="-142" type="line"/>
      <point x="113" y="-124"/>
      <point x="183" y="-67"/>
      <point x="204" y="15" type="curve"/>
      <point x="213" y="52"/>
      <point x="215" y="119"/>
      <point x="215" y="206" type="curve" smooth="yes"/>
      <point x="215" y="490" type="line"/>
      <point x="273" y="499" type="line"/>
      <point x="273" y="550" type="line"/>
      <point x="31" y="550" type="line"/>
      <point x="31" y="499" type="line"/>
      <point x="93" y="489" type="line"/>
      <point x="93" y="150" type="line" smooth="yes"/>
      <point x="93" y="68"/>
      <point x="87" y="32"/>
      <point x="78" y="0" type="curve"/>
      <point x="60" y="-54"/>
      <point x="18" y="-89"/>
      <point x="-13" y="-99" type="curve"/>
    </contour>
  </outline>
</glyph>
<glyph name="K" format="1">
  <advance width="557"/>
  <unicode hex="004B"/>
  <outline>
    <contour>
      <point x="560" y="0" type="line"/>
      <point x="560" y="48" type="line"/>
      <point x="527" y="58" type="line"/>
      <point x="499" y="71"/>
      <point x="406" y="276"/>
      <point x="338" y="336" type="curve"/>
      <point x="473" y="490" type="line"/>
      <point x="536" y="500" type="line"/>
      <point x="536" y="550" type="line"/>
      <point x="328" y="550" type="line"/>
      <point x="328" y="499" type="line"/>
      <point x="387" y="490" type="line"/>
      <point x="207" y="258" type="line"/>
      <point x="207" y="489" type="line"/>
      <point x="260" y="499" type="line"/>
      <point x="260" y="550" type="line"/>
      <point x="27" y="550" type="line"/>
      <point x="27" y="499" type="line"/>
      <point x="84" y="490" type="line"/>
      <point x="84" y="58" type="line"/>
      <point x="27" y="48" type="line"/>
      <point x="27" y="0" type="line"/>
      <point x="270" y="0" type="line"/>
      <point x="270" y="48" type="line"/>
      <point x="207" y="58" type="line"/>
      <point x="207" y="181" type="line"/>
      <point x="267" y="253" type="line"/>
      <point x="320" y="183"/>
      <point x="385" y="0"/>
      <point x="415" y="0" type="curve" smooth="yes"/>
    </contour>
  </outline>
</glyph>
<glyph name="L" format="1">
  <advance width="474"/>
  <unicode hex="004C"/>
  <outline>
    <contour>
      <point x="28" y="0" type="line"/>
      <point x="444" y="0" type="line"/>
      <point x="465" y="196" type="line"/>
      <point x="398" y="206" type="line"/>
      <point x="350" y="66" type="line"/>
      <point x="207" y="59" type="line"/>
      <point x="207" y="489" type="line"/>
      <point x="276" y="499" type="line"/>
      <point x="276" y="550" type="line"/>
      <point x="29" y="550" type="line"/>
      <point x="29" y="499" type="line"/>
      <point x="84" y="489" type="line"/>
      <point x="84" y="58" type="line"/>
      <point x="28" y="48" type="line"/>
    </contour>
  </outline>
</glyph>
<glyph name="M" format="1">
  <advance width="762"/>
  <unicode hex="004D"/>
  <outline>
    <contour>
      <point x="-1" y="0" type="line"/>
      <point x="211" y="0" type="line"/>
      <point x="211" y="48" type="line"/>
      <point x="138" y="58" type="line"/>
      <point x="161" y="376" type="line"/>
      <point x="170" y="510" type="line"/>
      <point x="201" y="379" type="line"/>
      <point x="319" y="21" type="line"/>
      <point x="407" y="21" type="line"/>
      <point x="507" y="406" type="line"/>
      <point x="528" y="509" type="line"/>
      <point x="542" y="376" type="line"/>
      <point x="579" y="58" type="line"/>
      <point x="519" y="48" type="line"/>
      <point x="519" y="0" type="line"/>
      <point x="766" y="0" type="line"/>
      <point x="766" y="48" type="line"/>
      <point x="704" y="58" type="line"/>
      <point x="640" y="489" type="line"/>
      <point x="719" y="499" type="line"/>
      <point x="719" y="550" type="line"/>
      <point x="477" y="550" type="line"/>
      <point x="398" y="230" type="line"/>
      <point x="386" y="160" type="line"/>
      <point x="372" y="230" type="line"/>
      <point x="278" y="550" type="line"/>
      <point x="39" y="550" type="line"/>
      <point x="39" y="499" type="line"/>
      <point x="111" y="490" type="line"/>
      <point x="61" y="58" type="line"/>
      <point x="-1" y="48" type="line"/>
    </contour>
  </outline>
</glyph>
<glyph name="N" format="1">
  <advance width="596"/>
  <unicode hex="004E"/>
  <outline>
    <contour>
      <point x="27" y="0" type="line"/>
      <point x="231" y="0" type="line"/>
      <point x="231" y="48" type="line"/>
      <point x="155" y="58" type="line"/>
      <point x="155" y="438" type="line"/>
      <point x="204" y="339" type="line"/>
      <point x="426" y="0" type="line"/>
      <point x="526" y="0" type="line"/>
      <point x="526" y="490" type="line"/>
      <point x="584" y="499" type="line"/>
      <point x="584" y="550" type="line"/>
      <point x="393" y="550" type="line"/>
      <point x="393" y="499" type="line"/>
      <point x="457" y="490" type="line"/>
      <point x="457" y="147" type="line"/>
      <point x="417" y="231" type="line"/>
      <point x="207" y="550" type="line"/>
      <point x="27" y="550" type="line"/>
      <point x="27" y="499" type="line"/>
      <point x="85" y="490" type="line"/>
      <point x="85" y="58" type="line"/>
      <point x="27" y="48" type="line"/>
    </contour>
  </outline>
</glyph>
<glyph name="O" format="1">
  <advance width="540"/>
  <unicode hex="004F"/>
  <outline>
    <contour>
      <point x="267" y="-8" type="curve" smooth="yes"/>
      <point x="419" y="-7"/>
      <point x="521" y="110"/>
      <point x="521" y="284" type="curve" smooth="yes"/>
      <point x="521" y="450"/>
      <point x="447" y="557"/>
      <point x="275" y="557" type="curve" smooth="yes"/>
      <point x="122" y="558"/>
      <point x="20" y="447"/>
      <point x="20" y="273" type="curve" smooth="yes"/>
      <point x="20" y="104"/>
      <point x="95" y="-10"/>
    </contour>
    <contour>
      <point x="270" y="507" type="curve" smooth="yes"/>
      <point x="342" y="507"/>
      <point x="386" y="441"/>
      <point x="386" y="283" type="curve" smooth="yes"/>
      <point x="386" y="124"/>
      <point x="342" y="42"/>
      <point x="270" y="42" type="curve" smooth="yes"/>
      <point x="198" y="42"/>
      <point x="154" y="116"/>
      <point x="154" y="274" type="curve" smooth="yes"/>
      <point x="154" y="433"/>
      <point x="198" y="507"/>
    </contour>
  </outline>
</glyph>
<glyph name="P" format="1">
  <advance width="493"/>
  <unicode hex="0050"/>
  <outline>
    <contour>
      <point x="28" y="0" type="line"/>
      <point x="302" y="0" type="line"/>
      <point x="302" y="48" type="line"/>
      <point x="207" y="58" type="line"/>
      <point x="207" y="195" type="line"/>
      <point x="213" y="193"/>
      <point x="236" y="192"/>
      <point x="258" y="192" type="curve" smooth="yes"/>
      <point x="397" y="192"/>
      <point x="479" y="266"/>
      <point x="479" y="391" type="curve" smooth="yes"/>
      <point x="479" y="496"/>
      <point x="430" y="555"/>
      <point x="265" y="555" type="curve" smooth="yes"/>
      <point x="207" y="555"/>
      <point x="178" y="550"/>
      <point x="141" y="550" type="curve" smooth="yes"/>
      <point x="30" y="550" type="line"/>
      <point x="30" y="499" type="line"/>
      <point x="84" y="490" type="line"/>
      <point x="84" y="58" type="line"/>
      <point x="28" y="48" type="line"/>
    </contour>
    <contour>
      <point x="206" y="246" type="curve"/>
      <point x="206" y="501" type="line"/>
      <point x="218" y="502"/>
      <point x="225" y="506"/>
      <point x="253" y="506" type="curve" smooth="yes"/>
      <point x="319" y="506"/>
      <point x="353" y="471"/>
      <point x="353" y="388" type="curve" smooth="yes"/>
      <point x="353" y="276"/>
      <point x="308" y="242"/>
      <point x="256" y="242" type="curve" smooth="yes"/>
      <point x="229" y="242"/>
      <point x="216" y="244"/>
    </contour>
  </outline>
</glyph>
<glyph name="Q" format="1">
  <advance width="544"/>
  <unicode hex="0051"/>
  <outline>
    <contour>
      <point x="268" y="-8" type="curve" smooth="yes"/>
      <point x="287" y="-8"/>
      <point x="305" y="-6"/>
      <point x="322" y="-2" type="curve"/>
      <point x="404" y="-35"/>
      <point x="476" y="-141"/>
      <point x="587" y="-141" type="curve" smooth="yes"/>
      <point x="591" y="-141" type="line" smooth="yes"/>
      <point x="658" y="-141"/>
      <point x="680" y="-110"/>
      <point x="687" y="-102" type="curve"/>
      <point x="676" y="-64" type="line"/>
      <point x="669" y="-65"/>
      <point x="658" y="-67"/>
      <point x="639" y="-67" type="curve" smooth="yes"/>
      <point x="638" y="-67" type="line" smooth="yes"/>
      <point x="572" y="-67"/>
      <point x="473" y="7"/>
      <point x="392" y="24" type="curve"/>
      <point x="473" y="70"/>
      <point x="522" y="163"/>
      <point x="522" y="284" type="curve" smooth="yes"/>
      <point x="522" y="450"/>
      <point x="448" y="557"/>
      <point x="277" y="557" type="curve" smooth="yes"/>
      <point x="124" y="558"/>
      <point x="21" y="447"/>
      <point x="21" y="273" type="curve" smooth="yes"/>
      <point x="21" y="104"/>
      <point x="96" y="-10"/>
    </contour>
    <contour>
      <point x="272" y="507" type="curve" smooth="yes"/>
      <point x="344" y="507"/>
      <point x="387" y="441"/>
      <point x="387" y="283" type="curve" smooth="yes"/>
      <point x="387" y="124"/>
      <point x="344" y="42"/>
      <point x="272" y="42" type="curve" smooth="yes"/>
      <point x="199" y="42"/>
      <point x="156" y="116"/>
      <point x="156" y="274" type="curve" smooth="yes"/>
      <point x="156" y="433"/>
      <point x="200" y="507"/>
    </contour>
  </outline>
</glyph>
<glyph name="V" format="1">
  <advance width="515"/>
  <unicode hex="0056"/>
  <outline>
    <contour>
      <point x="213" y="-5" type="line"/>
      <point x="311" y="-5" type="line"/>
      <point x="481" y="490" type="line"/>
      <point x="529" y="499" type="line"/>
      <point x="529" y="550" type="line"/>
      <point x="343" y="550" type="line"/>
      <point x="343" y="499" type="line"/>
      <point x="399" y="489" type="line"/>
      <point x="298" y="164" type="line"/>
      <point x="284" y="99" type="line"/>
      <point x="266" y="164" type="line"/>
      <point x="164" y="490" type="line"/>
      <point x="226" y="499" type="line"/>
      <point x="226" y="550" type="line"/>
      <point x="-13" y="550" type="line"/>
      <point x="-13" y="499" type="line"/>
      <point x="31" y="490" type="line"/>
    </contour>
  </outline>
</glyph>
<glyph name="W" format="1">
  <advance width="758"/>
  <unicode hex="0057"/>
  <outline>
    <contour>
      <point x="181" y="-4" type="line"/>
      <point x="288" y="-4" type="line"/>
      <point x="379" y="325" type="line"/>
      <point x="476" y="-4" type="line"/>
      <point x="585" y="-4" type="line"/>
      <point x="725" y="489" type="line"/>
      <point x="772" y="499" type="line"/>
      <point x="772" y="550" type="line"/>
      <point x="590" y="550" type="line"/>
      <point x="590" y="499" type="line"/>
      <point x="654" y="489" type="line"/>
      <point x="571" y="161" type="line"/>
      <point x="559" y="84" type="line"/>
      <point x="543" y="161" type="line"/>
      <point x="453" y="489" type="line"/>
      <point x="522" y="499" type="line"/>
      <point x="522" y="550" type="line"/>
      <point x="281" y="550" type="line"/>
      <point x="281" y="499" type="line"/>
      <point x="327" y="489" type="line"/>
      <point x="348" y="425" type="line"/>
      <point x="273" y="161" type="line"/>
      <point x="260" y="89" type="line"/>
      <point x="247" y="161" type="line"/>
      <point x="157" y="489" type="line"/>
      <point x="218" y="499" type="line"/>
      <point x="218" y="550" type="line"/>
      <point x="-14" y="550" type="line"/>
      <point x="-14" y="499" type="line"/>
      <point x="30" y="489" type="line"/>
    </contour>
  </outline>
</glyph>
<glyph name="X" format="1">
  <advance width="536"/>
  <unicode hex="0058"/>
  <outline>
    <contour>
      <point x="4" y="0" type="line"/>
      <point x="209" y="0" type="line"/>
      <point x="209" y="48" type="line"/>
      <point x="142" y="58" type="line"/>
      <point x="239" y="227" type="line"/>
      <point x="343" y="58" type="line"/>
      <point x="287" y="48" type="line"/>
      <point x="287" y="0" type="line"/>
      <point x="537" y="0" type="line"/>
      <point x="537" y="48" type="line"/>
      <point x="486" y="58" type="line"/>
      <point x="327" y="294" type="line"/>
      <point x="469" y="490" type="line"/>
      <point x="527" y="499" type="line"/>
      <point x="527" y="550" type="line"/>
      <point x="333" y="550" type="line"/>
      <point x="333" y="499" type="line"/>
      <point x="394" y="490" type="line"/>
      <point x="296" y="333" type="line"/>
      <point x="203" y="489" type="line"/>
      <point x="259" y="499" type="line"/>
      <point x="259" y="550" type="line"/>
      <point x="10" y="550" type="line"/>
      <point x="10" y="499" type="line"/>
      <point x="59" y="489" type="line"/>
      <point x="207" y="267" type="line"/>
      <point x="65" y="58" type="line"/>
      <point x="4" y="48" type="line"/>
    </contour>
  </outline>
</glyph>
<glyph name="Y" format="1">
  <advance width="489"/>
  <unicode hex="0059"/>
  <outline>
    <contour>
      <point x="108" y="0" type="line"/>
      <point x="392" y="0" type="line"/>
      <point x="392" y="48" type="line"/>
      <point x="313" y="58" type="line"/>
      <point x="313" y="220" type="line"/>
      <point x="456" y="490" type="line"/>
      <point x="501" y="499" type="line"/>
      <point x="501" y="550" type="line"/>
      <point x="315" y="550" type="line"/>
      <point x="315" y="499" type="line"/>
      <point x="370" y="490" type="line"/>
      <point x="291" y="314" type="line"/>
      <point x="273" y="268" type="line"/>
      <point x="256" y="315" type="line"/>
      <point x="170" y="489" type="line"/>
      <point x="218" y="499" type="line"/>
      <point x="218" y="550" type="line"/>
      <point x="-13" y="550" type="line"/>
      <point x="-13" y="499" type="line"/>
      <point x="31" y="489" type="line"/>
      <point x="184" y="220" type="line"/>
      <point x="184" y="58" type="line"/>
      <point x="108" y="48" type="line"/>
    </contour>
  </outline>
</glyph>
<glyph name="bracketleft" format="1">
  <advance width="316"/>
  <unicode hex="005B"/>
  <outline>
    <contour>
      <point x="63" y="-18" type="line"/>
      <point x="63" y="-90"/>
      <point x="97" y="-101"/>
      <point x="156" y="-101" type="curve" smooth="yes"/>
      <point x="196" y="-101"/>
      <point x="229" y="-94"/>
      <point x="260" y="-86" type="curve"/>
      <point x="260" y="-44" type="line"/>
      <point x="166" y="-44" type="line"/>
      <point x="166" y="539" type="line"/>
      <point x="260" y="539" type="line"/>
      <point x="260" y="580" type="line"/>
      <point x="229" y="587"/>
      <point x="196" y="596"/>
      <point x="156" y="596" type="curve" smooth="yes"/>
      <point x="97" y="596"/>
      <point x="63" y="584"/>
      <point x="63" y="512" type="curve" smooth="yes"/>
    </contour>
  </outline>
</glyph>
<glyph name="backslash" format="1">
  <advance width="319"/>
  <unicode hex="005C"/>
  <outline>
    <contour>
      <point x="285" y="-131" type="line"/>
      <point x="201" y="-131" type="line"/>
      <point x="14" y="579" type="line"/>
      <point x="98" y="579" type="line"/>
    </contour>
  </outline>
</glyph>
<glyph name="bracketright" format="1">
  <advance width="316"/>
  <unicode hex="005D"/>
  <outline>
    <contour>
      <point x="253" y="-18" type="line"/>
      <point x="253" y="-90"/>
      <point x="219" y="-101"/>
      <point x="160" y="-101" type="curve" smooth="yes"/>
      <point x="120" y="-101"/>
      <point x="87" y="-94"/>
      <point x="56" y="-86" type="curve"/>
      <point x="56" y="-44" type="line"/>
      <point x="150" y="-44" type="line"/>
      <point x="150" y="539" type="line"/>
      <point x="56" y="539" type="line"/>
      <point x="56" y="580" type="line"/>
      <point x="87" y="587"/>
      <point x="120" y="596"/>
      <point x="160" y="596" type="curve" smooth="yes"/>
      <point x="219" y="596"/>
      <point x="253" y="584"/>
      <point x="253" y="512" type="curve" smooth="yes"/>
    </contour>
  </outline>
</glyph>
<glyph name="asciicircum" format="1">
  <advance width="493"/>
  <unicode hex="005E"/>
  <outline>
    <contour>
      <point x="59" y="99" type="line"/>
      <point x="157" y="99" type="line"/>
      <point x="246" y="436" type="line"/>
      <point x="336" y="99" type="line"/>
      <point x="433" y="99" type="line"/>
      <point x="287" y="554" type="line"/>
      <point x="204" y="554" type="line"/>
    </contour>
  </outline>
</glyph>
<glyph name="grave" format="1">
  <advance width="247"/>
  <unicode hex="0060"/>
  <outline>
    <contour>
      <point x="140" y="473" type="curve"/>
      <point x="141" y="473" type="line"/>
      <point x="184" y="509" type="line"/>
      <point x="56" y="664" type="line"/>
      <point x="55" y="664" type="line"/>
      <point x="-16" y="601" type="line"/>
      <point x="9" y="559"/>
      <point x="99" y="487"/>
    </contour>
  </outline>
</glyph>
<glyph name="a" format="1">
  <advance width="420"/>
  <unicode hex="0061"/>
  <outline>
    <contour>
      <point x="21" y="116" type="curve" smooth="yes"/>
      <point x="21" y="34"/>
      <point x="79" y="-8"/>
      <point x="147" y="-8" type="curve" smooth="yes"/>
      <point x="206" y="-8"/>
      <point x="247" y="22"/>
      <point x="265" y="44" type="curve"/>
      <point x="265" y="33" type="line" smooth="yes"/>
      <point x="265" y="-1"/>
      <point x="277" y="-9"/>
      <point x="313" y="-9" type="curve" smooth="yes"/>
      <point x="345" y="-9"/>
      <point x="390" y="-1"/>
      <point x="409" y="3" type="curve"/>
      <point x="409" y="49" type="line"/>
      <point x="370" y="49" type="line"/>
      <point x="370" y="270" type="line" smooth="yes"/>
      <point x="370" y="379"/>
      <point x="333" y="421"/>
      <point x="217" y="421" type="curve" smooth="yes"/>
      <point x="133" y="421"/>
      <point x="56" y="379"/>
      <point x="37" y="363" type="curve"/>
      <point x="61" y="314" type="line"/>
      <point x="90" y="327"/>
      <point x="132" y="344"/>
      <point x="187" y="344" type="curve" smooth="yes"/>
      <point x="248" y="344"/>
      <point x="261" y="319"/>
      <point x="261" y="269" type="curve" smooth="yes"/>
      <point x="261" y="253" type="line"/>
      <point x="116" y="252"/>
      <point x="21" y="209"/>
    </contour>
    <contour>
      <point x="203" y="60" type="curve" smooth="yes"/>
      <point x="170" y="60"/>
      <point x="147" y="84"/>
      <point x="147" y="129" type="curve" smooth="yes"/>
      <point x="147" y="167"/>
      <point x="173" y="204"/>
      <point x="261" y="204" type="curve"/>
      <point x="261" y="83" type="line"/>
      <point x="245" y="69"/>
      <point x="219" y="60"/>
    </contour>
  </outline>
</glyph>
<glyph name="b" format="1">
  <advance width="461"/>
  <unicode hex="0062"/>
  <outline>
    <contour>
      <point x="53" y="20" type="line"/>
      <point x="63" y="13"/>
      <point x="121" y="-8"/>
      <point x="215" y="-8" type="curve" smooth="yes"/>
      <point x="352" y="-8"/>
      <point x="436" y="91"/>
      <point x="436" y="219" type="curve" smooth="yes"/>
      <point x="436" y="364"/>
      <point x="362" y="422"/>
      <point x="276" y="422" type="curve" smooth="yes"/>
      <point x="229" y="422"/>
      <point x="191" y="400"/>
      <point x="169" y="377" type="curve"/>
      <point x="169" y="593" type="line"/>
      <point x="145" y="607" type="line"/>
      <point x="143" y="607" type="line"/>
      <point x="0" y="590" type="line"/>
      <point x="0" y="547" type="line"/>
      <point x="53" y="538" type="line"/>
    </contour>
    <contour>
      <point x="230" y="352" type="curve" smooth="yes"/>
      <point x="279" y="352"/>
      <point x="311" y="309"/>
      <point x="310" y="206" type="curve" smooth="yes"/>
      <point x="309" y="93"/>
      <point x="272" y="38"/>
      <point x="219" y="38" type="curve" smooth="yes"/>
      <point x="193" y="38"/>
      <point x="173" y="45"/>
      <point x="169" y="56" type="curve"/>
      <point x="169" y="324" type="line"/>
      <point x="180" y="337"/>
      <point x="202" y="352"/>
    </contour>
  </outline>
</glyph>
<glyph name="c" format="1">
  <advance width="384"/>
  <unicode hex="0063"/>
  <outline>
    <contour>
      <point x="27" y="201" type="curve" smooth="yes"/>
      <point x="27" y="81"/>
      <point x="84" y="-8"/>
      <point x="219" y="-8" type="curve" smooth="yes"/>
      <point x="288" y="-8"/>
      <point x="346" y="27"/>
      <point x="366" y="49" type="curve"/>
      <point x="346" y="93" type="line"/>
      <point x="324" y="79"/>
      <point x="293" y="64"/>
      <point x="247" y="64" type="curve" smooth="yes"/>
      <point x="192" y="64"/>
      <point x="152" y="115"/>
      <point x="153" y="227" type="curve" smooth="yes"/>
      <point x="153" y="334"/>
      <point x="184" y="370"/>
      <point x="227" y="370" type="curve" smooth="yes"/>
      <point x="246" y="370"/>
      <point x="261" y="364"/>
      <point x="267" y="349" type="curve" smooth="yes"/>
      <point x="285" y="272" type="line"/>
      <point x="358" y="272" type="line"/>
      <point x="363" y="400" type="line"/>
      <point x="339" y="403"/>
      <point x="303" y="422"/>
      <point x="239" y="422" type="curve" smooth="yes"/>
      <point x="110" y="422"/>
      <point x="27" y="333"/>
    </contour>
  </outline>
</glyph>
<glyph name="d" format="1">
  <advance width="465"/>
  <unicode hex="0064"/>
  <outline>
    <contour>
      <point x="185" y="-8" type="curve" smooth="yes"/>
      <point x="235" y="-8"/>
      <point x="279" y="16"/>
      <point x="304" y="48" type="curve"/>
      <point x="304" y="33" type="line" smooth="yes"/>
      <point x="304" y="-2"/>
      <point x="320" y="-9"/>
      <point x="353" y="-9" type="curve" smooth="yes"/>
      <point x="384" y="-9"/>
      <point x="424" y="-1"/>
      <point x="446" y="3" type="curve"/>
      <point x="446" y="50" type="line"/>
      <point x="407" y="50" type="line"/>
      <point x="407" y="590" type="line"/>
      <point x="384" y="607" type="line"/>
      <point x="381" y="607" type="line"/>
      <point x="221" y="592" type="line"/>
      <point x="221" y="546" type="line"/>
      <point x="292" y="536" type="line"/>
      <point x="292" y="417" type="line"/>
      <point x="278" y="420"/>
      <point x="261" y="422"/>
      <point x="246" y="422" type="curve" smooth="yes"/>
      <point x="101" y="422"/>
      <point x="25" y="318"/>
      <point x="25" y="196" type="curve" smooth="yes"/>
      <point x="25" y="53"/>
      <point x="97" y="-8"/>
    </contour>
    <contour>
      <point x="230" y="59" type="curve" smooth="yes"/>
      <point x="183" y="59"/>
      <point x="148" y="103"/>
      <point x="150" y="210" type="curve"/>
      <point x="151" y="331"/>
      <point x="192" y="372"/>
      <point x="241" y="372" type="curve" smooth="yes"/>
      <point x="264" y="372"/>
      <point x="285" y="364"/>
      <point x="292" y="356" type="curve"/>
      <point x="292" y="86" type="line"/>
      <point x="280" y="73"/>
      <point x="259" y="59"/>
    </contour>
  </outline>
</glyph>
<glyph name="e" format="1">
  <advance width="408"/>
  <unicode hex="0065"/>
  <outline>
    <contour>
      <point x="221" y="-8" type="curve" smooth="yes"/>
      <point x="290" y="-8"/>
      <point x="356" y="26"/>
      <point x="380" y="51" type="curve"/>
      <point x="359" y="96" type="line"/>
      <point x="337" y="82"/>
      <point x="293" y="65"/>
      <point x="254" y="65" type="curve" smooth="yes"/>
      <point x="194" y="65"/>
      <point x="153" y="104"/>
      <point x="146" y="196" type="curve"/>
      <point x="380" y="196" type="line"/>
      <point x="384" y="216"/>
      <point x="385" y="239"/>
      <point x="385" y="273" type="curve"/>
      <point x="383" y="368"/>
      <point x="328" y="422"/>
      <point x="226" y="422" type="curve" smooth="yes"/>
      <point x="105" y="422"/>
      <point x="24" y="341"/>
      <point x="24" y="205" type="curve" smooth="yes"/>
      <point x="24" y="80"/>
      <point x="82" y="-8"/>
    </contour>
    <contour>
      <point x="213" y="371" type="curve" smooth="yes"/>
      <point x="257" y="371"/>
      <point x="270" y="332"/>
      <point x="270" y="276" type="curve" smooth="yes"/>
      <point x="270" y="268"/>
      <point x="270" y="253"/>
      <point x="270" y="246" type="curve"/>
      <point x="145" y="246" type="line"/>
      <point x="147" y="349"/>
      <point x="176" y="371"/>
    </contour>
  </outline>
</glyph>
<glyph name="f" format="1">
  <advance width="308"/>
  <unicode hex="0066"/>
  <outline>
    <contour>
      <point x="27" y="0" type="line"/>
      <point x="274" y="0" type="line"/>
      <point x="274" y="48" type="line"/>
      <point x="200" y="56" type="line"/>
      <point x="200" y="350" type="line"/>
      <point x="291" y="350" type="line"/>
      <point x="291" y="411" type="line"/>
      <point x="200" y="411" type="line"/>
      <point x="200" y="479" type="line" smooth="yes"/>
      <point x="200" y="520"/>
      <point x="210" y="531"/>
      <point x="247" y="531" type="curve" smooth="yes"/>
      <point x="279" y="531"/>
      <point x="315" y="516"/>
      <point x="324" y="505" type="curve"/>
      <point x="324" y="612" type="line"/>
      <point x="317" y="614"/>
      <point x="304" y="619"/>
      <point x="276" y="619" type="curve" smooth="yes"/>
      <point x="175" y="619"/>
      <point x="83" y="542"/>
      <point x="83" y="442" type="curve" smooth="yes"/>
      <point x="83" y="410" type="line"/>
      <point x="24" y="394" type="line"/>
      <point x="24" y="350" type="line"/>
      <point x="83" y="350" type="line"/>
      <point x="83" y="56" type="line"/>
      <point x="27" y="48" type="line"/>
    </contour>
  </outline>
</glyph>
<glyph name="h" format="1">
  <advance width="502"/>
  <unicode hex="0068"/>
  <outline>
    <contour>
      <point x="30" y="0" type="line"/>
      <point x="232" y="0" type="line"/>
      <point x="232" y="48" type="line"/>
      <point x="189" y="56" type="line"/>
      <point x="189" y="322" type="line"/>
      <point x="208" y="339"/>
      <point x="238" y="351"/>
      <point x="267" y="351" type="curve" smooth="yes"/>
      <point x="316" y="351"/>
      <point x="324" y="323"/>
      <point x="324" y="256" type="curve" smooth="yes"/>
      <point x="324" y="56" type="line"/>
      <point x="285" y="48" type="line"/>
      <point x="285" y="0" type="line"/>
      <point x="489" y="0" type="line"/>
      <point x="489" y="48" type="line"/>
      <point x="442" y="56" type="line"/>
      <point x="442" y="257" type="line" smooth="yes"/>
      <point x="442" y="369"/>
      <point x="417" y="420"/>
      <point x="323" y="420" type="curve" smooth="yes"/>
      <point x="258" y="420"/>
      <point x="207" y="388"/>
      <point x="181" y="365" type="curve"/>
      <point x="187" y="432" type="line"/>
      <point x="186" y="592" type="line"/>
      <point x="164" y="607" type="line"/>
      <point x="162" y="607" type="line"/>
      <point x="16" y="590" type="line"/>
      <point x="16" y="545" type="line"/>
      <point x="70" y="536" type="line"/>
      <point x="70" y="56" type="line"/>
      <point x="30" y="48" type="line"/>
    </contour>
  </outline>
</glyph>
<glyph name="i" format="1">
  <advance width="261"/>
  <unicode hex="0069"/>
  <outline>
    <contour>
      <point x="28" y="0" type="line"/>
      <point x="241" y="0" type="line"/>
      <point x="241" y="48" type="line"/>
      <point x="194" y="56" type="line"/>
      <point x="194" y="406" type="line"/>
      <point x="172" y="421" type="line"/>
      <point x="170" y="421" type="line"/>
      <point x="27" y="404" type="line"/>
      <point x="27" y="348" type="line"/>
      <point x="76" y="333" type="line"/>
      <point x="76" y="56" type="line"/>
      <point x="28" y="48" type="line"/>
    </contour>
    <contour>
      <point x="128" y="479" type="curve"/>
      <point x="177" y="479"/>
      <point x="200" y="509"/>
      <point x="200" y="549" type="curve" smooth="yes"/>
      <point x="200" y="581"/>
      <point x="177" y="610"/>
      <point x="135" y="610" type="curve"/>
      <point x="91" y="610"/>
      <point x="66" y="577"/>
      <point x="66" y="539" type="curve" smooth="yes"/>
      <point x="66" y="504"/>
      <point x="91" y="479"/>
    </contour>
  </outline>
</glyph>
<glyph name="j" format="1">
  <advance width="248"/>
  <unicode hex="006A"/>
  <outline>
    <contour>
      <point x="79" y="29" type="line"/>
      <point x="79" y="-51"/>
      <point x="67" y="-104"/>
      <point x="30" y="-121" type="curve" smooth="yes"/>
      <point x="17" y="-128"/>
      <point x="0" y="-130"/>
      <point x="-7" y="-130" type="curve"/>
      <point x="-1" y="-177" type="line"/>
      <point x="5" y="-179"/>
      <point x="33" y="-181"/>
      <point x="44" y="-180" type="curve" smooth="yes"/>
      <point x="101" y="-177"/>
      <point x="194" y="-115"/>
      <point x="194" y="8" type="curve" smooth="yes"/>
      <point x="194" y="406" type="line"/>
      <point x="172" y="421" type="line"/>
      <point x="170" y="421" type="line"/>
      <point x="30" y="404" type="line"/>
      <point x="30" y="347" type="line"/>
      <point x="78" y="331" type="line"/>
    </contour>
    <contour>
      <point x="126" y="479" type="curve"/>
      <point x="175" y="479"/>
      <point x="198" y="509"/>
      <point x="198" y="549" type="curve" smooth="yes"/>
      <point x="198" y="581"/>
      <point x="175" y="610"/>
      <point x="133" y="610" type="curve"/>
      <point x="89" y="610"/>
      <point x="64" y="577"/>
      <point x="64" y="539" type="curve" smooth="yes"/>
      <point x="64" y="504"/>
      <point x="89" y="479"/>
    </contour>
  </outline>
</glyph>
<glyph name="k" format="1">
  <advance width="480"/>
  <unicode hex="006B"/>
  <outline>
    <contour>
      <point x="27" y="0" type="line"/>
      <point x="230" y="0" type="line"/>
      <point x="230" y="48" type="line"/>
      <point x="185" y="56" type="line"/>
      <point x="185" y="104" type="line"/>
      <point x="184" y="144" type="line"/>
      <point x="243" y="204" type="line"/>
      <point x="320" y="56" type="line"/>
      <point x="287" y="48" type="line"/>
      <point x="287" y="0" type="line"/>
      <point x="489" y="0" type="line"/>
      <point x="489" y="48" type="line"/>
      <point x="450" y="56" type="line"/>
      <point x="324" y="277" type="line"/>
      <point x="404" y="353" type="line"/>
      <point x="466" y="365" type="line"/>
      <point x="466" y="411" type="line"/>
      <point x="264" y="411" type="line"/>
      <point x="264" y="365" type="line"/>
      <point x="321" y="356" type="line"/>
      <point x="184" y="212" type="line"/>
      <point x="186" y="247" type="line"/>
      <point x="186" y="592" type="line"/>
      <point x="164" y="607" type="line"/>
      <point x="163" y="607" type="line"/>
      <point x="18" y="590" type="line"/>
      <point x="18" y="545" type="line"/>
      <point x="69" y="536" type="line"/>
      <point x="69" y="56" type="line"/>
      <point x="27" y="48" type="line"/>
    </contour>
  </outline>
</glyph>
<glyph name="l" format="1">
  <advance width="255"/>
  <unicode hex="006C"/>
  <outline>
    <contour>
      <point x="22" y="0" type="line"/>
      <point x="236" y="0" type="line"/>
      <point x="236" y="48" type="line"/>
      <point x="187" y="56" type="line"/>
      <point x="187" y="592" type="line"/>
      <point x="166" y="607" type="line"/>
      <point x="164" y="607" type="line"/>
      <point x="18" y="590" type="line"/>
      <point x="18" y="545" type="line"/>
      <point x="71" y="536" type="line"/>
      <point x="71" y="56" type="line"/>
      <point x="22" y="48" type="line"/>
    </contour>
  </outline>
</glyph>
<glyph name="m" format="1">
  <advance width="760"/>
  <unicode hex="006D"/>
  <outline>
    <contour>
      <point x="39" y="0" type="line"/>
      <point x="240" y="0" type="line"/>
      <point x="240" y="48" type="line"/>
      <point x="199" y="56" type="line"/>
      <point x="199" y="322" type="line"/>
      <point x="216" y="336"/>
      <point x="246" y="351"/>
      <point x="276" y="351" type="curve" smooth="yes"/>
      <point x="322" y="351"/>
      <point x="333" y="324"/>
      <point x="333" y="256" type="curve" smooth="yes"/>
      <point x="333" y="56" type="line"/>
      <point x="294" y="48" type="line"/>
      <point x="294" y="0" type="line"/>
      <point x="496" y="0" type="line"/>
      <point x="496" y="48" type="line"/>
      <point x="452" y="56" type="line"/>
      <point x="452" y="256" type="line" smooth="yes"/>
      <point x="452" y="281"/>
      <point x="450" y="304"/>
      <point x="447" y="324" type="curve"/>
      <point x="465" y="337"/>
      <point x="493" y="351"/>
      <point x="519" y="351" type="curve" smooth="yes"/>
      <point x="567" y="351"/>
      <point x="579" y="324"/>
      <point x="579" y="254" type="curve" smooth="yes"/>
      <point x="579" y="56" type="line"/>
      <point x="545" y="48" type="line"/>
      <point x="545" y="0" type="line"/>
      <point x="743" y="0" type="line"/>
      <point x="743" y="48" type="line"/>
      <point x="698" y="55" type="line"/>
      <point x="698" y="257" type="line" smooth="yes"/>
      <point x="698" y="370"/>
      <point x="667" y="420"/>
      <point x="577" y="420" type="curve" smooth="yes"/>
      <point x="523" y="420"/>
      <point x="467" y="394"/>
      <point x="436" y="364" type="curve"/>
      <point x="419" y="402"/>
      <point x="387" y="420"/>
      <point x="333" y="420" type="curve" smooth="yes"/>
      <point x="291" y="420"/>
      <point x="219" y="395"/>
      <point x="187" y="362" type="curve"/>
      <point x="187" y="379" type="line"/>
      <point x="187" y="406" type="line"/>
      <point x="167" y="421" type="line"/>
      <point x="166" y="421" type="line"/>
      <point x="35" y="405" type="line"/>
      <point x="35" y="348" type="line"/>
      <point x="79" y="333" type="line"/>
      <point x="79" y="55" type="line"/>
      <point x="39" y="48" type="line"/>
    </contour>
  </outline>
</glyph>
<glyph name="n" format="1">
  <advance width="513"/>
  <unicode hex="006E"/>
  <outline>
    <contour>
      <point x="38" y="0" type="line"/>
      <point x="241" y="0" type="line"/>
      <point x="241" y="48" type="line"/>
      <point x="199" y="56" type="line"/>
      <point x="199" y="321" type="line"/>
      <point x="216" y="335"/>
      <point x="246" y="351"/>
      <point x="276" y="351" type="curve" smooth="yes"/>
      <point x="323" y="351"/>
      <point x="333" y="324"/>
      <point x="333" y="256" type="curve" smooth="yes"/>
      <point x="333" y="56" type="line"/>
      <point x="296" y="48" type="line"/>
      <point x="296" y="0" type="line"/>
      <point x="496" y="0" type="line"/>
      <point x="496" y="49" type="line"/>
      <point x="453" y="56" type="line"/>
      <point x="453" y="256" type="line" smooth="yes"/>
      <point x="453" y="376"/>
      <point x="423" y="420"/>
      <point x="334" y="420" type="curve" smooth="yes"/>
      <point x="276" y="420"/>
      <point x="218" y="392"/>
      <point x="187" y="363" type="curve"/>
      <point x="187" y="379" type="line"/>
      <point x="187" y="406" type="line"/>
      <point x="167" y="421" type="line"/>
      <point x="166" y="421" type="line"/>
      <point x="35" y="405" type="line"/>
      <point x="35" y="348" type="line"/>
      <point x="79" y="333" type="line"/>
      <point x="79" y="55" type="line"/>
      <point x="38" y="48" type="line"/>
    </contour>
  </outline>
</glyph>
<glyph name="o" format="1">
  <advance width="450"/>
  <unicode hex="006F"/>
  <outline>
    <contour>
      <point x="226" y="44" type="curve" smooth="yes"/>
      <point x="172" y="44"/>
      <point x="150" y="104"/>
      <point x="150" y="213" type="curve" smooth="yes"/>
      <point x="150" y="322"/>
      <point x="174" y="370"/>
      <point x="224" y="370" type="curve" smooth="yes"/>
      <point x="279" y="370"/>
      <point x="299" y="310"/>
      <point x="299" y="201" type="curve" smooth="yes"/>
      <point x="299" y="93"/>
      <point x="276" y="44"/>
    </contour>
    <contour>
      <point x="23" y="204" type="curve" smooth="yes"/>
      <point x="23" y="73"/>
      <point x="96" y="-8"/>
      <point x="219" y="-8" type="curve" smooth="yes"/>
      <point x="329" y="-8"/>
      <point x="427" y="60"/>
      <point x="427" y="210" type="curve" smooth="yes"/>
      <point x="427" y="341"/>
      <point x="354" y="422"/>
      <point x="230" y="422" type="curve" smooth="yes"/>
      <point x="121" y="422"/>
      <point x="23" y="350"/>
    </contour>
  </outline>
</glyph>
<glyph name="p" format="1">
  <advance width="474"/>
  <unicode hex="0070"/>
  <outline>
    <contour>
      <point x="449" y="219" type="curve" smooth="yes"/>
      <point x="449" y="364"/>
      <point x="376" y="422"/>
      <point x="288" y="422" type="curve" smooth="yes"/>
      <point x="235" y="422"/>
      <point x="194" y="393"/>
      <point x="173" y="367" type="curve"/>
      <point x="173" y="406" type="line"/>
      <point x="153" y="421" type="line"/>
      <point x="152" y="421" type="line"/>
      <point x="23" y="405" type="line"/>
      <point x="23" y="348" type="line"/>
      <point x="67" y="333" type="line"/>
      <point x="67" y="-124" type="line"/>
      <point x="21" y="-133" type="line"/>
      <point x="21" y="-179" type="line"/>
      <point x="247" y="-179" type="line"/>
      <point x="247" y="-133" type="line"/>
      <point x="183" y="-124" type="line"/>
      <point x="183" y="-61" type="line"/>
      <point x="181" y="-1" type="line"/>
      <point x="192" y="-4"/>
      <point x="213" y="-8"/>
      <point x="230" y="-8" type="curve" smooth="yes"/>
      <point x="372" y="-8"/>
      <point x="449" y="99"/>
    </contour>
    <contour>
      <point x="244" y="355" type="curve" smooth="yes"/>
      <point x="291" y="355"/>
      <point x="325" y="311"/>
      <point x="324" y="206" type="curve"/>
      <point x="324" y="83"/>
      <point x="281" y="41"/>
      <point x="232" y="41" type="curve" smooth="yes"/>
      <point x="209" y="41"/>
      <point x="189" y="49"/>
      <point x="183" y="58" type="curve"/>
      <point x="183" y="328" type="line"/>
      <point x="195" y="341"/>
      <point x="217" y="355"/>
    </contour>
  </outline>
</glyph>
<glyph name="q" format="1">
  <advance width="457"/>
  <unicode hex="0071"/>
  <outline>
    <contour>
      <point x="185" y="-8" type="curve" smooth="yes"/>
      <point x="230" y="-8"/>
      <point x="270" y="12"/>
      <point x="295" y="38" type="curve"/>
      <point x="293" y="-17" type="line"/>
      <point x="293" y="-124" type="line"/>
      <point x="216" y="-133" type="line"/>
      <point x="216" y="-179" type="line"/>
      <point x="458" y="-179" type="line"/>
      <point x="458" y="-133" type="line"/>
      <point x="408" y="-124" type="line"/>
      <point x="408" y="406" type="line"/>
      <point x="391" y="419" type="line"/>
      <point x="390" y="419" type="line"/>
      <point x="333" y="408" type="line"/>
      <point x="313" y="414"/>
      <point x="277" y="422"/>
      <point x="246" y="422" type="curve" smooth="yes"/>
      <point x="101" y="422"/>
      <point x="25" y="319"/>
      <point x="25" y="197" type="curve" smooth="yes"/>
      <point x="25" y="53"/>
      <point x="98" y="-8"/>
    </contour>
    <contour>
      <point x="231" y="59" type="curve" smooth="yes"/>
      <point x="184" y="59"/>
      <point x="149" y="104"/>
      <point x="150" y="210" type="curve" smooth="yes"/>
      <point x="151" y="333"/>
      <point x="192" y="372"/>
      <point x="241" y="372" type="curve" smooth="yes"/>
      <point x="265" y="372"/>
      <point x="287" y="364"/>
      <point x="293" y="355" type="curve"/>
      <point x="293" y="86" type="line"/>
      <point x="281" y="73"/>
      <point x="259" y="59"/>
    </contour>
  </outline>
</glyph>
<glyph name="r" format="1">
  <advance width="353"/>
  <unicode hex="0072"/>
  <outline>
    <contour>
      <point x="31" y="0" type="line"/>
      <point x="281" y="0" type="line"/>
      <point x="281" y="48" type="line"/>
      <point x="196" y="56" type="line"/>
      <point x="196" y="290" type="line"/>
      <point x="211" y="300"/>
      <point x="241" y="310"/>
      <point x="279" y="310" type="curve" smooth="yes"/>
      <point x="306" y="310"/>
      <point x="321" y="304"/>
      <point x="338" y="293" type="curve"/>
      <point x="338" y="416" type="line"/>
      <point x="332" y="420"/>
      <point x="321" y="422"/>
      <point x="309" y="422" type="curve" smooth="yes"/>
      <point x="238" y="422"/>
      <point x="188" y="355"/>
      <point x="180" y="327" type="curve"/>
      <point x="178" y="327" type="line"/>
      <point x="180" y="385" type="line"/>
      <point x="180" y="406" type="line"/>
      <point x="159" y="421" type="line"/>
      <point x="156" y="421" type="line"/>
      <point x="36" y="405" type="line"/>
      <point x="36" y="348" type="line"/>
      <point x="79" y="333" type="line"/>
      <point x="79" y="56" type="line"/>
      <point x="31" y="48" type="line"/>
    </contour>
  </outline>
</glyph>
<glyph name="s" format="1">
  <advance width="390"/>
  <unicode hex="0073"/>
  <outline>
    <contour>
      <point x="39" y="21" type="line"/>
      <point x="65" y="15"/>
      <point x="122" y="-8"/>
      <point x="197" y="-8" type="curve" smooth="yes"/>
      <point x="313" y="-8"/>
      <point x="366" y="47"/>
      <point x="366" y="116" type="curve" smooth="yes"/>
      <point x="366" y="193"/>
      <point x="304" y="225"/>
      <point x="240" y="253" type="curve" smooth="yes"/>
      <point x="192" y="275"/>
      <point x="146" y="289"/>
      <point x="146" y="329" type="curve" smooth="yes"/>
      <point x="146" y="354"/>
      <point x="166" y="373"/>
      <point x="206" y="373" type="curve" smooth="yes"/>
      <point x="233" y="373"/>
      <point x="252" y="362"/>
      <point x="257" y="353" type="curve"/>
      <point x="276" y="300" type="line"/>
      <point x="341" y="300" type="line"/>
      <point x="341" y="399" type="line"/>
      <point x="316" y="402"/>
      <point x="276" y="421"/>
      <point x="202" y="421" type="curve" smooth="yes"/>
      <point x="99" y="421"/>
      <point x="38" y="370"/>
      <point x="38" y="303" type="curve" smooth="yes"/>
      <point x="38" y="238"/>
      <point x="73" y="201"/>
      <point x="138" y="172" type="curve" smooth="yes"/>
      <point x="204" y="141"/>
      <point x="252" y="124"/>
      <point x="252" y="87" type="curve" smooth="yes"/>
      <point x="252" y="61"/>
      <point x="236" y="40"/>
      <point x="191" y="40" type="curve" smooth="yes"/>
      <point x="163" y="40"/>
      <point x="133" y="52"/>
      <point x="126" y="64" type="curve"/>
      <point x="108" y="120" type="line"/>
      <point x="39" y="120" type="line"/>
    </contour>
  </outline>
</glyph>
<glyph name="u" format="1">
  <advance width="479"/>
  <unicode hex="0075"/>
  <outline>
    <contour>
      <point x="369" y="-8" type="curve" smooth="yes"/>
      <point x="409" y="-8"/>
      <point x="442" y="0"/>
      <point x="460" y="4" type="curve"/>
      <point x="460" y="51" type="line"/>
      <point x="421" y="51" type="line"/>
      <point x="421" y="410" type="line"/>
      <point x="401" y="421" type="line"/>
      <point x="258" y="410" type="line"/>
      <point x="258" y="365" type="line"/>
      <point x="304" y="353" type="line"/>
      <point x="304" y="84" type="line"/>
      <point x="292" y="76"/>
      <point x="269" y="59"/>
      <point x="233" y="59" type="curve" smooth="yes"/>
      <point x="191" y="59"/>
      <point x="177" y="80"/>
      <point x="177" y="146" type="curve" smooth="yes"/>
      <point x="177" y="410" type="line"/>
      <point x="160" y="421" type="line"/>
      <point x="24" y="410" type="line"/>
      <point x="24" y="364" type="line"/>
      <point x="60" y="353" type="line"/>
      <point x="60" y="149" type="line"/>
      <point x="60" y="35"/>
      <point x="99" y="-8"/>
      <point x="193" y="-8" type="curve" smooth="yes"/>
      <point x="244" y="-8"/>
      <point x="294" y="22"/>
      <point x="317" y="50" type="curve"/>
      <point x="317" y="37" type="line"/>
      <point x="317" y="7"/>
      <point x="333" y="-8"/>
    </contour>
  </outline>
</glyph>
<glyph name="v" format="1">
  <advance width="425"/>
  <unicode hex="0076"/>
  <outline>
    <contour>
      <point x="171" y="-6" type="line"/>
      <point x="267" y="-6" type="line"/>
      <point x="401" y="355" type="line"/>
      <point x="439" y="364" type="line"/>
      <point x="439" y="412" type="line"/>
      <point x="270" y="412" type="line"/>
      <point x="270" y="364" type="line"/>
      <point x="316" y="355" type="line"/>
      <point x="256" y="161" type="line"/>
      <point x="239" y="87" type="line"/>
      <point x="218" y="162" type="line"/>
      <point x="156" y="355" type="line"/>
      <point x="204" y="364" type="line"/>
      <point x="204" y="412" type="line"/>
      <point x="-6" y="412" type="line"/>
      <point x="-6" y="364" type="line"/>
      <point x="24" y="355" type="line"/>
    </contour>
  </outline>
</glyph>
<glyph name="w" format="1">
  <advance width="634"/>
  <unicode hex="0077"/>
  <outline>
    <contour>
      <point x="142" y="-6" type="line"/>
      <point x="237" y="-6" type="line"/>
      <point x="307" y="230" type="line"/>
      <point x="318" y="314" type="line"/>
      <point x="333" y="230" type="line"/>
      <point x="407" y="-6" type="line"/>
      <point x="501" y="-6" type="line"/>
      <point x="613" y="356" type="line"/>
      <point x="648" y="364" type="line"/>
      <point x="648" y="411" type="line"/>
      <point x="484" y="411" type="line"/>
      <point x="484" y="364" type="line"/>
      <point x="539" y="355" type="line"/>
      <point x="491" y="167" type="line"/>
      <point x="476" y="93" type="line"/>
      <point x="461" y="168" type="line"/>
      <point x="386" y="411" type="line"/>
      <point x="288" y="411" type="line"/>
      <point x="221" y="168" type="line"/>
      <point x="207" y="93" type="line"/>
      <point x="192" y="168" type="line"/>
      <point x="142" y="355" type="line"/>
      <point x="193" y="364" type="line"/>
      <point x="193" y="411" type="line"/>
      <point x="-8" y="411" type="line"/>
      <point x="-8" y="364" type="line"/>
      <point x="26" y="356" type="line"/>
    </contour>
  </outline>
</glyph>
<glyph name="x" format="1">
  <advance width="450"/>
  <unicode hex="0078"/>
  <outline>
    <contour>
      <point x="1" y="0" type="line"/>
      <point x="183" y="0" type="line"/>
      <point x="183" y="47" type="line"/>
      <point x="129" y="56" type="line"/>
      <point x="183" y="135" type="line"/>
      <point x="199" y="167" type="line"/>
      <point x="221" y="135" type="line"/>
      <point x="273" y="56" type="line"/>
      <point x="233" y="47" type="line"/>
      <point x="233" y="0" type="line"/>
      <point x="456" y="0" type="line"/>
      <point x="456" y="47" type="line"/>
      <point x="416" y="55" type="line"/>
      <point x="291" y="216" type="line"/>
      <point x="403" y="355" type="line"/>
      <point x="446" y="364" type="line"/>
      <point x="446" y="412" type="line"/>
      <point x="281" y="412" type="line"/>
      <point x="281" y="364" type="line"/>
      <point x="328" y="355" type="line"/>
      <point x="276" y="281" type="line"/>
      <point x="257" y="250" type="line"/>
      <point x="239" y="282" type="line"/>
      <point x="186" y="355" type="line"/>
      <point x="232" y="364" type="line"/>
      <point x="232" y="412" type="line"/>
      <point x="6" y="412" type="line"/>
      <point x="6" y="364" type="line"/>
      <point x="44" y="355" type="line"/>
      <point x="164" y="201" type="line"/>
      <point x="47" y="56" type="line"/>
      <point x="1" y="47" type="line"/>
    </contour>
  </outline>
</glyph>
<glyph name="y" format="1">
  <advance width="427"/>
  <unicode hex="0079"/>
  <outline>
    <contour>
      <point x="103" y="-184" type="curve" smooth="yes"/>
      <point x="187" y="-184"/>
      <point x="233" y="-122"/>
      <point x="275" y="-10" type="curve"/>
      <point x="282" y="6"/>
      <point x="354" y="210"/>
      <point x="401" y="356" type="curve"/>
      <point x="436" y="364" type="line"/>
      <point x="436" y="412" type="line"/>
      <point x="270" y="412" type="line"/>
      <point x="270" y="364" type="line"/>
      <point x="315" y="356" type="line"/>
      <point x="257" y="154" type="line"/>
      <point x="239" y="77" type="line"/>
      <point x="216" y="154" type="line"/>
      <point x="155" y="355" type="line"/>
      <point x="206" y="364" type="line"/>
      <point x="206" y="412" type="line"/>
      <point x="-10" y="412" type="line"/>
      <point x="-10" y="364" type="line"/>
      <point x="24" y="355" type="line"/>
      <point x="159" y="0" type="line"/>
      <point x="204" y="0" type="line"/>
      <point x="178" y="-71"/>
      <point x="149" y="-100"/>
      <point x="101" y="-100" type="curve" smooth="yes"/>
      <point x="84" y="-100"/>
      <point x="56" y="-95"/>
      <point x="49" y="-90" type="curve"/>
      <point x="49" y="-177" type="line"/>
      <point x="59" y="-181"/>
      <point x="84" y="-184"/>
    </contour>
  </outline>
</glyph>
<glyph name="z" format="1">
  <advance width="416"/>
  <unicode hex="007A"/>
  <outline>
    <contour>
      <point x="16" y="41" type="line"/>
      <point x="36" y="0" type="line"/>
      <point x="384" y="0" type="line"/>
      <point x="393" y="136" type="line"/>
      <point x="337" y="141" type="line"/>
      <point x="304" y="59" type="line"/>
      <point x="156" y="50" type="line"/>
      <point x="207" y="105" type="line"/>
      <point x="391" y="372" type="line"/>
      <point x="373" y="412" type="line"/>
      <point x="46" y="412" type="line"/>
      <point x="46" y="283" type="line"/>
      <point x="105" y="283" type="line"/>
      <point x="124" y="355" type="line"/>
      <point x="260" y="361" type="line"/>
      <point x="206" y="303" type="line"/>
    </contour>
  </outline>
</glyph>
<glyph name="braceleft" format="1">
  <advance width="383"/>
  <unicode hex="007B"/>
  <outline>
    <contour>
      <point x="101" y="-6" type="curve" smooth="yes"/>
      <point x="101" y="-66"/>
      <point x="132" y="-104"/>
      <point x="225" y="-104" type="curve" smooth="yes"/>
      <point x="266" y="-104"/>
      <point x="301" y="-96"/>
      <point x="333" y="-88" type="curve"/>
      <point x="333" y="-42" type="line"/>
      <point x="276" y="-42" type="line" smooth="yes"/>
      <point x="239" y="-42"/>
      <point x="213" y="-34"/>
      <point x="213" y="13" type="curve" smooth="yes"/>
      <point x="213" y="53"/>
      <point x="248" y="113"/>
      <point x="248" y="163" type="curve" smooth="yes"/>
      <point x="248" y="216"/>
      <point x="201" y="241"/>
      <point x="144" y="249" type="curve"/>
      <point x="201" y="258"/>
      <point x="248" y="280"/>
      <point x="248" y="333" type="curve" smooth="yes"/>
      <point x="248" y="383"/>
      <point x="213" y="444"/>
      <point x="213" y="484" type="curve" smooth="yes"/>
      <point x="213" y="530"/>
      <point x="239" y="539"/>
      <point x="276" y="539" type="curve" smooth="yes"/>
      <point x="333" y="539" type="line"/>
      <point x="333" y="584" type="line"/>
      <point x="301" y="591"/>
      <point x="266" y="599"/>
      <point x="225" y="599" type="curve" smooth="yes"/>
      <point x="133" y="599"/>
      <point x="101" y="562"/>
      <point x="101" y="501" type="curve" smooth="yes"/>
      <point x="101" y="433"/>
      <point x="152" y="393"/>
      <point x="152" y="331" type="curve" smooth="yes"/>
      <point x="152" y="299"/>
      <point x="150" y="283"/>
      <point x="61" y="283" type="curve"/>
      <point x="61" y="219" type="line"/>
      <point x="150" y="219"/>
      <point x="152" y="196"/>
      <point x="152" y="162" type="curve" smooth="yes"/>
      <point x="152" y="101"/>
      <point x="101" y="61"/>
    </contour>
  </outline>
</glyph>
<glyph name="bar" format="1">
  <advance width="313"/>
  <unicode hex="007C"/>
  <outline>
    <contour>
      <point x="116" y="-67" type="line"/>
      <point x="198" y="-67" type="line"/>
      <point x="198" y="644" type="line"/>
      <point x="116" y="644" type="line"/>
    </contour>
  </outline>
</glyph>
<glyph name="braceright" format="1">
  <advance width="383"/>
  <unicode hex="007D"/>
  <outline>
    <contour>
      <point x="282" y="-6" type="curve" smooth="yes"/>
      <point x="282" y="-66"/>
      <point x="251" y="-104"/>
      <point x="158" y="-104" type="curve" smooth="yes"/>
      <point x="117" y="-104"/>
      <point x="82" y="-96"/>
      <point x="50" y="-88" type="curve"/>
      <point x="50" y="-42" type="line"/>
      <point x="107" y="-42" type="line" smooth="yes"/>
      <point x="144" y="-42"/>
      <point x="170" y="-34"/>
      <point x="170" y="13" type="curve" smooth="yes"/>
      <point x="170" y="53"/>
      <point x="135" y="113"/>
      <point x="135" y="163" type="curve" smooth="yes"/>
      <point x="135" y="216"/>
      <point x="182" y="241"/>
      <point x="239" y="249" type="curve"/>
      <point x="182" y="258"/>
      <point x="135" y="280"/>
      <point x="135" y="333" type="curve" smooth="yes"/>
      <point x="135" y="383"/>
      <point x="170" y="444"/>
      <point x="170" y="484" type="curve" smooth="yes"/>
      <point x="170" y="530"/>
      <point x="144" y="539"/>
      <point x="107" y="539" type="curve" smooth="yes"/>
      <point x="50" y="539" type="line"/>
      <point x="50" y="584" type="line"/>
      <point x="82" y="591"/>
      <point x="117" y="599"/>
      <point x="158" y="599" type="curve" smooth="yes"/>
      <point x="250" y="599"/>
      <point x="282" y="562"/>
      <point x="282" y="501" type="curve" smooth="yes"/>
      <point x="282" y="433"/>
      <point x="231" y="393"/>
      <point x="231" y="331" type="curve" smooth="yes"/>
      <point x="231" y="299"/>
      <point x="233" y="283"/>
      <point x="322" y="283" type="curve"/>
      <point x="322" y="219" type="line"/>
      <point x="233" y="219"/>
      <point x="231" y="196"/>
      <point x="231" y="162" type="curve" smooth="yes"/>
      <point x="231" y="101"/>
      <point x="282" y="61"/>
    </contour>
  </outline>
</glyph>
<glyph name="asciitilde" format="1">
  <advance width="516"/>
  <unicode hex="007E"/>
  <outline>
    <contour>
      <point x="109" y="171" type="line"/>
      <point x="127" y="191"/>
      <point x="152" y="210"/>
      <point x="185" y="210" type="curve" smooth="yes"/>
      <point x="231" y="210"/>
      <point x="256" y="147"/>
      <point x="321" y="147" type="curve" smooth="yes"/>
      <point x="376" y="147"/>
      <point x="421" y="186"/>
      <point x="441" y="224" type="curve"/>
      <point x="404" y="267" type="line"/>
      <point x="387" y="247"/>
      <point x="367" y="227"/>
      <point x="331" y="227" type="curve" smooth="yes"/>
      <point x="291" y="227"/>
      <point x="261" y="290"/>
      <point x="192" y="290" type="curve" smooth="yes"/>
      <point x="137" y="290"/>
      <point x="90" y="247"/>
      <point x="73" y="214" type="curve"/>
    </contour>
  </outline>
</glyph>
<glyph name="exclamdown" format="1">
  <advance width="261"/>
  <unicode hex="00A1"/>
  <outline>
    <contour>
      <point x="108" y="327" type="line"/>
      <point x="35" y="327" type="line"/>
      <point x="8" y="-38" type="line"/>
      <point x="139" y="-38" type="line"/>
    </contour>
    <contour>
      <point x="138" y="454" type="curve" smooth="yes"/>
      <point x="138" y="492"/>
      <point x="109" y="518"/>
      <point x="69" y="518" type="curve" smooth="yes"/>
      <point x="31" y="518"/>
      <point x="0" y="494"/>
      <point x="0" y="456" type="curve" smooth="yes"/>
      <point x="0" y="420"/>
      <point x="26" y="391"/>
      <point x="69" y="391" type="curve" smooth="yes"/>
      <point x="109" y="391"/>
      <point x="138" y="417"/>
    </contour>
  </outline>
</glyph>
<glyph name="cent" format="1">
  <advance width="430"/>
  <unicode hex="00A2"/>
  <outline>
    <contour>
      <point x="41" y="201" type="curve"/>
      <point x="41" y="96"/>
      <point x="84" y="16"/>
      <point x="184" y="-4" type="curve"/>
      <point x="180" y="-88" type="line"/>
      <point x="244" y="-88" type="line"/>
      <point x="248" y="-7" type="line"/>
      <point x="310" y="-3"/>
      <point x="361" y="29"/>
      <point x="379" y="49" type="curve"/>
      <point x="359" y="93" type="line"/>
      <point x="337" y="79"/>
      <point x="306" y="64"/>
      <point x="261" y="64" type="curve" smooth="yes"/>
      <point x="205" y="64"/>
      <point x="165" y="115"/>
      <point x="166" y="227" type="curve" smooth="yes"/>
      <point x="167" y="334"/>
      <point x="199" y="370"/>
      <point x="241" y="370" type="curve" smooth="yes"/>
      <point x="259" y="370"/>
      <point x="276" y="364"/>
      <point x="280" y="349" type="curve"/>
      <point x="299" y="272" type="line"/>
      <point x="372" y="272" type="line"/>
      <point x="377" y="400" type="line"/>
      <point x="356" y="402"/>
      <point x="327" y="417"/>
      <point x="278" y="421" type="curve"/>
      <point x="282" y="497" type="line"/>
      <point x="218" y="497" type="line"/>
      <point x="214" y="419" type="line"/>
      <point x="107" y="403"/>
      <point x="41" y="319"/>
    </contour>
  </outline>
</glyph>
<glyph name="sterling" format="1">
  <advance width="570"/>
  <unicode hex="00A3"/>
  <outline>
    <contour>
      <point x="73" y="262" type="line"/>
      <point x="141" y="262" type="line"/>
      <point x="141" y="181" type="line" smooth="yes"/>
      <point x="141" y="143"/>
      <point x="137" y="109"/>
      <point x="130" y="99" type="curve"/>
      <point x="86" y="100"/>
      <point x="36" y="75"/>
      <point x="36" y="39" type="curve" smooth="yes"/>
      <point x="36" y="12"/>
      <point x="57" y="0"/>
      <point x="82" y="0" type="curve" smooth="yes"/>
      <point x="113" y="0"/>
      <point x="139" y="18"/>
      <point x="161" y="41" type="curve"/>
      <point x="216" y="40"/>
      <point x="282" y="-5"/>
      <point x="379" y="-5" type="curve" smooth="yes"/>
      <point x="480" y="-5"/>
      <point x="541" y="60"/>
      <point x="541" y="133" type="curve" smooth="yes"/>
      <point x="541" y="164"/>
      <point x="531" y="186"/>
      <point x="523" y="194" type="curve"/>
      <point x="404" y="194" type="line"/>
      <point x="415" y="184"/>
      <point x="426" y="156"/>
      <point x="426" y="127" type="curve" smooth="yes"/>
      <point x="426" y="83"/>
      <point x="411" y="59"/>
      <point x="350" y="59" type="curve" smooth="yes"/>
      <point x="302" y="59"/>
      <point x="251" y="79"/>
      <point x="215" y="84" type="curve"/>
      <point x="247" y="110"/>
      <point x="264" y="140"/>
      <point x="264" y="200" type="curve" smooth="yes"/>
      <point x="264" y="262" type="line"/>
      <point x="362" y="262" type="line"/>
      <point x="362" y="316" type="line"/>
      <point x="264" y="316" type="line"/>
      <point x="264" y="391" type="line" smooth="yes"/>
      <point x="264" y="487"/>
      <point x="297" y="498"/>
      <point x="327" y="498" type="curve" smooth="yes"/>
      <point x="376" y="498"/>
      <point x="413" y="460"/>
      <point x="419" y="447" type="curve"/>
      <point x="471" y="519" type="line"/>
      <point x="442" y="542"/>
      <point x="401" y="557"/>
      <point x="341" y="557" type="curve" smooth="yes"/>
      <point x="231" y="557"/>
      <point x="141" y="481"/>
      <point x="141" y="370" type="curve" smooth="yes"/>
      <point x="141" y="316" type="line"/>
      <point x="73" y="316" type="line"/>
    </contour>
  </outline>
</glyph>
<glyph name="currency" format="1">
  <advance width="559"/>
  <unicode hex="00A4"/>
  <outline>
    <contour>
      <point x="63" y="104" type="line"/>
      <point x="111" y="55" type="line"/>
      <point x="194" y="138" type="line"/>
      <point x="218" y="123"/>
      <point x="247" y="115"/>
      <point x="279" y="115" type="curve" smooth="yes"/>
      <point x="310" y="115"/>
      <point x="339" y="124"/>
      <point x="364" y="139" type="curve"/>
      <point x="447" y="56" type="line"/>
      <point x="495" y="105" type="line"/>
      <point x="413" y="186" type="line"/>
      <point x="432" y="214"/>
      <point x="443" y="247"/>
      <point x="443" y="284" type="curve" smooth="yes"/>
      <point x="443" y="318"/>
      <point x="432" y="350"/>
      <point x="415" y="375" type="curve"/>
      <point x="496" y="456" type="line"/>
      <point x="447" y="504" type="line"/>
      <point x="364" y="421" type="line"/>
      <point x="339" y="436"/>
      <point x="310" y="445"/>
      <point x="279" y="445" type="curve" smooth="yes"/>
      <point x="247" y="445"/>
      <point x="219" y="436"/>
      <point x="194" y="420" type="curve"/>
      <point x="110" y="504" type="line"/>
      <point x="63" y="455" type="line"/>
      <point x="146" y="373" type="line"/>
      <point x="127" y="344"/>
      <point x="117" y="311"/>
      <point x="117" y="276" type="curve" smooth="yes"/>
      <point x="117" y="241"/>
      <point x="127" y="210"/>
      <point x="144" y="184" type="curve"/>
    </contour>
    <contour>
      <point x="279" y="197" type="curve" smooth="yes"/>
      <point x="238" y="197"/>
      <point x="203" y="233"/>
      <point x="203" y="278" type="curve" smooth="yes"/>
      <point x="203" y="322"/>
      <point x="227" y="362"/>
      <point x="277" y="362" type="curve" smooth="yes"/>
      <point x="318" y="362"/>
      <point x="355" y="326"/>
      <point x="355" y="278" type="curve" smooth="yes"/>
      <point x="355" y="233"/>
      <point x="332" y="197"/>
    </contour>
  </outline>
</glyph>
<glyph name="yen" format="1">
  <advance width="601"/>
  <unicode hex="00A5"/>
  <outline>
    <contour>
      <point x="93" y="244" type="line"/>
      <point x="251" y="244" type="line"/>
      <point x="251" y="170" type="line"/>
      <point x="93" y="170" type="line"/>
      <point x="93" y="121" type="line"/>
      <point x="251" y="121" type="line"/>
      <point x="251" y="56" type="line"/>
      <point x="177" y="46" type="line"/>
      <point x="177" y="0" type="line"/>
      <point x="450" y="0" type="line"/>
      <point x="450" y="46" type="line"/>
      <point x="371" y="56" type="line"/>
      <point x="371" y="121" type="line"/>
      <point x="530" y="121" type="line"/>
      <point x="530" y="170" type="line"/>
      <point x="371" y="170" type="line"/>
      <point x="371" y="244" type="line"/>
      <point x="530" y="244" type="line"/>
      <point x="530" y="293" type="line"/>
      <point x="397" y="293" type="line"/>
      <point x="507" y="492" type="line"/>
      <point x="561" y="502" type="line"/>
      <point x="561" y="550" type="line"/>
      <point x="371" y="550" type="line"/>
      <point x="371" y="502" type="line"/>
      <point x="430" y="493" type="line"/>
      <point x="352" y="337" type="line"/>
      <point x="332" y="296" type="line"/>
      <point x="313" y="337" type="line"/>
      <point x="236" y="493" type="line"/>
      <point x="289" y="502" type="line"/>
      <point x="289" y="550" type="line"/>
      <point x="47" y="550" type="line"/>
      <point x="47" y="502" type="line"/>
      <point x="98" y="492" type="line"/>
      <point x="221" y="293" type="line"/>
      <point x="93" y="293" type="line"/>
    </contour>
  </outline>
</glyph>
<glyph name="section" format="1">
  <advance width="507"/>
  <unicode hex="00A7"/>
  <outline>
    <contour>
      <point x="70" y="-39" type="line"/>
      <point x="93" y="-41"/>
      <point x="161" y="-73"/>
      <point x="247" y="-73" type="curve" smooth="yes"/>
      <point x="378" y="-73"/>
      <point x="432" y="-7"/>
      <point x="432" y="54" type="curve" smooth="yes"/>
      <point x="432" y="91"/>
      <point x="416" y="119"/>
      <point x="394" y="141" type="curve"/>
      <point x="424" y="168"/>
      <point x="447" y="204"/>
      <point x="447" y="258" type="curve" smooth="yes"/>
      <point x="447" y="356"/>
      <point x="327" y="401"/>
      <point x="278" y="423" type="curve"/>
      <point x="220" y="448"/>
      <point x="182" y="464"/>
      <point x="182" y="507" type="curve" smooth="yes"/>
      <point x="182" y="537"/>
      <point x="206" y="556"/>
      <point x="254" y="556" type="curve" smooth="yes"/>
      <point x="290" y="556"/>
      <point x="316" y="542"/>
      <point x="321" y="535" type="curve"/>
      <point x="343" y="469" type="line"/>
      <point x="406" y="469" type="line"/>
      <point x="410" y="582" type="line"/>
      <point x="387" y="586"/>
      <point x="329" y="609"/>
      <point x="261" y="609" type="curve" smooth="yes"/>
      <point x="150" y="609"/>
      <point x="82" y="559"/>
      <point x="82" y="487" type="curve" smooth="yes"/>
      <point x="82" y="449"/>
      <point x="97" y="420"/>
      <point x="120" y="397" type="curve"/>
      <point x="85" y="370"/>
      <point x="64" y="339"/>
      <point x="64" y="298" type="curve" smooth="yes"/>
      <point x="64" y="211"/>
      <point x="120" y="156"/>
      <point x="224" y="113" type="curve"/>
      <point x="290" y="87"/>
      <point x="332" y="71"/>
      <point x="332" y="30" type="curve" smooth="yes"/>
      <point x="332" y="-1"/>
      <point x="305" y="-23"/>
      <point x="250" y="-23" type="curve" smooth="yes"/>
      <point x="211" y="-23"/>
      <point x="173" y="-7"/>
      <point x="163" y="8" type="curve"/>
      <point x="147" y="83" type="line"/>
      <point x="77" y="83" type="line"/>
    </contour>
    <contour>
      <point x="276" y="210" type="curve" smooth="yes"/>
      <point x="198" y="244"/>
      <point x="140" y="275"/>
      <point x="140" y="324" type="curve" smooth="yes"/>
      <point x="140" y="341"/>
      <point x="144" y="356"/>
      <point x="156" y="368" type="curve"/>
      <point x="183" y="350"/>
      <point x="213" y="337"/>
      <point x="238" y="325" type="curve" smooth="yes"/>
      <point x="314" y="291"/>
      <point x="364" y="265"/>
      <point x="364" y="215" type="curve" smooth="yes"/>
      <point x="364" y="199"/>
      <point x="360" y="185"/>
      <point x="352" y="173" type="curve"/>
      <point x="327" y="189"/>
      <point x="299" y="200"/>
    </contour>
  </outline>
</glyph>
<glyph name="dieresis" format="1">
  <advance width="370"/>
  <unicode hex="00A8"/>
  <outline>
    <contour>
      <point x="87" y="483" type="curve"/>
      <point x="135" y="483"/>
      <point x="156" y="513"/>
      <point x="156" y="552" type="curve" smooth="yes"/>
      <point x="156" y="583"/>
      <point x="137" y="610"/>
      <point x="97" y="610" type="curve"/>
      <point x="53" y="610"/>
      <point x="33" y="580"/>
      <point x="33" y="541" type="curve" smooth="yes"/>
      <point x="33" y="510"/>
      <point x="54" y="483"/>
    </contour>
    <contour>
      <point x="269" y="483" type="curve"/>
      <point x="317" y="483"/>
      <point x="338" y="513"/>
      <point x="338" y="552" type="curve" smooth="yes"/>
      <point x="338" y="583"/>
      <point x="319" y="610"/>
      <point x="279" y="610" type="curve"/>
      <point x="236" y="610"/>
      <point x="215" y="580"/>
      <point x="215" y="541" type="curve" smooth="yes"/>
      <point x="215" y="513"/>
      <point x="236" y="483"/>
    </contour>
  </outline>
</glyph>
<glyph name="copyright" format="1">
  <advance width="770"/>
  <unicode hex="00A9"/>
  <outline>
    <contour>
      <point x="71" y="362" type="curve" smooth="yes"/>
      <point x="71" y="186"/>
      <point x="211" y="47"/>
      <point x="386" y="47" type="curve" smooth="yes"/>
      <point x="561" y="47"/>
      <point x="699" y="186"/>
      <point x="699" y="362" type="curve" smooth="yes"/>
      <point x="699" y="538"/>
      <point x="561" y="677"/>
      <point x="386" y="677" type="curve" smooth="yes"/>
      <point x="211" y="677"/>
      <point x="71" y="538"/>
    </contour>
    <contour>
      <point x="128" y="362" type="curve" smooth="yes"/>
      <point x="128" y="507"/>
      <point x="239" y="628"/>
      <point x="386" y="628" type="curve" smooth="yes"/>
      <point x="531" y="628"/>
      <point x="642" y="509"/>
      <point x="642" y="362" type="curve" smooth="yes"/>
      <point x="642" y="216"/>
      <point x="531" y="96"/>
      <point x="386" y="96" type="curve" smooth="yes"/>
      <point x="240" y="96"/>
      <point x="128" y="216"/>
    </contour>
    <contour>
      <point x="388" y="185" type="curve" smooth="yes"/>
      <point x="441" y="185"/>
      <point x="487" y="215"/>
      <point x="507" y="241" type="curve"/>
      <point x="485" y="279" type="line"/>
      <point x="467" y="262"/>
      <point x="442" y="251"/>
      <point x="414" y="251" type="curve" smooth="yes"/>
      <point x="352" y="251"/>
      <point x="305" y="302"/>
      <point x="305" y="375" type="curve" smooth="yes"/>
      <point x="305" y="441"/>
      <point x="333" y="491"/>
      <point x="386" y="491" type="curve" smooth="yes"/>
      <point x="419" y="491"/>
      <point x="428" y="485"/>
      <point x="436" y="480" type="curve"/>
      <point x="453" y="431" type="line"/>
      <point x="502" y="431" type="line"/>
      <point x="504" y="522" type="line"/>
      <point x="490" y="536"/>
      <point x="442" y="544"/>
      <point x="410" y="544" type="curve" smooth="yes"/>
      <point x="304" y="544"/>
      <point x="224" y="463"/>
      <point x="224" y="361" type="curve" smooth="yes"/>
      <point x="224" y="259"/>
      <point x="281" y="185"/>
    </contour>
  </outline>
</glyph>
<glyph name="ordfeminine" format="1">
  <advance width="381"/>
  <unicode hex="00AA"/>
  <outline>
    <contour>
      <point x="139" y="242" type="curve" smooth="yes"/>
      <point x="185" y="242"/>
      <point x="218" y="265"/>
      <point x="239" y="287" type="curve"/>
      <point x="239" y="272" type="line" smooth="yes"/>
      <point x="239" y="244"/>
      <point x="260" y="242"/>
      <point x="287" y="242" type="curve" smooth="yes"/>
      <point x="316" y="242"/>
      <point x="351" y="249"/>
      <point x="369" y="253" type="curve"/>
      <point x="369" y="291" type="line"/>
      <point x="332" y="291" type="line"/>
      <point x="332" y="465" type="line" smooth="yes"/>
      <point x="332" y="556"/>
      <point x="278" y="587"/>
      <point x="192" y="587" type="curve" smooth="yes"/>
      <point x="144" y="587"/>
      <point x="73" y="564"/>
      <point x="44" y="547" type="curve"/>
      <point x="69" y="498" type="line"/>
      <point x="94" y="509"/>
      <point x="133" y="521"/>
      <point x="173" y="521" type="curve" smooth="yes"/>
      <point x="221" y="521"/>
      <point x="235" y="507"/>
      <point x="235" y="455" type="curve" smooth="yes"/>
      <point x="235" y="446" type="line"/>
      <point x="118" y="446"/>
      <point x="31" y="416"/>
      <point x="31" y="341" type="curve" smooth="yes"/>
      <point x="31" y="286"/>
      <point x="67" y="242"/>
    </contour>
    <contour>
      <point x="181" y="301" type="curve" smooth="yes"/>
      <point x="154" y="301"/>
      <point x="137" y="321"/>
      <point x="137" y="350" type="curve" smooth="yes"/>
      <point x="137" y="387"/>
      <point x="156" y="405"/>
      <point x="235" y="407" type="curve"/>
      <point x="235" y="324" type="line"/>
      <point x="234" y="324" type="line"/>
      <point x="227" y="312"/>
      <point x="201" y="301"/>
    </contour>
  </outline>
</glyph>
<glyph name="guillemotleft" format="1">
  <advance width="704"/>
  <unicode hex="00AB"/>
  <outline>
    <contour>
      <point x="358" y="191" type="line"/>
      <point x="602" y="31" type="line"/>
      <point x="635" y="84" type="line"/>
      <point x="486" y="221" type="line"/>
      <point x="635" y="361" type="line"/>
      <point x="602" y="414" type="line"/>
      <point x="358" y="250" type="line"/>
    </contour>
    <contour>
      <point x="79" y="191" type="line"/>
      <point x="323" y="31" type="line"/>
      <point x="356" y="84" type="line"/>
      <point x="207" y="221" type="line"/>
      <point x="356" y="361" type="line"/>
      <point x="323" y="414" type="line"/>
      <point x="79" y="250" type="line"/>
    </contour>
  </outline>
</glyph>
<glyph name="logicalnot" format="1">
  <advance width="510"/>
  <unicode hex="00AC"/>
  <outline>
    <contour>
      <point x="76" y="191" type="line"/>
      <point x="353" y="191" type="line"/>
      <point x="353" y="58" type="line"/>
      <point x="434" y="58" type="line"/>
      <point x="434" y="260" type="line"/>
      <point x="76" y="260" type="line"/>
    </contour>
  </outline>
</glyph>
<glyph name="registered" format="1">
  <advance width="770"/>
  <unicode hex="00AE"/>
  <outline>
    <contour>
      <point x="71" y="362" type="curve" smooth="yes"/>
      <point x="71" y="186"/>
      <point x="211" y="47"/>
      <point x="386" y="47" type="curve" smooth="yes"/>
      <point x="561" y="47"/>
      <point x="699" y="186"/>
      <point x="699" y="362" type="curve" smooth="yes"/>
      <point x="699" y="538"/>
      <point x="561" y="677"/>
      <point x="386" y="677" type="curve" smooth="yes"/>
      <point x="211" y="677"/>
      <point x="71" y="538"/>
    </contour>
    <contour>
      <point x="128" y="362" type="curve" smooth="yes"/>
      <point x="128" y="507"/>
      <point x="239" y="628"/>
      <point x="386" y="628" type="curve" smooth="yes"/>
      <point x="531" y="628"/>
      <point x="642" y="509"/>
      <point x="642" y="362" type="curve" smooth="yes"/>
      <point x="642" y="216"/>
      <point x="531" y="96"/>
      <point x="386" y="96" type="curve" smooth="yes"/>
      <point x="240" y="96"/>
      <point x="128" y="216"/>
    </contour>
    <contour>
      <point x="239" y="187" type="line"/>
      <point x="381" y="187" type="line"/>
      <point x="381" y="224" type="line"/>
      <point x="350" y="231" type="line"/>
      <point x="350" y="324" type="line"/>
      <point x="391" y="324" type="line"/>
      <point x="447" y="302"/>
      <point x="425" y="187"/>
      <point x="473" y="187" type="curve" smooth="yes"/>
      <point x="548" y="187" type="line"/>
      <point x="548" y="227" type="line"/>
      <point x="504" y="230"/>
      <point x="527" y="313"/>
      <point x="457" y="343" type="curve"/>
      <point x="509" y="355"/>
      <point x="528" y="396"/>
      <point x="528" y="444" type="curve" smooth="yes"/>
      <point x="528" y="499"/>
      <point x="486" y="538"/>
      <point x="392" y="538" type="curve"/>
      <point x="342" y="537"/>
      <point x="334" y="535"/>
      <point x="305" y="536" type="curve"/>
      <point x="239" y="536" type="line"/>
      <point x="239" y="496" type="line"/>
      <point x="270" y="487" type="line"/>
      <point x="270" y="233" type="line"/>
      <point x="239" y="224" type="line"/>
    </contour>
    <contour>
      <point x="350" y="373" type="curve"/>
      <point x="350" y="490" type="line"/>
      <point x="363" y="494"/>
      <point x="370" y="494"/>
      <point x="382" y="494" type="curve" smooth="yes"/>
      <point x="424" y="494"/>
      <point x="441" y="477"/>
      <point x="441" y="432" type="curve" smooth="yes"/>
      <point x="441" y="399"/>
      <point x="419" y="370"/>
      <point x="389" y="370" type="curve" smooth="yes"/>
      <point x="373" y="370"/>
      <point x="362" y="370"/>
    </contour>
  </outline>
</glyph>
<glyph name="macron" format="1">
  <advance width="247"/>
  <unicode hex="00AF"/>
  <outline>
    <contour>
      <point x="11" y="513" type="line"/>
      <point x="235" y="513" type="line"/>
      <point x="235" y="584" type="line"/>
      <point x="11" y="584" type="line"/>
    </contour>
  </outline>
</glyph>
<glyph name="degree" format="1">
  <advance width="370"/>
  <unicode hex="00B0"/>
  <outline>
    <contour>
      <point x="184" y="336" type="curve" smooth="yes"/>
      <point x="259" y="336"/>
      <point x="318" y="392"/>
      <point x="318" y="467" type="curve" smooth="yes"/>
      <point x="318" y="539"/>
      <point x="262" y="599"/>
      <point x="184" y="599" type="curve" smooth="yes"/>
      <point x="113" y="599"/>
      <point x="52" y="543"/>
      <point x="52" y="467" type="curve" smooth="yes"/>
      <point x="52" y="396"/>
      <point x="113" y="336"/>
    </contour>
    <contour>
      <point x="185" y="401" type="curve" smooth="yes"/>
      <point x="151" y="401"/>
      <point x="124" y="433"/>
      <point x="124" y="467" type="curve" smooth="yes"/>
      <point x="124" y="505"/>
      <point x="148" y="534"/>
      <point x="184" y="534" type="curve" smooth="yes"/>
      <point x="219" y="534"/>
      <point x="247" y="503"/>
      <point x="247" y="467" type="curve" smooth="yes"/>
      <point x="247" y="430"/>
      <point x="222" y="401"/>
    </contour>
  </outline>
</glyph>
<glyph name="plusminus" format="1">
  <advance width="490"/>
  <unicode hex="00B1"/>
  <outline>
    <contour>
      <point x="75" y="224" type="line"/>
      <point x="142" y="224" type="line"/>
      <point x="208" y="227" type="line"/>
      <point x="206" y="172" type="line"/>
      <point x="206" y="96" type="line"/>
      <point x="284" y="96" type="line"/>
      <point x="284" y="172" type="line"/>
      <point x="280" y="227" type="line"/>
      <point x="336" y="224" type="line"/>
      <point x="415" y="224" type="line"/>
      <point x="415" y="300" type="line"/>
      <point x="336" y="300" type="line"/>
      <point x="280" y="296" type="line"/>
      <point x="284" y="351" type="line"/>
      <point x="284" y="433" type="line"/>
      <point x="206" y="433" type="line"/>
      <point x="206" y="351" type="line"/>
      <point x="208" y="296" type="line"/>
      <point x="142" y="300" type="line"/>
      <point x="75" y="300" type="line"/>
    </contour>
    <contour>
      <point x="79" y="0" type="line"/>
      <point x="410" y="0" type="line"/>
      <point x="410" y="73" type="line"/>
      <point x="79" y="73" type="line"/>
    </contour>
  </outline>
</glyph>
<glyph name="twosuperior" format="1">
  <advance width="381"/>
  <unicode hex="00B2"/>
  <outline>
    <contour>
      <point x="52" y="196" type="line"/>
      <point x="336" y="196" type="line"/>
      <point x="355" y="304" type="line"/>
      <point x="307" y="313" type="line"/>
      <point x="278" y="264" type="line"/>
      <point x="119" y="248" type="line"/>
      <point x="218" y="301"/>
      <point x="318" y="391"/>
      <point x="318" y="473" type="curve" smooth="yes"/>
      <point x="318" y="536"/>
      <point x="268" y="581"/>
      <point x="185" y="581" type="curve" smooth="yes"/>
      <point x="105" y="581"/>
      <point x="55" y="540"/>
      <point x="35" y="518" type="curve"/>
      <point x="65" y="480" type="line"/>
      <point x="81" y="495"/>
      <point x="114" y="517"/>
      <point x="159" y="517" type="curve" smooth="yes"/>
      <point x="196" y="517"/>
      <point x="219" y="494"/>
      <point x="219" y="460" type="curve" smooth="yes"/>
      <point x="219" y="375"/>
      <point x="104" y="282"/>
      <point x="34" y="243" type="curve"/>
    </contour>
  </outline>
</glyph>
<glyph name="threesuperior" format="1">
  <advance width="361"/>
  <unicode hex="00B3"/>
  <outline>
    <contour>
      <point x="43" y="213" type="line"/>
      <point x="67" y="201"/>
      <point x="117" y="191"/>
      <point x="156" y="191" type="curve" smooth="yes"/>
      <point x="276" y="191"/>
      <point x="335" y="245"/>
      <point x="335" y="313" type="curve" smooth="yes"/>
      <point x="335" y="363"/>
      <point x="290" y="401"/>
      <point x="219" y="397" type="curve"/>
      <point x="275" y="418"/>
      <point x="302" y="448"/>
      <point x="302" y="493" type="curve" smooth="yes"/>
      <point x="302" y="545"/>
      <point x="253" y="581"/>
      <point x="172" y="581" type="curve" smooth="yes"/>
      <point x="113" y="581"/>
      <point x="55" y="556"/>
      <point x="33" y="536" type="curve"/>
      <point x="60" y="494" type="line"/>
      <point x="79" y="509"/>
      <point x="119" y="521"/>
      <point x="147" y="521" type="curve" smooth="yes"/>
      <point x="187" y="521"/>
      <point x="204" y="507"/>
      <point x="204" y="478" type="curve" smooth="yes"/>
      <point x="204" y="445"/>
      <point x="179" y="427"/>
      <point x="147" y="416" type="curve"/>
      <point x="130" y="408"/>
      <point x="110" y="402"/>
      <point x="97" y="400" type="curve"/>
      <point x="111" y="358" type="line"/>
      <point x="153" y="370" type="line"/>
      <point x="206" y="370"/>
      <point x="228" y="342"/>
      <point x="228" y="316" type="curve" smooth="yes"/>
      <point x="228" y="270"/>
      <point x="193" y="249"/>
      <point x="127" y="249" type="curve" smooth="yes"/>
      <point x="105" y="249"/>
      <point x="64" y="255"/>
      <point x="43" y="264" type="curve"/>
    </contour>
  </outline>
</glyph>
<glyph name="acute" format="1">
  <advance width="247"/>
  <unicode hex="00B4"/>
  <outline>
    <contour>
      <point x="101" y="473" type="line"/>
      <point x="101" y="473" type="line"/>
      <point x="141" y="487"/>
      <point x="232" y="559"/>
      <point x="257" y="601" type="curve"/>
      <point x="187" y="664" type="line"/>
      <point x="186" y="664" type="line"/>
      <point x="57" y="509" type="line"/>
    </contour>
  </outline>
</glyph>
<glyph name="uni00B5" format="1">
  <advance width="506"/>
  <unicode hex="00B5"/>
  <outline>
    <contour>
      <point x="73" y="-135" type="line"/>
      <point x="182" y="-135" type="line"/>
      <point x="182" y="17" type="line"/>
      <point x="199" y="2"/>
      <point x="224" y="-7"/>
      <point x="256" y="-7" type="curve" smooth="yes"/>
      <point x="296" y="-7"/>
      <point x="330" y="19"/>
      <point x="343" y="51" type="curve"/>
      <point x="343" y="33" type="line" smooth="yes"/>
      <point x="343" y="8"/>
      <point x="356" y="-10"/>
      <point x="390" y="-10" type="curve" smooth="yes"/>
      <point x="424" y="-10"/>
      <point x="458" y="-3"/>
      <point x="475" y="4" type="curve"/>
      <point x="475" y="51" type="line"/>
      <point x="436" y="51" type="line"/>
      <point x="436" y="410" type="line"/>
      <point x="421" y="420" type="line"/>
      <point x="277" y="410" type="line"/>
      <point x="277" y="369" type="line"/>
      <point x="319" y="353" type="line"/>
      <point x="319" y="96" type="line"/>
      <point x="312" y="79"/>
      <point x="293" y="60"/>
      <point x="256" y="60" type="curve" smooth="yes"/>
      <point x="214" y="60"/>
      <point x="190" y="99"/>
      <point x="190" y="132" type="curve" smooth="yes"/>
      <point x="190" y="410" type="line"/>
      <point x="173" y="420" type="line"/>
      <point x="35" y="410" type="line"/>
      <point x="35" y="368" type="line"/>
      <point x="73" y="353" type="line"/>
    </contour>
  </outline>
</glyph>
<glyph name="paragraph" format="1">
  <advance width="592"/>
  <unicode hex="00B6"/>
  <outline>
    <contour>
      <point x="126" y="0" type="line"/>
      <point x="295" y="0" type="line"/>
      <point x="295" y="557" type="line"/>
      <point x="298" y="558"/>
      <point x="305" y="559"/>
      <point x="311" y="559" type="curve" smooth="yes"/>
      <point x="337" y="559"/>
      <point x="366" y="556"/>
      <point x="382" y="553" type="curve"/>
      <point x="382" y="0" type="line"/>
      <point x="526" y="0" type="line"/>
      <point x="526" y="47" type="line"/>
      <point x="479" y="56" type="line"/>
      <point x="479" y="554" type="line"/>
      <point x="535" y="562" type="line"/>
      <point x="535" y="612" type="line"/>
      <point x="473" y="612" type="line"/>
      <point x="344" y="612"/>
      <point x="344" y="619"/>
      <point x="243" y="619" type="curve" smooth="yes"/>
      <point x="114" y="619"/>
      <point x="42" y="547"/>
      <point x="42" y="452" type="curve" smooth="yes"/>
      <point x="42" y="347"/>
      <point x="93" y="281"/>
      <point x="199" y="281" type="curve"/>
      <point x="199" y="56" type="line"/>
      <point x="126" y="47" type="line"/>
    </contour>
  </outline>
</glyph>
<glyph name="periodcentered" format="1">
  <advance width="261"/>
  <unicode hex="00B7"/>
  <outline>
    <contour>
      <point x="61" y="254" type="curve" smooth="yes"/>
      <point x="61" y="216"/>
      <point x="90" y="190"/>
      <point x="130" y="190" type="curve" smooth="yes"/>
      <point x="168" y="190"/>
      <point x="199" y="214"/>
      <point x="199" y="252" type="curve" smooth="yes"/>
      <point x="199" y="288"/>
      <point x="173" y="317"/>
      <point x="130" y="317" type="curve" smooth="yes"/>
      <point x="90" y="317"/>
      <point x="61" y="291"/>
    </contour>
  </outline>
</glyph>
<glyph name="cedilla" format="1">
  <advance width="222"/>
  <unicode hex="00B8"/>
  <outline>
    <contour>
      <point x="72" y="2" type="line"/>
      <point x="79" y="-8"/>
      <point x="93" y="-39"/>
      <point x="93" y="-63" type="curve" smooth="yes"/>
      <point x="93" y="-109"/>
      <point x="77" y="-113"/>
      <point x="44" y="-113" type="curve"/>
      <point x="39" y="-113"/>
      <point x="24" y="-112"/>
      <point x="15" y="-109" type="curve"/>
      <point x="14" y="-178" type="line"/>
      <point x="27" y="-184"/>
      <point x="50" y="-188"/>
      <point x="66" y="-188" type="curve" smooth="yes"/>
      <point x="133" y="-188"/>
      <point x="171" y="-169"/>
      <point x="174" y="-107" type="curve" smooth="yes"/>
      <point x="177" y="-58"/>
      <point x="139" y="-12"/>
      <point x="124" y="2" type="curve"/>
      <point x="108" y="5" type="line"/>
    </contour>
  </outline>
</glyph>
<glyph name="onesuperior" format="1">
  <advance width="361"/>
  <unicode hex="00B9"/>
  <outline>
    <contour>
      <point x="48" y="197" type="line"/>
      <point x="321" y="197" type="line"/>
      <point x="321" y="246" type="line"/>
      <point x="235" y="254" type="line"/>
      <point x="235" y="571" type="line"/>
      <point x="177" y="581" type="line"/>
      <point x="176" y="581" type="line"/>
      <point x="133" y="547"/>
      <point x="80" y="530"/>
      <point x="40" y="518" type="curve"/>
      <point x="56" y="465" type="line"/>
      <point x="79" y="470"/>
      <point x="111" y="474"/>
      <point x="140" y="484" type="curve"/>
      <point x="140" y="254" type="line"/>
      <point x="48" y="246" type="line"/>
    </contour>
  </outline>
</glyph>
<glyph name="ordmasculine" format="1">
  <advance width="393"/>
  <unicode hex="00BA"/>
  <outline>
    <contour>
      <point x="197" y="244" type="curve" smooth="yes"/>
      <point x="277" y="244"/>
      <point x="365" y="293"/>
      <point x="366" y="416" type="curve" smooth="yes"/>
      <point x="367" y="526"/>
      <point x="307" y="587"/>
      <point x="201" y="587" type="curve" smooth="yes"/>
      <point x="117" y="587"/>
      <point x="29" y="537"/>
      <point x="27" y="419" type="curve" smooth="yes"/>
      <point x="26" y="299"/>
      <point x="99" y="243"/>
    </contour>
    <contour>
      <point x="196" y="287" type="curve" smooth="yes"/>
      <point x="163" y="287"/>
      <point x="139" y="336"/>
      <point x="139" y="421" type="curve" smooth="yes"/>
      <point x="139" y="509"/>
      <point x="157" y="542"/>
      <point x="197" y="543" type="curve" smooth="yes"/>
      <point x="236" y="544"/>
      <point x="255" y="494"/>
      <point x="255" y="410" type="curve" smooth="yes"/>
      <point x="255" y="304"/>
      <point x="239" y="288"/>
    </contour>
  </outline>
</glyph>
<glyph name="guillemotright" format="1">
  <advance width="702"/>
  <unicode hex="00BB"/>
  <outline>
    <contour>
      <point x="624" y="191" type="line"/>
      <point x="380" y="31" type="line"/>
      <point x="347" y="84" type="line"/>
      <point x="496" y="221" type="line"/>
      <point x="347" y="361" type="line"/>
      <point x="380" y="414" type="line"/>
      <point x="624" y="250" type="line"/>
    </contour>
    <contour>
      <point x="351" y="191" type="line"/>
      <point x="107" y="31" type="line"/>
      <point x="74" y="84" type="line"/>
      <point x="223" y="221" type="line"/>
      <point x="74" y="361" type="line"/>
      <point x="107" y="414" type="line"/>
      <point x="351" y="250" type="line"/>
    </contour>
  </outline>
</glyph>
<glyph name="onequarter" format="1">
  <advance width="890"/>
  <unicode hex="00BC"/>
  <outline>
    <contour>
      <point x="548" y="75" type="line"/>
      <point x="721" y="75" type="line"/>
      <point x="721" y="1" type="line"/>
      <point x="805" y="1" type="line"/>
      <point x="805" y="75" type="line"/>
      <point x="868" y="75" type="line"/>
      <point x="869" y="139" type="line"/>
      <point x="805" y="135" type="line"/>
      <point x="805" y="225" type="line"/>
      <point x="731" y="219" type="line"/>
      <point x="722" y="130" type="line"/>
      <point x="600" y="124" type="line"/>
      <point x="640" y="174" type="line"/>
      <point x="767" y="378" type="line"/>
      <point x="750" y="399" type="line"/>
      <point x="665" y="399" type="line"/>
      <point x="635" y="339"/>
      <point x="536" y="148"/>
      <point x="517" y="115" type="curve"/>
    </contour>
    <contour>
      <point x="48" y="197" type="line"/>
      <point x="321" y="197" type="line"/>
      <point x="321" y="246" type="line"/>
      <point x="235" y="254" type="line"/>
      <point x="235" y="571" type="line"/>
      <point x="177" y="581" type="line"/>
      <point x="176" y="581" type="line"/>
      <point x="133" y="547"/>
      <point x="80" y="530"/>
      <point x="40" y="518" type="curve"/>
      <point x="56" y="465" type="line"/>
      <point x="79" y="470"/>
      <point x="111" y="474"/>
      <point x="140" y="484" type="curve"/>
      <point x="140" y="254" type="line"/>
      <point x="48" y="246" type="line"/>
    </contour>
    <contour>
      <point x="337" y="-68" type="line"/>
      <point x="593" y="595" type="line"/>
      <point x="523" y="601" type="line"/>
      <point x="267" y="-62" type="line"/>
    </contour>
  </outline>
</glyph>
<glyph name="threequarters" format="1">
  <advance width="889"/>
  <unicode hex="00BE"/>
  <outline>
    <contour>
      <point x="547" y="75" type="line"/>
      <point x="720" y="75" type="line"/>
      <point x="721" y="1" type="line"/>
      <point x="804" y="1" type="line"/>
      <point x="804" y="75" type="line"/>
      <point x="867" y="75" type="line"/>
      <point x="867" y="139" type="line"/>
      <point x="804" y="135" type="line"/>
      <point x="804" y="225" type="line"/>
      <point x="730" y="219" type="line"/>
      <point x="721" y="130" type="line"/>
      <point x="599" y="124" type="line"/>
      <point x="639" y="174" type="line"/>
      <point x="766" y="378" type="line"/>
      <point x="749" y="399" type="line"/>
      <point x="664" y="399" type="line"/>
      <point x="634" y="339"/>
      <point x="535" y="148"/>
      <point x="516" y="115" type="curve"/>
    </contour>
    <contour>
      <point x="43" y="213" type="line"/>
      <point x="67" y="201"/>
      <point x="117" y="191"/>
      <point x="156" y="191" type="curve" smooth="yes"/>
      <point x="276" y="191"/>
      <point x="335" y="245"/>
      <point x="335" y="313" type="curve" smooth="yes"/>
      <point x="335" y="363"/>
      <point x="290" y="401"/>
      <point x="219" y="397" type="curve"/>
      <point x="275" y="418"/>
      <point x="302" y="448"/>
      <point x="302" y="493" type="curve" smooth="yes"/>
      <point x="302" y="545"/>
      <point x="253" y="581"/>
      <point x="172" y="581" type="curve" smooth="yes"/>
      <point x="113" y="581"/>
      <point x="55" y="556"/>
      <point x="33" y="536" type="curve"/>
      <point x="60" y="494" type="line"/>
      <point x="79" y="509"/>
      <point x="119" y="521"/>
      <point x="147" y="521" type="curve" smooth="yes"/>
      <point x="187" y="521"/>
      <point x="204" y="507"/>
      <point x="204" y="478" type="curve" smooth="yes"/>
      <point x="204" y="445"/>
      <point x="179" y="427"/>
      <point x="147" y="416" type="curve"/>
      <point x="130" y="408"/>
      <point x="110" y="402"/>
      <point x="97" y="400" type="curve"/>
      <point x="111" y="358" type="line"/>
      <point x="153" y="370" type="line"/>
      <point x="206" y="370"/>
      <point x="228" y="342"/>
      <point x="228" y="316" type="curve" smooth="yes"/>
      <point x="228" y="270"/>
      <point x="193" y="249"/>
      <point x="127" y="249" type="curve" smooth="yes"/>
      <point x="105" y="249"/>
      <point x="64" y="255"/>
      <point x="43" y="264" type="curve"/>
    </contour>
    <contour>
      <point x="337" y="-68" type="line"/>
      <point x="593" y="595" type="line"/>
      <point x="523" y="601" type="line"/>
      <point x="267" y="-62" type="line"/>
    </contour>
  </outline>
</glyph>
<glyph name="questiondown" format="1">
  <advance width="376"/>
  <unicode hex="00BF"/>
  <outline>
    <contour>
      <point x="200" y="351" type="curve"/>
      <point x="127" y="340" type="line"/>
      <point x="132" y="319"/>
      <point x="134" y="301"/>
      <point x="134" y="295" type="curve" smooth="yes"/>
      <point x="134" y="237"/>
      <point x="-40" y="246"/>
      <point x="-40" y="138" type="curve" smooth="yes"/>
      <point x="-40" y="78"/>
      <point x="13" y="-39"/>
      <point x="144" y="-39" type="curve" smooth="yes"/>
      <point x="186" y="-39"/>
      <point x="240" y="-27"/>
      <point x="276" y="-14" type="curve"/>
      <point x="234" y="102" type="line"/>
      <point x="193" y="81"/>
      <point x="138" y="66"/>
      <point x="107" y="66" type="curve" smooth="yes"/>
      <point x="71" y="66"/>
      <point x="49" y="86"/>
      <point x="49" y="105" type="curve" smooth="yes"/>
      <point x="49" y="160"/>
      <point x="233" y="149"/>
      <point x="233" y="243" type="curve" smooth="yes"/>
      <point x="233" y="270"/>
      <point x="218" y="318"/>
    </contour>
    <contour>
      <point x="221" y="456" type="curve" smooth="yes"/>
      <point x="221" y="494"/>
      <point x="192" y="520"/>
      <point x="152" y="520" type="curve" smooth="yes"/>
      <point x="114" y="520"/>
      <point x="83" y="496"/>
      <point x="83" y="458" type="curve" smooth="yes"/>
      <point x="83" y="422"/>
      <point x="109" y="393"/>
      <point x="152" y="393" type="curve" smooth="yes"/>
      <point x="192" y="393"/>
      <point x="221" y="419"/>
    </contour>
  </outline>
</glyph>
<glyph name="Agrave" format="1">
  <advance width="522"/>
  <unicode hex="00C0"/>
  <outline>
    <contour>
      <point x="285" y="584" type="curve"/>
      <point x="286" y="584" type="line"/>
      <point x="328" y="616" type="line"/>
      <point x="215" y="728" type="line"/>
      <point x="141" y="675" type="line"/>
      <point x="167" y="636"/>
      <point x="251" y="593"/>
    </contour>
    <contour>
      <point x="-14" y="0" type="line"/>
      <point x="182" y="0" type="line"/>
      <point x="182" y="48" type="line"/>
      <point x="124" y="56" type="line"/>
      <point x="149" y="147" type="line"/>
      <point x="331" y="147" type="line"/>
      <point x="357" y="58" type="line"/>
      <point x="305" y="48" type="line"/>
      <point x="305" y="0" type="line"/>
      <point x="534" y="0" type="line"/>
      <point x="534" y="48" type="line"/>
      <point x="492" y="58" type="line"/>
      <point x="324" y="553" type="line"/>
      <point x="197" y="553" type="line"/>
      <point x="29" y="58" type="line"/>
      <point x="-15" y="48" type="line"/>
    </contour>
    <contour>
      <point x="227" y="427" type="line"/>
      <point x="238" y="478" type="line"/>
      <point x="249" y="427" type="line"/>
      <point x="315" y="203" type="line"/>
      <point x="165" y="203" type="line"/>
    </contour>
  </outline>
</glyph>
<glyph name="Aacute" format="1">
  <advance width="522"/>
  <unicode hex="00C1"/>
  <outline>
    <contour>
      <point x="248" y="584" type="line"/>
      <point x="249" y="584" type="line"/>
      <point x="279" y="591"/>
      <point x="356" y="629"/>
      <point x="394" y="675" type="curve"/>
      <point x="320" y="728" type="line"/>
      <point x="319" y="728" type="line"/>
      <point x="206" y="616" type="line"/>
    </contour>
    <contour>
      <point x="-14" y="0" type="line"/>
      <point x="182" y="0" type="line"/>
      <point x="182" y="48" type="line"/>
      <point x="124" y="56" type="line"/>
      <point x="149" y="147" type="line"/>
      <point x="331" y="147" type="line"/>
      <point x="357" y="58" type="line"/>
      <point x="305" y="48" type="line"/>
      <point x="305" y="0" type="line"/>
      <point x="534" y="0" type="line"/>
      <point x="534" y="48" type="line"/>
      <point x="492" y="58" type="line"/>
      <point x="324" y="553" type="line"/>
      <point x="197" y="553" type="line"/>
      <point x="29" y="58" type="line"/>
      <point x="-15" y="48" type="line"/>
    </contour>
    <contour>
      <point x="227" y="427" type="line"/>
      <point x="238" y="478" type="line"/>
      <point x="249" y="427" type="line"/>
      <point x="315" y="203" type="line"/>
      <point x="165" y="203" type="line"/>
    </contour>
  </outline>
</glyph>
<glyph name="Acircumflex" format="1">
  <advance width="522"/>
  <unicode hex="00C2"/>
  <outline>
    <contour>
      <point x="156" y="587" type="line"/>
      <point x="262" y="656" type="line"/>
      <point x="367" y="587" type="line"/>
      <point x="407" y="619" type="line"/>
      <point x="299" y="726" type="line"/>
      <point x="225" y="726" type="line"/>
      <point x="117" y="619" type="line"/>
    </contour>
    <contour>
      <point x="-14" y="0" type="line"/>
      <point x="182" y="0" type="line"/>
      <point x="182" y="48" type="line"/>
      <point x="124" y="56" type="line"/>
      <point x="149" y="147" type="line"/>
      <point x="331" y="147" type="line"/>
      <point x="357" y="58" type="line"/>
      <point x="305" y="48" type="line"/>
      <point x="305" y="0" type="line"/>
      <point x="534" y="0" type="line"/>
      <point x="534" y="48" type="line"/>
      <point x="492" y="58" type="line"/>
      <point x="324" y="553" type="line"/>
      <point x="197" y="553" type="line"/>
      <point x="29" y="58" type="line"/>
      <point x="-15" y="48" type="line"/>
    </contour>
    <contour>
      <point x="227" y="427" type="line"/>
      <point x="238" y="478" type="line"/>
      <point x="249" y="427" type="line"/>
      <point x="315" y="203" type="line"/>
      <point x="165" y="203" type="line"/>
    </contour>
  </outline>
</glyph>
<glyph name="Atilde" format="1">
  <advance width="522"/>
  <unicode hex="00C3"/>
  <outline>
    <contour>
      <point x="326" y="598" type="curve" smooth="yes"/>
      <point x="381" y="598"/>
      <point x="413" y="638"/>
      <point x="431" y="676" type="curve"/>
      <point x="393" y="708" type="line"/>
      <point x="381" y="694"/>
      <point x="370" y="670"/>
      <point x="338" y="670" type="curve" smooth="yes"/>
      <point x="296" y="670"/>
      <point x="270" y="727"/>
      <point x="207" y="727" type="curve" smooth="yes"/>
      <point x="146" y="727"/>
      <point x="108" y="679"/>
      <point x="95" y="649" type="curve"/>
      <point x="133" y="617" type="line"/>
      <point x="143" y="628"/>
      <point x="159" y="655"/>
      <point x="189" y="655" type="curve" smooth="yes"/>
      <point x="235" y="655"/>
      <point x="264" y="598"/>
    </contour>
    <contour>
      <point x="-14" y="0" type="line"/>
      <point x="182" y="0" type="line"/>
      <point x="182" y="48" type="line"/>
      <point x="124" y="56" type="line"/>
      <point x="149" y="147" type="line"/>
      <point x="331" y="147" type="line"/>
      <point x="357" y="58" type="line"/>
      <point x="305" y="48" type="line"/>
      <point x="305" y="0" type="line"/>
      <point x="534" y="0" type="line"/>
      <point x="534" y="48" type="line"/>
      <point x="492" y="58" type="line"/>
      <point x="324" y="553" type="line"/>
      <point x="197" y="553" type="line"/>
      <point x="29" y="58" type="line"/>
      <point x="-15" y="48" type="line"/>
    </contour>
    <contour>
      <point x="227" y="427" type="line"/>
      <point x="238" y="478" type="line"/>
      <point x="249" y="427" type="line"/>
      <point x="315" y="203" type="line"/>
      <point x="165" y="203" type="line"/>
    </contour>
  </outline>
</glyph>
<glyph name="Adieresis" format="1">
  <advance width="522"/>
  <unicode hex="00C4"/>
  <outline>
    <contour>
      <point x="159" y="598" type="curve"/>
      <point x="207" y="598"/>
      <point x="229" y="627"/>
      <point x="229" y="665" type="curve" smooth="yes"/>
      <point x="229" y="695"/>
      <point x="210" y="722"/>
      <point x="170" y="722" type="curve"/>
      <point x="127" y="722"/>
      <point x="106" y="692"/>
      <point x="106" y="655" type="curve" smooth="yes"/>
      <point x="106" y="624"/>
      <point x="127" y="598"/>
    </contour>
    <contour>
      <point x="350" y="598" type="curve"/>
      <point x="399" y="598"/>
      <point x="420" y="627"/>
      <point x="420" y="665" type="curve" smooth="yes"/>
      <point x="420" y="695"/>
      <point x="401" y="722"/>
      <point x="361" y="722" type="curve"/>
      <point x="317" y="722"/>
      <point x="297" y="692"/>
      <point x="297" y="655" type="curve" smooth="yes"/>
      <point x="297" y="627"/>
      <point x="319" y="598"/>
    </contour>
    <contour>
      <point x="-14" y="0" type="line"/>
      <point x="182" y="0" type="line"/>
      <point x="182" y="48" type="line"/>
      <point x="124" y="56" type="line"/>
      <point x="149" y="147" type="line"/>
      <point x="331" y="147" type="line"/>
      <point x="357" y="58" type="line"/>
      <point x="305" y="48" type="line"/>
      <point x="305" y="0" type="line"/>
      <point x="534" y="0" type="line"/>
      <point x="534" y="48" type="line"/>
      <point x="492" y="58" type="line"/>
      <point x="324" y="553" type="line"/>
      <point x="197" y="553" type="line"/>
      <point x="29" y="58" type="line"/>
      <point x="-15" y="48" type="line"/>
    </contour>
    <contour>
      <point x="227" y="427" type="line"/>
      <point x="238" y="478" type="line"/>
      <point x="249" y="427" type="line"/>
      <point x="315" y="203" type="line"/>
      <point x="165" y="203" type="line"/>
    </contour>
  </outline>
</glyph>
<glyph name="Aring" format="1">
  <advance width="522"/>
  <unicode hex="00C5"/>
  <outline>
    <contour>
      <point x="261" y="537" type="curve"/>
      <point x="261" y="537" type="line"/>
      <point x="337" y="537"/>
      <point x="390" y="573"/>
      <point x="391" y="632" type="curve" smooth="yes"/>
      <point x="392" y="686"/>
      <point x="356" y="728"/>
      <point x="267" y="728" type="curve"/>
      <point x="193" y="728"/>
      <point x="135" y="694"/>
      <point x="134" y="634" type="curve" smooth="yes"/>
      <point x="133" y="582"/>
      <point x="165" y="537"/>
    </contour>
    <contour>
      <point x="263" y="580" type="curve"/>
      <point x="221" y="580"/>
      <point x="207" y="607"/>
      <point x="207" y="633" type="curve" smooth="yes"/>
      <point x="207" y="664"/>
      <point x="220" y="685"/>
      <point x="263" y="685" type="curve"/>
      <point x="305" y="685"/>
      <point x="318" y="659"/>
      <point x="318" y="630" type="curve" smooth="yes"/>
      <point x="318" y="599"/>
      <point x="307" y="580"/>
    </contour>
    <contour>
      <point x="-15" y="0" type="line"/>
      <point x="181" y="0" type="line"/>
      <point x="181" y="48" type="line"/>
      <point x="123" y="56" type="line"/>
      <point x="148" y="147" type="line"/>
      <point x="330" y="147" type="line"/>
      <point x="356" y="58" type="line"/>
      <point x="304" y="48" type="line"/>
      <point x="304" y="0" type="line"/>
      <point x="533" y="0" type="line"/>
      <point x="533" y="48" type="line"/>
      <point x="491" y="58" type="line"/>
      <point x="323" y="553" type="line"/>
      <point x="196" y="553" type="line"/>
      <point x="28" y="58" type="line"/>
      <point x="-16" y="48" type="line"/>
    </contour>
    <contour>
      <point x="226" y="427" type="line"/>
      <point x="237" y="478" type="line"/>
      <point x="248" y="427" type="line"/>
      <point x="314" y="203" type="line"/>
      <point x="164" y="203" type="line"/>
    </contour>
  </outline>
</glyph>
<glyph name="AE" format="1">
  <advance width="698"/>
  <unicode hex="00C6"/>
  <outline>
    <contour>
      <point x="237" y="0" type="line"/>
      <point x="670" y="0" type="line"/>
      <point x="696" y="136" type="line"/>
      <point x="629" y="156" type="line"/>
      <point x="581" y="62" type="line"/>
      <point x="416" y="53" type="line"/>
      <point x="416" y="252" type="line"/>
      <point x="509" y="250" type="line"/>
      <point x="521" y="187" type="line"/>
      <point x="574" y="187" type="line"/>
      <point x="574" y="370" type="line"/>
      <point x="521" y="370" type="line"/>
      <point x="508" y="311" type="line"/>
      <point x="416" y="309" type="line"/>
      <point x="416" y="501" type="line"/>
      <point x="563" y="495" type="line"/>
      <point x="588" y="422" type="line"/>
      <point x="647" y="422" type="line"/>
      <point x="637" y="550" type="line"/>
      <point x="81" y="550" type="line"/>
      <point x="81" y="499" type="line"/>
      <point x="173" y="490" type="line"/>
      <point x="-7" y="58" type="line"/>
      <point x="-60" y="47" type="line"/>
      <point x="-60" y="0" type="line"/>
      <point x="143" y="0" type="line"/>
      <point x="143" y="47" type="line"/>
      <point x="90" y="57" type="line"/>
      <point x="124" y="152" type="line"/>
      <point x="294" y="152" type="line"/>
      <point x="294" y="57" type="line"/>
      <point x="237" y="47" type="line"/>
    </contour>
    <contour>
      <point x="216" y="397" type="line"/>
      <point x="253" y="496" type="line"/>
      <point x="294" y="496" type="line"/>
      <point x="294" y="209" type="line"/>
      <point x="146" y="209" type="line"/>
    </contour>
  </outline>
</glyph>
<glyph name="Egrave" format="1">
  <advance width="487"/>
  <unicode hex="00C8"/>
  <outline>
    <contour>
      <point x="263" y="584" type="curve"/>
      <point x="264" y="584" type="line"/>
      <point x="307" y="616" type="line"/>
      <point x="193" y="728" type="line"/>
      <point x="119" y="675" type="line"/>
      <point x="145" y="636"/>
      <point x="229" y="593"/>
    </contour>
    <contour>
      <point x="28" y="0" type="line"/>
      <point x="458" y="0" type="line"/>
      <point x="477" y="138" type="line"/>
      <point x="415" y="156" type="line"/>
      <point x="370" y="62" type="line"/>
      <point x="207" y="53" type="line"/>
      <point x="207" y="253" type="line"/>
      <point x="299" y="250" type="line"/>
      <point x="312" y="187" type="line"/>
      <point x="365" y="187" type="line"/>
      <point x="365" y="371" type="line"/>
      <point x="312" y="371" type="line"/>
      <point x="299" y="311" type="line"/>
      <point x="207" y="309" type="line"/>
      <point x="207" y="501" type="line"/>
      <point x="353" y="494" type="line"/>
      <point x="379" y="423" type="line"/>
      <point x="437" y="423" type="line"/>
      <point x="427" y="550" type="line"/>
      <point x="27" y="550" type="line"/>
      <point x="27" y="499" type="line"/>
      <point x="84" y="489" type="line"/>
      <point x="84" y="58" type="line"/>
      <point x="28" y="48" type="line"/>
    </contour>
  </outline>
</glyph>
<glyph name="Eacute" format="1">
  <advance width="487"/>
  <unicode hex="00C9"/>
  <outline>
    <contour>
      <point x="233" y="584" type="line"/>
      <point x="234" y="584" type="line"/>
      <point x="264" y="591"/>
      <point x="341" y="629"/>
      <point x="379" y="675" type="curve"/>
      <point x="305" y="728" type="line"/>
      <point x="304" y="728" type="line"/>
      <point x="191" y="616" type="line"/>
    </contour>
    <contour>
      <point x="28" y="0" type="line"/>
      <point x="458" y="0" type="line"/>
      <point x="477" y="138" type="line"/>
      <point x="415" y="156" type="line"/>
      <point x="370" y="62" type="line"/>
      <point x="207" y="53" type="line"/>
      <point x="207" y="253" type="line"/>
      <point x="299" y="250" type="line"/>
      <point x="312" y="187" type="line"/>
      <point x="365" y="187" type="line"/>
      <point x="365" y="371" type="line"/>
      <point x="312" y="371" type="line"/>
      <point x="299" y="311" type="line"/>
      <point x="207" y="309" type="line"/>
      <point x="207" y="501" type="line"/>
      <point x="353" y="494" type="line"/>
      <point x="379" y="423" type="line"/>
      <point x="437" y="423" type="line"/>
      <point x="427" y="550" type="line"/>
      <point x="27" y="550" type="line"/>
      <point x="27" y="499" type="line"/>
      <point x="84" y="489" type="line"/>
      <point x="84" y="58" type="line"/>
      <point x="28" y="48" type="line"/>
    </contour>
  </outline>
</glyph>
<glyph name="Edieresis" format="1">
  <advance width="487"/>
  <unicode hex="00CB"/>
  <outline>
    <contour>
      <point x="150" y="598" type="curve"/>
      <point x="197" y="598"/>
      <point x="219" y="627"/>
      <point x="219" y="665" type="curve" smooth="yes"/>
      <point x="219" y="695"/>
      <point x="200" y="722"/>
      <point x="160" y="722" type="curve"/>
      <point x="116" y="722"/>
      <point x="96" y="692"/>
      <point x="96" y="655" type="curve" smooth="yes"/>
      <point x="96" y="624"/>
      <point x="117" y="598"/>
    </contour>
    <contour>
      <point x="340" y="598" type="curve"/>
      <point x="388" y="598"/>
      <point x="410" y="627"/>
      <point x="410" y="665" type="curve" smooth="yes"/>
      <point x="410" y="695"/>
      <point x="391" y="722"/>
      <point x="350" y="722" type="curve"/>
      <point x="307" y="722"/>
      <point x="287" y="692"/>
      <point x="287" y="655" type="curve" smooth="yes"/>
      <point x="287" y="627"/>
      <point x="308" y="598"/>
    </contour>
    <contour>
      <point x="28" y="0" type="line"/>
      <point x="458" y="0" type="line"/>
      <point x="477" y="138" type="line"/>
      <point x="415" y="156" type="line"/>
      <point x="370" y="62" type="line"/>
      <point x="207" y="53" type="line"/>
      <point x="207" y="253" type="line"/>
      <point x="299" y="250" type="line"/>
      <point x="312" y="187" type="line"/>
      <point x="365" y="187" type="line"/>
      <point x="365" y="371" type="line"/>
      <point x="312" y="371" type="line"/>
      <point x="299" y="311" type="line"/>
      <point x="207" y="309" type="line"/>
      <point x="207" y="501" type="line"/>
      <point x="353" y="494" type="line"/>
      <point x="379" y="423" type="line"/>
      <point x="437" y="423" type="line"/>
      <point x="427" y="550" type="line"/>
      <point x="27" y="550" type="line"/>
      <point x="27" y="499" type="line"/>
      <point x="84" y="489" type="line"/>
      <point x="84" y="58" type="line"/>
      <point x="28" y="48" type="line"/>
    </contour>
  </outline>
</glyph>
<glyph name="Igrave" format="1">
  <advance width="307"/>
  <unicode hex="00CC"/>
  <outline>
    <contour>
      <point x="163" y="584" type="curve"/>
      <point x="164" y="584" type="line"/>
      <point x="206" y="616" type="line"/>
      <point x="93" y="728" type="line"/>
      <point x="19" y="675" type="line"/>
      <point x="44" y="636"/>
      <point x="129" y="593"/>
    </contour>
    <contour>
      <point x="33" y="0" type="line"/>
      <point x="277" y="0" type="line"/>
      <point x="277" y="47" type="line"/>
      <point x="216" y="58" type="line"/>
      <point x="216" y="490" type="line"/>
      <point x="276" y="499" type="line"/>
      <point x="276" y="550" type="line"/>
      <point x="32" y="550" type="line"/>
      <point x="32" y="499" type="line"/>
      <point x="93" y="489" type="line"/>
      <point x="93" y="58" type="line"/>
      <point x="33" y="48" type="line"/>
    </contour>
  </outline>
</glyph>
<glyph name="Iacute" format="1">
  <advance width="307"/>
  <unicode hex="00CD"/>
  <outline>
    <contour>
      <point x="144" y="584" type="line"/>
      <point x="145" y="584" type="line"/>
      <point x="175" y="591"/>
      <point x="252" y="629"/>
      <point x="290" y="675" type="curve"/>
      <point x="217" y="728" type="line"/>
      <point x="216" y="728" type="line"/>
      <point x="102" y="616" type="line"/>
    </contour>
    <contour>
      <point x="33" y="0" type="line"/>
      <point x="277" y="0" type="line"/>
      <point x="277" y="47" type="line"/>
      <point x="216" y="58" type="line"/>
      <point x="216" y="490" type="line"/>
      <point x="276" y="499" type="line"/>
      <point x="276" y="550" type="line"/>
      <point x="32" y="550" type="line"/>
      <point x="32" y="499" type="line"/>
      <point x="93" y="489" type="line"/>
      <point x="93" y="58" type="line"/>
      <point x="33" y="48" type="line"/>
    </contour>
  </outline>
</glyph>
<glyph name="Icircumflex" format="1">
  <advance width="307"/>
  <unicode hex="00CE"/>
  <outline>
    <contour>
      <point x="47" y="587" type="line"/>
      <point x="153" y="656" type="line"/>
      <point x="258" y="587" type="line"/>
      <point x="298" y="619" type="line"/>
      <point x="190" y="726" type="line"/>
      <point x="116" y="726" type="line"/>
      <point x="8" y="619" type="line"/>
    </contour>
    <contour>
      <point x="33" y="0" type="line"/>
      <point x="277" y="0" type="line"/>
      <point x="277" y="47" type="line"/>
      <point x="216" y="58" type="line"/>
      <point x="216" y="490" type="line"/>
      <point x="276" y="499" type="line"/>
      <point x="276" y="550" type="line"/>
      <point x="32" y="550" type="line"/>
      <point x="32" y="499" type="line"/>
      <point x="93" y="489" type="line"/>
      <point x="93" y="58" type="line"/>
      <point x="33" y="48" type="line"/>
    </contour>
  </outline>
</glyph>
<glyph name="Idieresis" format="1">
  <advance width="307"/>
  <unicode hex="00CF"/>
  <outline>
    <contour>
      <point x="50" y="598" type="curve"/>
      <point x="99" y="598"/>
      <point x="120" y="627"/>
      <point x="120" y="665" type="curve" smooth="yes"/>
      <point x="120" y="695"/>
      <point x="101" y="722"/>
      <point x="61" y="722" type="curve"/>
      <point x="17" y="722"/>
      <point x="-3" y="692"/>
      <point x="-3" y="655" type="curve" smooth="yes"/>
      <point x="-3" y="624"/>
      <point x="19" y="598"/>
    </contour>
    <contour>
      <point x="241" y="598" type="curve"/>
      <point x="290" y="598"/>
      <point x="310" y="627"/>
      <point x="310" y="665" type="curve" smooth="yes"/>
      <point x="310" y="695"/>
      <point x="293" y="722"/>
      <point x="252" y="722" type="curve"/>
      <point x="208" y="722"/>
      <point x="187" y="692"/>
      <point x="187" y="655" type="curve" smooth="yes"/>
      <point x="187" y="627"/>
      <point x="210" y="598"/>
    </contour>
    <contour>
      <point x="33" y="0" type="line"/>
      <point x="277" y="0" type="line"/>
      <point x="277" y="47" type="line"/>
      <point x="216" y="58" type="line"/>
      <point x="216" y="490" type="line"/>
      <point x="276" y="499" type="line"/>
      <point x="276" y="550" type="line"/>
      <point x="32" y="550" type="line"/>
      <point x="32" y="499" type="line"/>
      <point x="93" y="489" type="line"/>
      <point x="93" y="58" type="line"/>
      <point x="33" y="48" type="line"/>
    </contour>
  </outline>
</glyph>
<glyph name="Ntilde" format="1">
  <advance width="596"/>
  <unicode hex="00D1"/>
  <outline>
    <contour>
      <point x="369" y="598" type="curve" smooth="yes"/>
      <point x="424" y="598"/>
      <point x="456" y="638"/>
      <point x="474" y="676" type="curve"/>
      <point x="436" y="708" type="line"/>
      <point x="424" y="694"/>
      <point x="414" y="670"/>
      <point x="381" y="670" type="curve" smooth="yes"/>
      <point x="339" y="670"/>
      <point x="313" y="727"/>
      <point x="250" y="727" type="curve" smooth="yes"/>
      <point x="189" y="727"/>
      <point x="152" y="679"/>
      <point x="138" y="649" type="curve"/>
      <point x="176" y="617" type="line"/>
      <point x="186" y="628"/>
      <point x="202" y="655"/>
      <point x="232" y="655" type="curve" smooth="yes"/>
      <point x="278" y="655"/>
      <point x="307" y="598"/>
    </contour>
    <contour>
      <point x="27" y="0" type="line"/>
      <point x="231" y="0" type="line"/>
      <point x="231" y="48" type="line"/>
      <point x="155" y="58" type="line"/>
      <point x="155" y="438" type="line"/>
      <point x="204" y="339" type="line"/>
      <point x="426" y="0" type="line"/>
      <point x="526" y="0" type="line"/>
      <point x="526" y="490" type="line"/>
      <point x="584" y="499" type="line"/>
      <point x="584" y="550" type="line"/>
      <point x="393" y="550" type="line"/>
      <point x="393" y="499" type="line"/>
      <point x="457" y="490" type="line"/>
      <point x="457" y="147" type="line"/>
      <point x="417" y="231" type="line"/>
      <point x="207" y="550" type="line"/>
      <point x="27" y="550" type="line"/>
      <point x="27" y="499" type="line"/>
      <point x="85" y="490" type="line"/>
      <point x="85" y="58" type="line"/>
      <point x="27" y="48" type="line"/>
    </contour>
  </outline>
</glyph>
<glyph name="Oacute" format="1">
  <advance width="540"/>
  <unicode hex="00D3"/>
  <outline>
    <contour>
      <point x="259" y="584" type="line"/>
      <point x="289" y="591"/>
      <point x="366" y="629"/>
      <point x="404" y="675" type="curve"/>
      <point x="330" y="728" type="line"/>
      <point x="216" y="616" type="line"/>
    </contour>
    <contour>
      <point x="268" y="-8" type="curve" smooth="yes"/>
      <point x="420" y="-7"/>
      <point x="522" y="110"/>
      <point x="522" y="284" type="curve" smooth="yes"/>
      <point x="522" y="450"/>
      <point x="448" y="557"/>
      <point x="276" y="557" type="curve" smooth="yes"/>
      <point x="123" y="558"/>
      <point x="21" y="447"/>
      <point x="21" y="273" type="curve" smooth="yes"/>
      <point x="21" y="104"/>
      <point x="96" y="-10"/>
    </contour>
    <contour>
      <point x="271" y="507" type="curve" smooth="yes"/>
      <point x="343" y="507"/>
      <point x="387" y="441"/>
      <point x="387" y="283" type="curve" smooth="yes"/>
      <point x="387" y="124"/>
      <point x="343" y="42"/>
      <point x="271" y="42" type="curve" smooth="yes"/>
      <point x="199" y="42"/>
      <point x="155" y="116"/>
      <point x="155" y="274" type="curve" smooth="yes"/>
      <point x="155" y="433"/>
      <point x="199" y="507"/>
    </contour>
  </outline>
</glyph>
<glyph name="Ocircumflex" format="1">
  <advance width="540"/>
  <unicode hex="00D4"/>
  <outline>
    <contour>
      <point x="167" y="587" type="line"/>
      <point x="273" y="656" type="line"/>
      <point x="377" y="587" type="line"/>
      <point x="417" y="619" type="line"/>
      <point x="309" y="726" type="line"/>
      <point x="236" y="726" type="line"/>
      <point x="127" y="619" type="line"/>
    </contour>
    <contour>
      <point x="268" y="-8" type="curve" smooth="yes"/>
      <point x="420" y="-7"/>
      <point x="522" y="110"/>
      <point x="522" y="284" type="curve" smooth="yes"/>
      <point x="522" y="450"/>
      <point x="448" y="557"/>
      <point x="276" y="557" type="curve" smooth="yes"/>
      <point x="123" y="558"/>
      <point x="21" y="447"/>
      <point x="21" y="273" type="curve" smooth="yes"/>
      <point x="21" y="104"/>
      <point x="96" y="-10"/>
    </contour>
    <contour>
      <point x="271" y="507" type="curve" smooth="yes"/>
      <point x="343" y="507"/>
      <point x="387" y="441"/>
      <point x="387" y="283" type="curve" smooth="yes"/>
      <point x="387" y="124"/>
      <point x="343" y="42"/>
      <point x="271" y="42" type="curve" smooth="yes"/>
      <point x="199" y="42"/>
      <point x="155" y="116"/>
      <point x="155" y="274" type="curve" smooth="yes"/>
      <point x="155" y="433"/>
      <point x="199" y="507"/>
    </contour>
  </outline>
</glyph>
<glyph name="Otilde" format="1">
  <advance width="540"/>
  <unicode hex="00D5"/>
  <outline>
    <contour>
      <point x="336" y="598" type="curve" smooth="yes"/>
      <point x="391" y="598"/>
      <point x="422" y="638"/>
      <point x="441" y="676" type="curve"/>
      <point x="403" y="708" type="line"/>
      <point x="392" y="694"/>
      <point x="381" y="670"/>
      <point x="348" y="670" type="curve" smooth="yes"/>
      <point x="306" y="670"/>
      <point x="280" y="727"/>
      <point x="217" y="727" type="curve" smooth="yes"/>
      <point x="156" y="727"/>
      <point x="119" y="679"/>
      <point x="105" y="649" type="curve"/>
      <point x="142" y="617" type="line"/>
      <point x="153" y="628"/>
      <point x="170" y="655"/>
      <point x="199" y="655" type="curve" smooth="yes"/>
      <point x="245" y="655"/>
      <point x="274" y="598"/>
    </contour>
    <contour>
      <point x="268" y="-8" type="curve" smooth="yes"/>
      <point x="420" y="-7"/>
      <point x="522" y="110"/>
      <point x="522" y="284" type="curve" smooth="yes"/>
      <point x="522" y="450"/>
      <point x="448" y="557"/>
      <point x="276" y="557" type="curve" smooth="yes"/>
      <point x="123" y="558"/>
      <point x="21" y="447"/>
      <point x="21" y="273" type="curve" smooth="yes"/>
      <point x="21" y="104"/>
      <point x="96" y="-10"/>
    </contour>
    <contour>
      <point x="271" y="507" type="curve" smooth="yes"/>
      <point x="343" y="507"/>
      <point x="387" y="441"/>
      <point x="387" y="283" type="curve" smooth="yes"/>
      <point x="387" y="124"/>
      <point x="343" y="42"/>
      <point x="271" y="42" type="curve" smooth="yes"/>
      <point x="199" y="42"/>
      <point x="155" y="116"/>
      <point x="155" y="274" type="curve" smooth="yes"/>
      <point x="155" y="433"/>
      <point x="199" y="507"/>
    </contour>
  </outline>
</glyph>
<glyph name="Odieresis" format="1">
  <advance width="540"/>
  <unicode hex="00D6"/>
  <outline>
    <contour>
      <point x="170" y="598" type="curve"/>
      <point x="218" y="598"/>
      <point x="239" y="627"/>
      <point x="239" y="665" type="curve" smooth="yes"/>
      <point x="239" y="695"/>
      <point x="221" y="722"/>
      <point x="181" y="722" type="curve"/>
      <point x="137" y="722"/>
      <point x="116" y="692"/>
      <point x="116" y="655" type="curve" smooth="yes"/>
      <point x="116" y="624"/>
      <point x="138" y="598"/>
    </contour>
    <contour>
      <point x="360" y="598" type="curve"/>
      <point x="409" y="598"/>
      <point x="430" y="627"/>
      <point x="430" y="665" type="curve" smooth="yes"/>
      <point x="430" y="695"/>
      <point x="412" y="722"/>
      <point x="371" y="722" type="curve"/>
      <point x="327" y="722"/>
      <point x="307" y="692"/>
      <point x="307" y="655" type="curve" smooth="yes"/>
      <point x="307" y="627"/>
      <point x="329" y="598"/>
    </contour>
    <contour>
      <point x="268" y="-8" type="curve" smooth="yes"/>
      <point x="420" y="-7"/>
      <point x="522" y="110"/>
      <point x="522" y="284" type="curve" smooth="yes"/>
      <point x="522" y="450"/>
      <point x="448" y="557"/>
      <point x="276" y="557" type="curve" smooth="yes"/>
      <point x="123" y="558"/>
      <point x="21" y="447"/>
      <point x="21" y="273" type="curve" smooth="yes"/>
      <point x="21" y="104"/>
      <point x="96" y="-10"/>
    </contour>
    <contour>
      <point x="271" y="507" type="curve" smooth="yes"/>
      <point x="343" y="507"/>
      <point x="387" y="441"/>
      <point x="387" y="283" type="curve" smooth="yes"/>
      <point x="387" y="124"/>
      <point x="343" y="42"/>
      <point x="271" y="42" type="curve" smooth="yes"/>
      <point x="199" y="42"/>
      <point x="155" y="116"/>
      <point x="155" y="274" type="curve" smooth="yes"/>
      <point x="155" y="433"/>
      <point x="199" y="507"/>
    </contour>
  </outline>
</glyph>
<glyph name="multiply" format="1">
  <advance width="456"/>
  <unicode hex="00D7"/>
  <outline>
    <contour>
      <point x="114" y="44" type="line"/>
      <point x="228" y="169" type="line"/>
      <point x="342" y="44" type="line"/>
      <point x="404" y="107" type="line"/>
      <point x="283" y="223" type="line"/>
      <point x="404" y="339" type="line"/>
      <point x="342" y="403" type="line"/>
      <point x="228" y="277" type="line"/>
      <point x="113" y="403" type="line"/>
      <point x="50" y="339" type="line"/>
      <point x="173" y="223" type="line"/>
      <point x="52" y="107" type="line"/>
    </contour>
  </outline>
</glyph>
<glyph name="Oslash" format="1">
  <advance width="540"/>
  <unicode hex="00D8"/>
  <outline>
    <contour>
      <point x="164" y="-87" type="line"/>
      <point x="198" y="-1" type="line"/>
      <point x="219" y="-6"/>
      <point x="241" y="-8"/>
      <point x="267" y="-8" type="curve"/>
      <point x="419" y="-7"/>
      <point x="521" y="110"/>
      <point x="521" y="284" type="curve" smooth="yes"/>
      <point x="521" y="404"/>
      <point x="481" y="493"/>
      <point x="395" y="533" type="curve"/>
      <point x="427" y="614" type="line"/>
      <point x="375" y="630" type="line"/>
      <point x="344" y="550" type="line"/>
      <point x="323" y="555"/>
      <point x="300" y="557"/>
      <point x="275" y="557" type="curve" smooth="yes"/>
      <point x="122" y="558"/>
      <point x="20" y="447"/>
      <point x="20" y="273" type="curve" smooth="yes"/>
      <point x="20" y="152"/>
      <point x="59" y="59"/>
      <point x="144" y="16" type="curve"/>
      <point x="109" y="-71" type="line"/>
    </contour>
    <contour>
      <point x="270" y="507" type="curve" smooth="yes"/>
      <point x="291" y="507"/>
      <point x="309" y="502"/>
      <point x="324" y="490" type="curve"/>
      <point x="188" y="93" type="line"/>
      <point x="167" y="130"/>
      <point x="154" y="190"/>
      <point x="154" y="274" type="curve" smooth="yes"/>
      <point x="154" y="433"/>
      <point x="198" y="507"/>
    </contour>
    <contour>
      <point x="386" y="283" type="curve" smooth="yes"/>
      <point x="386" y="124"/>
      <point x="342" y="42"/>
      <point x="270" y="42" type="curve" smooth="yes"/>
      <point x="250" y="42"/>
      <point x="233" y="47"/>
      <point x="218" y="59" type="curve"/>
      <point x="354" y="456" type="line"/>
      <point x="375" y="419"/>
      <point x="386" y="363"/>
    </contour>
  </outline>
</glyph>
<glyph name="Ugrave" format="1">
  <advance width="550"/>
  <unicode hex="00D9"/>
  <outline>
    <contour>
      <point x="310" y="584" type="curve"/>
      <point x="353" y="616" type="line"/>
      <point x="239" y="728" type="line"/>
      <point x="165" y="675" type="line"/>
      <point x="191" y="636"/>
      <point x="276" y="593"/>
    </contour>
    <contour>
      <point x="284" y="-6" type="curve" smooth="yes"/>
      <point x="404" y="-6"/>
      <point x="493" y="58"/>
      <point x="493" y="219" type="curve" smooth="yes"/>
      <point x="493" y="489" type="line"/>
      <point x="542" y="499" type="line"/>
      <point x="542" y="550" type="line"/>
      <point x="353" y="550" type="line"/>
      <point x="353" y="499" type="line"/>
      <point x="415" y="489" type="line"/>
      <point x="415" y="213" type="line" smooth="yes"/>
      <point x="415" y="111"/>
      <point x="381" y="46"/>
      <point x="301" y="46" type="curve" smooth="yes"/>
      <point x="224" y="46"/>
      <point x="185" y="99"/>
      <point x="185" y="216" type="curve" smooth="yes"/>
      <point x="185" y="489" type="line"/>
      <point x="246" y="499" type="line"/>
      <point x="246" y="550" type="line"/>
      <point x="11" y="550" type="line"/>
      <point x="11" y="499" type="line"/>
      <point x="58" y="489" type="line"/>
      <point x="58" y="226" type="line" smooth="yes"/>
      <point x="58" y="61"/>
      <point x="131" y="-6"/>
    </contour>
  </outline>
</glyph>
<glyph name="Ucircumflex" format="1">
  <advance width="550"/>
  <unicode hex="00DB"/>
  <outline>
    <contour>
      <point x="185" y="587" type="line"/>
      <point x="290" y="656" type="line"/>
      <point x="395" y="587" type="line"/>
      <point x="436" y="619" type="line"/>
      <point x="327" y="726" type="line"/>
      <point x="254" y="726" type="line"/>
      <point x="146" y="619" type="line"/>
    </contour>
    <contour>
      <point x="284" y="-6" type="curve" smooth="yes"/>
      <point x="404" y="-6"/>
      <point x="493" y="58"/>
      <point x="493" y="219" type="curve" smooth="yes"/>
      <point x="493" y="489" type="line"/>
      <point x="542" y="499" type="line"/>
      <point x="542" y="550" type="line"/>
      <point x="353" y="550" type="line"/>
      <point x="353" y="499" type="line"/>
      <point x="415" y="489" type="line"/>
      <point x="415" y="213" type="line" smooth="yes"/>
      <point x="415" y="111"/>
      <point x="381" y="46"/>
      <point x="301" y="46" type="curve" smooth="yes"/>
      <point x="224" y="46"/>
      <point x="185" y="99"/>
      <point x="185" y="216" type="curve" smooth="yes"/>
      <point x="185" y="489" type="line"/>
      <point x="246" y="499" type="line"/>
      <point x="246" y="550" type="line"/>
      <point x="11" y="550" type="line"/>
      <point x="11" y="499" type="line"/>
      <point x="58" y="489" type="line"/>
      <point x="58" y="226" type="line" smooth="yes"/>
      <point x="58" y="61"/>
      <point x="131" y="-6"/>
    </contour>
  </outline>
</glyph>
<glyph name="Udieresis" format="1">
  <advance width="550"/>
  <unicode hex="00DC"/>
  <outline>
    <contour>
      <point x="186" y="598" type="curve"/>
      <point x="234" y="598"/>
      <point x="256" y="627"/>
      <point x="256" y="665" type="curve" smooth="yes"/>
      <point x="256" y="695"/>
      <point x="237" y="722"/>
      <point x="197" y="722" type="curve"/>
      <point x="153" y="722"/>
      <point x="133" y="692"/>
      <point x="133" y="655" type="curve" smooth="yes"/>
      <point x="133" y="624"/>
      <point x="154" y="598"/>
    </contour>
    <contour>
      <point x="377" y="598" type="curve"/>
      <point x="425" y="598"/>
      <point x="447" y="627"/>
      <point x="447" y="665" type="curve" smooth="yes"/>
      <point x="447" y="695"/>
      <point x="428" y="722"/>
      <point x="387" y="722" type="curve"/>
      <point x="344" y="722"/>
      <point x="324" y="692"/>
      <point x="324" y="655" type="curve" smooth="yes"/>
      <point x="324" y="627"/>
      <point x="345" y="598"/>
    </contour>
    <contour>
      <point x="284" y="-6" type="curve" smooth="yes"/>
      <point x="404" y="-6"/>
      <point x="493" y="58"/>
      <point x="493" y="219" type="curve" smooth="yes"/>
      <point x="493" y="489" type="line"/>
      <point x="542" y="499" type="line"/>
      <point x="542" y="550" type="line"/>
      <point x="353" y="550" type="line"/>
      <point x="353" y="499" type="line"/>
      <point x="415" y="489" type="line"/>
      <point x="415" y="213" type="line" smooth="yes"/>
      <point x="415" y="111"/>
      <point x="381" y="46"/>
      <point x="301" y="46" type="curve" smooth="yes"/>
      <point x="224" y="46"/>
      <point x="185" y="99"/>
      <point x="185" y="216" type="curve" smooth="yes"/>
      <point x="185" y="489" type="line"/>
      <point x="246" y="499" type="line"/>
      <point x="246" y="550" type="line"/>
      <point x="11" y="550" type="line"/>
      <point x="11" y="499" type="line"/>
      <point x="58" y="489" type="line"/>
      <point x="58" y="226" type="line" smooth="yes"/>
      <point x="58" y="61"/>
      <point x="131" y="-6"/>
    </contour>
  </outline>
</glyph>
<glyph name="Yacute" format="1">
  <advance width="489"/>
  <unicode hex="00DD"/>
  <outline>
    <contour>
      <point x="236" y="584" type="line"/>
      <point x="266" y="591"/>
      <point x="343" y="629"/>
      <point x="381" y="675" type="curve"/>
      <point x="307" y="728" type="line"/>
      <point x="193" y="616" type="line"/>
    </contour>
    <contour>
      <point x="104" y="0" type="line"/>
      <point x="388" y="0" type="line"/>
      <point x="388" y="48" type="line"/>
      <point x="309" y="58" type="line"/>
      <point x="309" y="220" type="line"/>
      <point x="452" y="490" type="line"/>
      <point x="497" y="499" type="line"/>
      <point x="497" y="550" type="line"/>
      <point x="311" y="550" type="line"/>
      <point x="311" y="499" type="line"/>
      <point x="366" y="490" type="line"/>
      <point x="287" y="314" type="line"/>
      <point x="269" y="268" type="line"/>
      <point x="252" y="315" type="line"/>
      <point x="166" y="489" type="line"/>
      <point x="214" y="499" type="line"/>
      <point x="214" y="550" type="line"/>
      <point x="-17" y="550" type="line"/>
      <point x="-17" y="499" type="line"/>
      <point x="27" y="489" type="line"/>
      <point x="180" y="220" type="line"/>
      <point x="180" y="58" type="line"/>
      <point x="104" y="48" type="line"/>
    </contour>
  </outline>
</glyph>
<glyph name="Thorn" format="1">
  <advance width="494"/>
  <unicode hex="00DE"/>
  <outline>
    <contour>
      <point x="27" y="0" type="line"/>
      <point x="282" y="0" type="line"/>
      <point x="282" y="47" type="line"/>
      <point x="207" y="57" type="line"/>
      <point x="207" y="122" type="line"/>
      <point x="224" y="120"/>
      <point x="255" y="118"/>
      <point x="291" y="118" type="curve" smooth="yes"/>
      <point x="407" y="118"/>
      <point x="478" y="170"/>
      <point x="478" y="285" type="curve" smooth="yes"/>
      <point x="478" y="384"/>
      <point x="421" y="432"/>
      <point x="313" y="432" type="curve" smooth="yes"/>
      <point x="270" y="432"/>
      <point x="242" y="427"/>
      <point x="207" y="424" type="curve"/>
      <point x="207" y="490" type="line"/>
      <point x="267" y="501" type="line"/>
      <point x="267" y="550" type="line"/>
      <point x="27" y="550" type="line"/>
      <point x="27" y="501" type="line"/>
      <point x="84" y="490" type="line"/>
      <point x="84" y="57" type="line"/>
      <point x="27" y="47" type="line"/>
    </contour>
    <contour>
      <point x="270" y="167" type="curve" smooth="yes"/>
      <point x="251" y="167"/>
      <point x="230" y="167"/>
      <point x="207" y="170" type="curve"/>
      <point x="207" y="373" type="line"/>
      <point x="219" y="376"/>
      <point x="239" y="379"/>
      <point x="259" y="379" type="curve"/>
      <point x="326" y="380"/>
      <point x="349" y="334"/>
      <point x="349" y="280" type="curve" smooth="yes"/>
      <point x="349" y="204"/>
      <point x="315" y="167"/>
    </contour>
  </outline>
</glyph>
<glyph name="germandbls" format="1">
  <advance width="488"/>
  <unicode hex="00DF"/>
  <outline>
    <contour>
      <point x="16" y="0" type="line"/>
      <point x="177" y="0" type="line"/>
      <point x="177" y="364" type="line"/>
      <point x="177" y="476"/>
      <point x="204" y="529"/>
      <point x="266" y="529" type="curve" smooth="yes"/>
      <point x="299" y="529"/>
      <point x="319" y="510"/>
      <point x="319" y="467" type="curve" smooth="yes"/>
      <point x="319" y="382"/>
      <point x="249" y="366"/>
      <point x="249" y="308" type="curve" smooth="yes"/>
      <point x="249" y="226"/>
      <point x="350" y="199"/>
      <point x="350" y="110" type="curve" smooth="yes"/>
      <point x="350" y="80"/>
      <point x="333" y="53"/>
      <point x="291" y="53" type="curve" smooth="yes"/>
      <point x="270" y="53"/>
      <point x="247" y="58"/>
      <point x="234" y="63" type="curve"/>
      <point x="234" y="0" type="line"/>
      <point x="248" y="-4"/>
      <point x="280" y="-8"/>
      <point x="296" y="-8" type="curve" smooth="yes"/>
      <point x="411" y="-8"/>
      <point x="476" y="45"/>
      <point x="476" y="127" type="curve" smooth="yes"/>
      <point x="476" y="249"/>
      <point x="346" y="283"/>
      <point x="346" y="341" type="curve" smooth="yes"/>
      <point x="346" y="392"/>
      <point x="429" y="401"/>
      <point x="429" y="484" type="curve" smooth="yes"/>
      <point x="429" y="547"/>
      <point x="379" y="583"/>
      <point x="286" y="583" type="curve" smooth="yes"/>
      <point x="150" y="583"/>
      <point x="59" y="487"/>
      <point x="59" y="350" type="curve" smooth="yes"/>
      <point x="59" y="56" type="line"/>
      <point x="16" y="48" type="line"/>
    </contour>
  </outline>
</glyph>
<glyph name="ae" format="1">
  <advance width="643"/>
  <unicode hex="00E6"/>
  <outline>
    <contour>
      <point x="456" y="-8" type="curve" smooth="yes"/>
      <point x="524" y="-8"/>
      <point x="591" y="26"/>
      <point x="615" y="51" type="curve"/>
      <point x="596" y="96" type="line"/>
      <point x="573" y="81"/>
      <point x="528" y="65"/>
      <point x="488" y="65" type="curve" smooth="yes"/>
      <point x="427" y="65"/>
      <point x="386" y="104"/>
      <point x="380" y="196" type="curve"/>
      <point x="615" y="196" type="line"/>
      <point x="619" y="216"/>
      <point x="621" y="239"/>
      <point x="620" y="273" type="curve"/>
      <point x="618" y="368"/>
      <point x="564" y="422"/>
      <point x="461" y="422" type="curve" smooth="yes"/>
      <point x="410" y="422"/>
      <point x="367" y="407"/>
      <point x="334" y="381" type="curve"/>
      <point x="314" y="409"/>
      <point x="279" y="421"/>
      <point x="217" y="421" type="curve" smooth="yes"/>
      <point x="133" y="421"/>
      <point x="54" y="381"/>
      <point x="33" y="363" type="curve"/>
      <point x="58" y="313" type="line"/>
      <point x="90" y="326"/>
      <point x="132" y="342"/>
      <point x="186" y="342" type="curve" smooth="yes"/>
      <point x="247" y="342"/>
      <point x="261" y="319"/>
      <point x="261" y="269" type="curve" smooth="yes"/>
      <point x="261" y="253" type="line"/>
      <point x="119" y="252"/>
      <point x="21" y="207"/>
      <point x="21" y="112" type="curve" smooth="yes"/>
      <point x="21" y="31"/>
      <point x="79" y="-8"/>
      <point x="147" y="-8" type="curve" smooth="yes"/>
      <point x="213" y="-8"/>
      <point x="270" y="27"/>
      <point x="296" y="66" type="curve"/>
      <point x="327" y="19"/>
      <point x="379" y="-8"/>
    </contour>
    <contour>
      <point x="201" y="60" type="curve" smooth="yes"/>
      <point x="170" y="60"/>
      <point x="148" y="79"/>
      <point x="148" y="128" type="curve" smooth="yes"/>
      <point x="148" y="167"/>
      <point x="175" y="206"/>
      <point x="261" y="207" type="curve"/>
      <point x="261" y="205" type="line" smooth="yes"/>
      <point x="261" y="167"/>
      <point x="266" y="133"/>
      <point x="278" y="103" type="curve"/>
      <point x="264" y="81"/>
      <point x="233" y="60"/>
    </contour>
    <contour>
      <point x="447" y="371" type="curve" smooth="yes"/>
      <point x="490" y="371"/>
      <point x="504" y="330"/>
      <point x="504" y="276" type="curve" smooth="yes"/>
      <point x="504" y="268"/>
      <point x="504" y="253"/>
      <point x="504" y="246" type="curve"/>
      <point x="379" y="246" type="line"/>
      <point x="381" y="349"/>
      <point x="409" y="371"/>
    </contour>
  </outline>
</glyph>
<glyph name="eth" format="1">
  <advance width="444"/>
  <unicode hex="00F0"/>
  <outline>
    <contour>
      <point x="139" y="478" type="line"/>
      <point x="184" y="538" type="line"/>
      <point x="230" y="506"/>
      <point x="265" y="461"/>
      <point x="281" y="411" type="curve"/>
      <point x="266" y="417"/>
      <point x="244" y="422"/>
      <point x="216" y="422" type="curve" smooth="yes"/>
      <point x="120" y="422"/>
      <point x="25" y="350"/>
      <point x="25" y="197" type="curve" smooth="yes"/>
      <point x="25" y="76"/>
      <point x="92" y="-8"/>
      <point x="221" y="-8" type="curve" smooth="yes"/>
      <point x="374" y="-8"/>
      <point x="422" y="128"/>
      <point x="422" y="244" type="curve" smooth="yes"/>
      <point x="422" y="401"/>
      <point x="333" y="522"/>
      <point x="228" y="594" type="curve"/>
      <point x="248" y="619"/>
      <point x="270" y="646"/>
      <point x="270" y="646" type="curve"/>
      <point x="224" y="681" type="line"/>
      <point x="224" y="681"/>
      <point x="200" y="650"/>
      <point x="179" y="622" type="curve"/>
      <point x="142" y="640"/>
      <point x="114" y="649"/>
      <point x="84" y="657" type="curve"/>
      <point x="63" y="607" type="line"/>
      <point x="80" y="602"/>
      <point x="110" y="588"/>
      <point x="139" y="570" type="curve"/>
      <point x="90" y="511" type="line"/>
    </contour>
    <contour>
      <point x="226" y="45" type="curve" smooth="yes"/>
      <point x="172" y="45"/>
      <point x="153" y="126"/>
      <point x="153" y="210" type="curve" smooth="yes"/>
      <point x="153" y="322"/>
      <point x="179" y="373"/>
      <point x="227" y="373" type="curve" smooth="yes"/>
      <point x="260" y="373"/>
      <point x="279" y="357"/>
      <point x="287" y="348" type="curve"/>
      <point x="292" y="330"/>
      <point x="300" y="284"/>
      <point x="300" y="229" type="curve" smooth="yes"/>
      <point x="300" y="96"/>
      <point x="274" y="45"/>
    </contour>
  </outline>
</glyph>
<glyph name="divide" format="1">
  <advance width="491"/>
  <unicode hex="00F7"/>
  <outline>
    <contour>
      <point x="181" y="67" type="curve" smooth="yes"/>
      <point x="181" y="33"/>
      <point x="210" y="10"/>
      <point x="240" y="10" type="curve" smooth="yes"/>
      <point x="280" y="10"/>
      <point x="310" y="33"/>
      <point x="310" y="73" type="curve" smooth="yes"/>
      <point x="310" y="103"/>
      <point x="289" y="129"/>
      <point x="250" y="129" type="curve" smooth="yes"/>
      <point x="213" y="129"/>
      <point x="181" y="104"/>
    </contour>
    <contour>
      <point x="75" y="185" type="line"/>
      <point x="416" y="185" type="line"/>
      <point x="416" y="259" type="line"/>
      <point x="75" y="259" type="line"/>
    </contour>
    <contour>
      <point x="244" y="321" type="curve" smooth="yes"/>
      <point x="284" y="321"/>
      <point x="314" y="343"/>
      <point x="314" y="382" type="curve" smooth="yes"/>
      <point x="314" y="412"/>
      <point x="293" y="439"/>
      <point x="254" y="439" type="curve" smooth="yes"/>
      <point x="217" y="439"/>
      <point x="185" y="413"/>
      <point x="185" y="376" type="curve" smooth="yes"/>
      <point x="185" y="342"/>
      <point x="214" y="321"/>
    </contour>
  </outline>
</glyph>
<glyph name="oslash" format="1">
  <advance width="450"/>
  <unicode hex="00F8"/>
  <outline>
    <contour>
      <point x="23" y="204" type="curve" smooth="yes"/>
      <point x="23" y="107"/>
      <point x="62" y="38"/>
      <point x="133" y="8" type="curve"/>
      <point x="102" y="-79" type="line"/>
      <point x="153" y="-93" type="line"/>
      <point x="184" y="-6" type="line"/>
      <point x="195" y="-7"/>
      <point x="207" y="-8"/>
      <point x="219" y="-8" type="curve" smooth="yes"/>
      <point x="329" y="-8"/>
      <point x="427" y="60"/>
      <point x="427" y="210" type="curve" smooth="yes"/>
      <point x="427" y="305"/>
      <point x="389" y="373"/>
      <point x="321" y="404" type="curve"/>
      <point x="346" y="484" type="line"/>
      <point x="297" y="499" type="line"/>
      <point x="271" y="419" type="line"/>
      <point x="259" y="421"/>
      <point x="244" y="422"/>
      <point x="230" y="422" type="curve" smooth="yes"/>
      <point x="121" y="422"/>
      <point x="23" y="350"/>
    </contour>
    <contour>
      <point x="150" y="213" type="curve" smooth="yes"/>
      <point x="150" y="322"/>
      <point x="174" y="370"/>
      <point x="224" y="370" type="curve" smooth="yes"/>
      <point x="238" y="370"/>
      <point x="249" y="367"/>
      <point x="259" y="359" type="curve"/>
      <point x="170" y="83" type="line"/>
      <point x="156" y="111"/>
      <point x="150" y="156"/>
    </contour>
    <contour>
      <point x="226" y="44" type="curve" smooth="yes"/>
      <point x="213" y="44"/>
      <point x="202" y="47"/>
      <point x="193" y="53" type="curve"/>
      <point x="282" y="326" type="line"/>
      <point x="294" y="297"/>
      <point x="299" y="255"/>
      <point x="299" y="201" type="curve" smooth="yes"/>
      <point x="299" y="93"/>
      <point x="276" y="44"/>
    </contour>
  </outline>
</glyph>
<glyph name="thorn" format="1">
  <advance width="463"/>
  <unicode hex="00FE"/>
  <outline>
    <contour>
      <point x="57" y="538" type="line"/>
      <point x="57" y="-124" type="line"/>
      <point x="9" y="-134" type="line"/>
      <point x="9" y="-179" type="line"/>
      <point x="239" y="-179" type="line"/>
      <point x="239" y="-134" type="line"/>
      <point x="173" y="-124" type="line"/>
      <point x="173" y="-55" type="line"/>
      <point x="170" y="-7" type="line"/>
      <point x="185" y="-7"/>
      <point x="201" y="-8"/>
      <point x="218" y="-8" type="curve" smooth="yes"/>
      <point x="356" y="-8"/>
      <point x="439" y="91"/>
      <point x="439" y="219" type="curve" smooth="yes"/>
      <point x="439" y="364"/>
      <point x="366" y="422"/>
      <point x="279" y="422" type="curve" smooth="yes"/>
      <point x="233" y="422"/>
      <point x="195" y="400"/>
      <point x="173" y="377" type="curve"/>
      <point x="173" y="593" type="line"/>
      <point x="149" y="607" type="line"/>
      <point x="147" y="607" type="line"/>
      <point x="4" y="590" type="line"/>
      <point x="4" y="547" type="line"/>
    </contour>
    <contour>
      <point x="233" y="352" type="curve" smooth="yes"/>
      <point x="282" y="352"/>
      <point x="315" y="309"/>
      <point x="314" y="206" type="curve" smooth="yes"/>
      <point x="313" y="93"/>
      <point x="276" y="38"/>
      <point x="222" y="38" type="curve" smooth="yes"/>
      <point x="197" y="38"/>
      <point x="177" y="45"/>
      <point x="173" y="56" type="curve"/>
      <point x="173" y="324" type="line"/>
      <point x="184" y="337"/>
      <point x="206" y="352"/>
    </contour>
  </outline>
</glyph>
<glyph name="Amacron" format="1">
  <advance width="522"/>
  <unicode hex="0100"/>
  <outline>
    <contour>
      <point x="147" y="622" type="line"/>
      <point x="378" y="622" type="line"/>
      <point x="378" y="693" type="line"/>
      <point x="147" y="693" type="line"/>
    </contour>
    <contour>
      <point x="-14" y="0" type="line"/>
      <point x="182" y="0" type="line"/>
      <point x="182" y="48" type="line"/>
      <point x="124" y="56" type="line"/>
      <point x="149" y="147" type="line"/>
      <point x="331" y="147" type="line"/>
      <point x="357" y="58" type="line"/>
      <point x="305" y="48" type="line"/>
      <point x="305" y="0" type="line"/>
      <point x="534" y="0" type="line"/>
      <point x="534" y="48" type="line"/>
      <point x="492" y="58" type="line"/>
      <point x="324" y="553" type="line"/>
      <point x="197" y="553" type="line"/>
      <point x="29" y="58" type="line"/>
      <point x="-15" y="48" type="line"/>
    </contour>
    <contour>
      <point x="227" y="427" type="line"/>
      <point x="238" y="478" type="line"/>
      <point x="249" y="427" type="line"/>
      <point x="315" y="203" type="line"/>
      <point x="165" y="203" type="line"/>
    </contour>
  </outline>
</glyph>
